<svg id="svg" version="1.1" width="400" height="400" xmlns="http://www.w3.org/2000/svg" xmlns:xlink="http://www.w3.org/1999/xlink" style="display: block;"><g id="svgg"><path id="path0" d="M164.600 1.200 C 164.160 1.389,163.980 1.559,164.200 1.578 C 164.420 1.597,164.330 1.787,164.000 2.000 C 163.648 2.227,163.595 2.390,163.871 2.394 C 164.316 2.400,165.600 1.343,165.600 0.971 C 165.600 0.767,165.614 0.764,164.600 1.200 M235.093 1.600 C 235.470 2.040,235.916 2.400,236.085 2.400 C 236.254 2.400,236.084 2.040,235.707 1.600 C 235.330 1.160,234.884 0.800,234.715 0.800 C 234.546 0.800,234.716 1.160,235.093 1.600 M156.300 2.832 C 155.915 3.056,155.600 3.439,155.600 3.682 C 155.600 3.941,155.890 3.871,156.300 3.514 C 156.685 3.179,157.270 2.805,157.600 2.684 C 158.133 2.488,158.133 2.461,157.600 2.444 C 157.270 2.433,156.685 2.608,156.300 2.832 M242.734 2.751 C 243.028 2.937,243.253 3.204,243.234 3.345 C 243.215 3.485,243.290 3.600,243.400 3.600 C 243.510 3.600,243.814 3.600,244.076 3.600 C 244.339 3.600,244.204 3.336,243.776 3.013 C 243.349 2.690,242.820 2.422,242.600 2.419 C 242.380 2.415,242.440 2.565,242.734 2.751 M89.017 31.172 C 88.744 31.614,89.375 32.092,89.744 31.722 C 90.125 31.342,90.054 30.800,89.624 30.800 C 89.417 30.800,89.144 30.968,89.017 31.172 M69.467 45.700 C 69.063 46.122,68.809 46.543,68.902 46.636 C 68.995 46.729,69.399 46.443,69.800 46.000 C 70.739 44.962,70.435 44.688,69.467 45.700 M329.600 45.138 C 329.600 45.324,329.960 45.802,330.400 46.200 C 330.840 46.598,331.200 46.806,331.200 46.662 C 331.200 46.518,330.840 46.040,330.400 45.600 C 329.960 45.160,329.600 44.952,329.600 45.138 M199.010 51.184 C 198.864 51.420,198.577 51.509,198.372 51.383 C 198.168 51.256,198.000 51.363,198.000 51.619 C 198.000 51.876,197.730 51.982,197.400 51.855 C 197.070 51.729,196.800 51.820,196.800 52.059 C 196.800 52.326,197.148 52.385,197.700 52.213 C 198.195 52.060,199.202 51.955,199.938 51.982 C 200.866 52.015,201.225 51.872,201.107 51.515 C 200.891 50.859,199.360 50.617,199.010 51.184 M201.703 51.600 C 201.896 52.310,203.200 52.663,203.200 52.006 C 203.200 51.757,203.000 51.676,202.755 51.828 C 202.511 51.979,202.137 51.854,201.925 51.551 C 201.608 51.098,201.568 51.107,201.703 51.600 M229.417 54.372 C 229.291 54.577,229.370 54.858,229.593 54.996 C 229.817 55.134,230.000 55.125,230.000 54.975 C 230.000 54.825,230.274 54.930,230.610 55.208 C 230.945 55.486,231.287 55.643,231.370 55.557 C 231.454 55.471,231.100 55.085,230.585 54.699 C 230.067 54.312,229.545 54.166,229.417 54.372 M134.000 67.193 C 133.067 67.916,133.058 67.953,133.872 67.745 C 134.352 67.622,134.841 67.269,134.960 66.961 C 135.232 66.252,135.206 66.258,134.000 67.193 M268.000 68.400 C 268.000 68.620,268.225 68.755,268.500 68.700 C 268.775 68.645,268.955 68.825,268.900 69.100 C 268.845 69.375,268.980 69.600,269.200 69.600 C 269.742 69.600,269.704 69.064,269.120 68.480 C 268.536 67.896,268.000 67.858,268.000 68.400 M353.427 69.228 C 354.045 69.873,354.730 70.400,354.951 70.400 C 355.172 70.400,355.004 70.145,354.576 69.832 C 354.149 69.520,353.800 69.042,353.800 68.770 C 353.800 68.499,353.464 68.227,353.052 68.167 C 352.436 68.076,352.502 68.263,353.427 69.228 M45.500 69.633 C 45.115 70.055,44.952 70.400,45.138 70.400 C 45.324 70.400,45.802 70.040,46.200 69.600 C 46.598 69.160,46.761 68.815,46.562 68.833 C 46.363 68.852,45.885 69.212,45.500 69.633 M30.988 89.220 C 30.607 89.835,31.128 90.232,31.642 89.718 C 31.929 89.431,31.936 89.207,31.662 89.039 C 31.439 88.900,31.135 88.982,30.988 89.220 M380.400 111.400 C 380.400 111.730,380.715 111.986,381.100 111.968 C 381.522 111.949,381.601 111.856,381.298 111.734 C 381.021 111.623,380.897 111.367,381.021 111.166 C 381.145 110.965,381.057 110.800,380.824 110.800 C 380.591 110.800,380.400 111.070,380.400 111.400 M67.045 134.188 C 66.538 134.961,66.519 135.129,66.959 134.960 C 67.268 134.842,67.612 134.397,67.723 133.972 C 67.992 132.945,67.824 132.999,67.045 134.188 M392.832 143.451 C 392.791 144.034,393.940 144.993,394.276 144.657 C 394.418 144.516,394.313 144.400,394.043 144.400 C 393.773 144.400,393.681 144.192,393.838 143.938 C 394.007 143.665,393.949 143.584,393.696 143.741 C 393.461 143.886,393.177 143.779,393.066 143.502 C 392.940 143.189,392.851 143.170,392.832 143.451 M2.788 156.422 C 2.546 156.874,2.436 157.459,2.542 157.722 C 2.671 158.038,2.748 158.007,2.768 157.631 C 2.786 157.319,3.098 156.734,3.462 156.331 C 3.835 155.919,3.929 155.600,3.676 155.600 C 3.430 155.600,3.030 155.970,2.788 156.422 M2.000 163.957 C 2.000 164.227,1.840 164.349,1.645 164.228 C 1.450 164.108,1.201 164.354,1.091 164.775 C 0.955 165.293,1.060 165.475,1.414 165.339 C 2.000 165.114,2.533 164.000,2.209 163.676 C 2.094 163.561,2.000 163.687,2.000 163.957 M397.771 164.481 C 397.607 164.766,397.618 164.868,397.796 164.706 C 397.975 164.545,398.358 164.725,398.648 165.106 C 398.937 165.488,399.180 165.597,399.187 165.349 C 399.210 164.555,398.116 163.884,397.771 164.481 M51.855 197.400 C 51.982 197.730,51.886 198.000,51.643 198.000 C 51.399 198.000,51.229 198.135,51.264 198.300 C 51.298 198.465,51.189 198.915,51.021 199.300 C 50.662 200.121,50.991 201.200,51.600 201.200 C 51.834 201.200,52.004 200.615,51.979 199.900 C 51.954 199.185,52.060 198.195,52.213 197.700 C 52.385 197.148,52.326 196.800,52.059 196.800 C 51.820 196.800,51.729 197.070,51.855 197.400 M348.390 199.063 C 348.616 199.175,348.800 199.597,348.800 200.000 C 348.800 200.403,348.616 200.825,348.390 200.937 C 348.165 201.049,348.210 201.094,348.490 201.037 C 348.771 200.980,349.000 200.513,349.000 200.000 C 349.000 199.487,348.771 199.020,348.490 198.963 C 348.210 198.907,348.165 198.952,348.390 199.063 M51.551 201.925 C 51.854 202.137,51.979 202.511,51.828 202.755 C 51.676 203.000,51.757 203.200,52.006 203.200 C 52.663 203.200,52.310 201.896,51.600 201.703 C 51.107 201.568,51.098 201.608,51.551 201.925 M54.265 229.495 C 54.160 229.665,54.417 230.228,54.837 230.746 C 55.257 231.265,55.600 231.499,55.600 231.268 C 55.600 231.037,55.417 230.734,55.193 230.596 C 54.970 230.458,54.883 230.190,55.000 230.000 C 55.117 229.810,55.043 229.550,54.834 229.421 C 54.626 229.292,54.369 229.326,54.265 229.495 M0.800 234.715 C 0.800 234.884,1.160 235.330,1.600 235.707 C 2.040 236.084,2.400 236.254,2.400 236.085 C 2.400 235.916,2.040 235.470,1.600 235.093 C 1.160 234.716,0.800 234.546,0.800 234.715 M2.419 242.600 C 2.422 242.820,2.690 243.349,3.013 243.776 C 3.336 244.204,3.600 244.339,3.600 244.076 C 3.600 243.814,3.600 243.510,3.600 243.400 C 3.600 243.290,3.485 243.215,3.345 243.234 C 3.204 243.253,2.937 243.028,2.751 242.734 C 2.565 242.440,2.415 242.380,2.419 242.600 M68.000 268.320 C 68.000 268.734,68.866 269.600,69.280 269.600 C 69.456 269.600,69.600 269.420,69.600 269.200 C 69.600 268.980,69.375 268.845,69.100 268.900 C 68.825 268.955,68.645 268.775,68.700 268.500 C 68.755 268.225,68.620 268.000,68.400 268.000 C 68.180 268.000,68.000 268.144,68.000 268.320 M198.963 348.490 C 199.020 348.771,199.487 349.000,200.000 349.000 C 200.513 349.000,200.980 348.771,201.037 348.490 C 201.094 348.210,201.049 348.165,200.937 348.390 C 200.825 348.616,200.403 348.800,200.000 348.800 C 199.597 348.800,199.175 348.616,199.063 348.390 C 198.952 348.165,198.907 348.210,198.963 348.490 M110.800 380.824 C 110.800 381.057,110.965 381.145,111.166 381.021 C 111.367 380.897,111.623 381.021,111.734 381.298 C 111.856 381.601,111.949 381.522,111.968 381.100 C 111.986 380.715,111.730 380.400,111.400 380.400 C 111.070 380.400,110.800 380.591,110.800 380.824 M143.502 393.066 C 143.779 393.177,143.886 393.461,143.741 393.696 C 143.584 393.949,143.665 394.007,143.938 393.838 C 144.192 393.681,144.400 393.773,144.400 394.043 C 144.400 394.313,144.516 394.418,144.657 394.276 C 144.993 393.940,144.034 392.791,143.451 392.832 C 143.170 392.851,143.189 392.940,143.502 393.066 M255.433 393.457 C 255.295 393.819,255.271 394.204,255.381 394.314 C 255.636 394.570,256.800 393.616,256.800 393.151 C 256.800 392.530,255.694 392.778,255.433 393.457 M164.228 397.955 C 163.963 398.383,165.116 399.418,165.467 399.066 C 165.603 398.930,165.420 398.706,165.060 398.568 C 164.699 398.429,164.504 398.155,164.626 397.958 C 164.748 397.761,164.757 397.600,164.647 397.600 C 164.537 397.600,164.349 397.760,164.228 397.955 " stroke="none" fill="#005555" fill-rule="evenodd"></path><path id="path1" d="M174.800 0.400 C 174.800 0.643,173.007 0.800,170.220 0.800 C 166.274 0.800,165.586 0.897,165.248 1.500 C 164.933 2.064,164.116 2.241,161.056 2.413 C 158.247 2.570,157.058 2.805,156.497 3.313 C 155.954 3.804,155.043 4.000,153.301 4.000 C 150.505 4.000,149.600 4.255,149.600 5.043 C 149.600 5.450,149.022 5.600,147.454 5.600 C 145.914 5.600,145.021 5.826,144.291 6.400 C 143.584 6.956,142.668 7.200,141.286 7.200 C 139.419 7.200,138.039 7.905,138.670 8.537 C 138.815 8.682,137.920 8.800,136.681 8.800 C 134.838 8.800,134.350 8.945,134.000 9.600 C 133.670 10.216,133.162 10.400,131.789 10.400 C 130.440 10.400,129.885 10.594,129.507 11.200 C 129.151 11.770,128.574 12.000,127.504 12.000 C 126.498 12.000,126.000 12.181,126.000 12.547 C 126.000 12.876,125.400 13.179,124.500 13.305 C 122.279 13.615,121.844 13.752,121.401 14.275 C 121.181 14.536,120.370 14.915,119.600 15.117 C 118.830 15.319,118.245 15.691,118.300 15.942 C 118.355 16.194,118.085 16.414,117.700 16.431 C 116.221 16.495,115.405 16.778,114.967 17.378 C 114.717 17.720,113.968 18.000,113.303 18.000 C 112.430 18.000,112.035 18.223,111.884 18.800 C 111.724 19.413,111.338 19.600,110.237 19.600 C 109.067 19.600,108.800 19.748,108.800 20.400 C 108.800 21.067,108.533 21.200,107.200 21.200 C 105.867 21.200,105.600 21.333,105.600 22.000 C 105.600 22.579,105.333 22.800,104.633 22.800 C 103.252 22.800,102.400 23.198,102.400 23.843 C 102.400 24.199,101.954 24.400,101.163 24.400 C 100.262 24.400,99.868 24.617,99.716 25.200 C 99.568 25.766,99.170 26.000,98.357 26.000 C 97.640 26.000,97.019 26.301,96.707 26.800 C 96.432 27.240,95.891 27.600,95.504 27.600 C 95.067 27.600,94.800 27.903,94.800 28.400 C 94.800 29.067,94.533 29.200,93.200 29.200 C 92.044 29.200,91.600 29.367,91.600 29.800 C 91.600 30.130,91.336 30.400,91.014 30.400 C 90.692 30.400,90.235 30.760,90.000 31.200 C 89.765 31.640,89.218 32.000,88.786 32.000 C 88.354 32.000,87.671 32.329,87.269 32.731 C 86.868 33.132,86.238 33.577,85.869 33.718 C 85.501 33.859,85.200 34.251,85.200 34.587 C 85.200 34.925,84.855 35.200,84.433 35.200 C 83.241 35.200,82.400 35.631,82.400 36.243 C 82.400 36.549,82.052 36.800,81.627 36.800 C 81.202 36.800,80.752 37.120,80.628 37.512 C 80.504 37.903,79.845 38.434,79.164 38.691 C 78.473 38.952,78.042 39.344,78.187 39.579 C 78.410 39.939,77.648 40.187,76.724 40.055 C 76.573 40.034,76.336 40.373,76.197 40.808 C 76.059 41.244,75.598 41.600,75.173 41.600 C 74.667 41.600,74.400 41.876,74.400 42.400 C 74.400 42.933,74.133 43.200,73.600 43.200 C 73.067 43.200,72.800 43.467,72.800 44.000 C 72.800 44.523,72.533 44.800,72.031 44.800 C 71.608 44.800,70.733 45.245,70.086 45.789 C 69.440 46.333,68.796 46.663,68.656 46.522 C 68.515 46.382,68.400 46.524,68.400 46.838 C 68.400 47.152,67.835 47.857,67.145 48.404 C 66.455 48.952,65.605 49.715,65.256 50.100 C 64.908 50.485,64.392 50.800,64.111 50.800 C 63.647 50.800,63.428 51.310,63.553 52.100 C 63.579 52.265,63.240 52.400,62.800 52.400 C 62.283 52.400,62.000 52.667,62.000 53.153 C 62.000 53.570,61.643 54.000,61.200 54.116 C 60.760 54.231,60.400 54.612,60.400 54.963 C 60.400 55.333,60.065 55.600,59.600 55.600 C 59.067 55.600,58.800 55.867,58.800 56.400 C 58.800 56.933,58.533 57.200,58.000 57.200 C 57.467 57.200,57.200 57.467,57.200 58.000 C 57.200 58.533,56.933 58.800,56.400 58.800 C 55.883 58.800,55.600 59.067,55.600 59.553 C 55.600 59.970,55.243 60.400,54.800 60.516 C 54.360 60.631,54.000 61.012,54.000 61.363 C 54.000 61.733,53.665 62.000,53.200 62.000 C 52.667 62.000,52.400 62.267,52.400 62.800 C 52.400 63.240,52.265 63.579,52.100 63.553 C 51.310 63.428,50.800 63.647,50.800 64.111 C 50.800 64.392,50.485 64.908,50.100 65.256 C 49.715 65.605,48.952 66.455,48.404 67.145 C 47.857 67.835,47.152 68.400,46.838 68.400 C 46.524 68.400,46.382 68.515,46.522 68.656 C 46.663 68.796,46.333 69.440,45.789 70.086 C 45.245 70.733,44.800 71.608,44.800 72.031 C 44.800 72.533,44.523 72.800,44.000 72.800 C 43.467 72.800,43.200 73.067,43.200 73.600 C 43.200 74.133,42.933 74.400,42.400 74.400 C 41.876 74.400,41.600 74.667,41.600 75.173 C 41.600 75.598,41.244 76.059,40.808 76.197 C 40.373 76.336,40.034 76.573,40.055 76.724 C 40.187 77.648,39.939 78.410,39.579 78.187 C 39.344 78.042,38.952 78.473,38.691 79.164 C 38.434 79.845,37.903 80.504,37.512 80.628 C 37.120 80.752,36.800 81.202,36.800 81.627 C 36.800 82.052,36.549 82.400,36.243 82.400 C 35.631 82.400,35.200 83.241,35.200 84.433 C 35.200 84.855,34.925 85.200,34.587 85.200 C 34.251 85.200,33.859 85.501,33.718 85.869 C 33.577 86.238,33.132 86.868,32.731 87.269 C 32.329 87.671,32.000 88.354,32.000 88.786 C 32.000 89.218,31.640 89.765,31.200 90.000 C 30.760 90.235,30.400 90.692,30.400 91.014 C 30.400 91.336,30.130 91.600,29.800 91.600 C 29.367 91.600,29.200 92.044,29.200 93.200 C 29.200 94.533,29.067 94.800,28.400 94.800 C 27.903 94.800,27.600 95.067,27.600 95.504 C 27.600 95.891,27.240 96.432,26.800 96.707 C 26.301 97.019,26.000 97.640,26.000 98.357 C 26.000 99.170,25.766 99.568,25.200 99.716 C 24.617 99.868,24.400 100.262,24.400 101.163 C 24.400 101.954,24.199 102.400,23.843 102.400 C 23.198 102.400,22.800 103.252,22.800 104.633 C 22.800 105.333,22.579 105.600,22.000 105.600 C 21.333 105.600,21.200 105.867,21.200 107.200 C 21.200 108.533,21.067 108.800,20.400 108.800 C 19.748 108.800,19.600 109.067,19.600 110.237 C 19.600 111.338,19.413 111.724,18.800 111.884 C 18.223 112.035,18.000 112.430,18.000 113.303 C 18.000 113.968,17.720 114.717,17.378 114.967 C 16.778 115.405,16.495 116.221,16.431 117.700 C 16.414 118.085,16.194 118.355,15.942 118.300 C 15.691 118.245,15.319 118.830,15.117 119.600 C 14.915 120.370,14.536 121.181,14.275 121.401 C 13.752 121.844,13.615 122.279,13.305 124.500 C 13.179 125.400,12.876 126.000,12.547 126.000 C 12.175 126.000,12.000 126.513,12.000 127.600 C 12.000 128.696,11.826 129.200,11.447 129.200 C 10.827 129.200,10.414 130.394,10.405 132.211 C 10.402 132.922,10.070 133.705,9.600 134.107 C 8.991 134.628,8.800 135.287,8.800 136.863 C 8.800 138.002,8.682 138.815,8.537 138.670 C 7.905 138.039,7.200 139.419,7.200 141.286 C 7.200 142.668,6.956 143.584,6.400 144.291 C 5.826 145.021,5.600 145.914,5.600 147.454 C 5.600 149.022,5.450 149.600,5.043 149.600 C 4.255 149.600,4.000 150.505,4.000 153.301 C 4.000 155.043,3.804 155.954,3.313 156.497 C 2.805 157.058,2.570 158.247,2.413 161.056 C 2.241 164.116,2.064 164.933,1.500 165.248 C 0.897 165.586,0.800 166.274,0.800 170.220 C 0.800 173.007,0.643 174.800,0.400 174.800 C 0.138 174.800,0.000 183.467,0.000 200.000 C 0.000 216.533,0.138 225.200,0.400 225.200 C 0.643 225.200,0.800 227.001,0.800 229.804 C 0.800 233.913,0.886 234.481,1.600 235.093 C 2.278 235.673,2.400 236.273,2.400 239.012 C 2.400 241.360,2.573 242.460,3.030 243.024 C 3.376 243.451,3.528 243.547,3.368 243.238 C 3.195 242.906,3.239 242.777,3.475 242.923 C 3.694 243.058,3.911 244.391,3.957 245.884 C 4.063 249.277,4.333 250.400,5.043 250.400 C 5.452 250.400,5.600 250.990,5.600 252.617 C 5.600 254.281,5.800 255.048,6.400 255.692 C 6.919 256.249,7.218 257.157,7.250 258.275 C 7.322 260.775,7.334 260.816,8.100 261.376 C 8.572 261.721,8.800 262.429,8.800 263.544 C 8.800 264.667,9.058 265.458,9.600 266.000 C 10.112 266.512,10.402 267.340,10.406 268.300 C 10.413 269.865,10.838 270.898,11.445 270.826 C 11.640 270.802,11.858 271.452,11.929 272.269 C 12.000 273.085,12.295 273.944,12.586 274.177 C 12.877 274.410,13.223 275.230,13.355 276.000 C 13.724 278.147,13.824 278.443,14.278 278.732 C 14.510 278.879,14.823 279.570,14.974 280.267 C 15.125 280.963,15.482 281.623,15.768 281.732 C 16.053 281.842,16.404 282.667,16.548 283.566 C 16.718 284.629,17.017 285.200,17.405 285.200 C 17.821 285.200,18.000 285.631,18.000 286.637 C 18.000 287.738,18.187 288.124,18.800 288.284 C 19.397 288.440,19.600 288.830,19.600 289.820 C 19.600 290.795,19.812 291.213,20.400 291.400 C 20.968 291.580,21.200 292.005,21.200 292.864 C 21.200 293.738,21.422 294.133,22.000 294.284 C 22.606 294.443,22.800 294.830,22.800 295.884 C 22.800 296.938,22.994 297.325,23.600 297.484 C 24.166 297.632,24.400 298.030,24.400 298.843 C 24.400 299.560,24.701 300.181,25.200 300.493 C 25.640 300.768,26.000 301.393,26.000 301.882 C 26.000 302.371,26.360 302.965,26.800 303.200 C 27.240 303.435,27.600 303.999,27.600 304.452 C 27.600 304.938,27.927 305.360,28.400 305.484 C 29.001 305.641,29.200 306.030,29.200 307.047 C 29.200 307.983,29.385 308.400,29.800 308.400 C 30.130 308.400,30.400 308.664,30.400 308.986 C 30.400 309.308,30.760 309.765,31.200 310.000 C 31.640 310.235,32.000 310.782,32.000 311.214 C 32.000 311.646,32.360 312.360,32.800 312.800 C 33.240 313.240,33.600 313.870,33.600 314.200 C 33.600 314.533,33.956 314.800,34.400 314.800 C 34.963 314.800,35.200 315.067,35.200 315.700 C 35.200 316.195,35.920 317.388,36.800 318.351 C 37.680 319.313,38.400 320.316,38.400 320.578 C 38.400 320.841,38.857 321.453,39.416 321.939 C 39.975 322.426,40.317 323.010,40.176 323.239 C 40.035 323.467,40.298 323.753,40.760 323.874 C 41.238 323.999,41.600 324.418,41.600 324.847 C 41.600 325.333,41.883 325.600,42.400 325.600 C 42.933 325.600,43.200 325.867,43.200 326.400 C 43.200 326.933,43.467 327.200,44.000 327.200 C 44.523 327.200,44.800 327.467,44.800 327.969 C 44.800 328.392,45.245 329.267,45.789 329.914 C 46.333 330.560,46.679 331.188,46.559 331.308 C 46.438 331.428,46.713 331.646,47.170 331.790 C 47.626 331.935,48.000 332.230,48.000 332.444 C 48.000 332.659,48.990 333.817,50.200 335.017 C 51.410 336.218,52.400 337.368,52.400 337.573 C 52.400 337.778,52.760 338.060,53.200 338.200 C 53.640 338.340,54.000 338.729,54.000 339.064 C 54.000 339.400,54.343 339.765,54.763 339.874 C 55.183 339.984,55.621 340.435,55.736 340.877 C 55.859 341.348,56.134 341.564,56.400 341.400 C 56.668 341.234,56.944 341.463,57.074 341.960 C 57.199 342.438,57.618 342.800,58.047 342.800 C 58.533 342.800,58.800 343.083,58.800 343.600 C 58.800 344.133,59.067 344.400,59.600 344.400 C 60.133 344.400,60.400 344.667,60.400 345.200 C 60.400 345.733,60.667 346.000,61.200 346.000 C 61.733 346.000,62.000 346.267,62.000 346.800 C 62.000 347.333,62.267 347.600,62.800 347.600 C 63.240 347.600,63.555 347.747,63.500 347.926 C 63.369 348.352,65.812 350.800,66.369 350.800 C 66.606 350.800,66.800 351.087,66.800 351.437 C 66.800 351.788,67.160 352.169,67.600 352.284 C 68.040 352.399,68.400 352.742,68.400 353.047 C 68.400 353.351,68.592 353.600,68.827 353.600 C 69.061 353.600,69.843 354.050,70.564 354.600 C 71.286 355.150,72.084 355.600,72.338 355.600 C 72.592 355.600,72.800 355.876,72.800 356.213 C 72.800 356.549,73.115 356.941,73.500 357.082 C 73.885 357.224,74.344 357.578,74.520 357.870 C 74.696 358.161,75.080 358.400,75.373 358.400 C 75.667 358.400,76.001 358.760,76.116 359.200 C 76.241 359.679,76.662 360.000,77.163 360.000 C 77.623 360.000,78.000 360.189,78.000 360.420 C 78.000 360.652,78.608 361.095,79.351 361.406 C 80.095 361.716,80.809 362.247,80.939 362.585 C 81.069 362.923,81.438 363.200,81.760 363.200 C 82.083 363.200,82.460 363.560,82.600 364.000 C 82.778 364.560,83.205 364.800,84.027 364.800 C 84.933 364.800,85.200 364.982,85.200 365.600 C 85.200 366.044,85.467 366.400,85.800 366.400 C 86.130 366.400,86.760 366.760,87.200 367.200 C 87.640 367.640,88.377 368.000,88.837 368.000 C 89.338 368.000,89.759 368.321,89.884 368.800 C 90.000 369.243,90.430 369.600,90.847 369.600 C 91.261 369.600,91.600 369.854,91.600 370.165 C 91.600 370.512,92.216 370.834,93.200 371.000 C 94.203 371.169,94.800 371.486,94.800 371.848 C 94.800 372.165,95.115 372.537,95.500 372.673 C 95.885 372.810,96.490 373.170,96.845 373.473 C 97.200 373.777,97.911 374.106,98.425 374.205 C 98.939 374.304,99.513 374.658,99.700 374.992 C 99.887 375.327,100.559 375.600,101.193 375.600 C 101.995 375.600,102.423 375.844,102.600 376.400 C 102.787 376.988,103.205 377.200,104.180 377.200 C 105.170 377.200,105.560 377.403,105.716 378.000 C 105.876 378.613,106.262 378.800,107.363 378.800 C 108.533 378.800,108.800 378.948,108.800 379.600 C 108.800 380.267,109.067 380.400,110.400 380.400 C 111.733 380.400,112.000 380.533,112.000 381.200 C 112.000 381.872,112.267 382.000,113.667 382.000 C 114.583 382.000,115.215 382.118,115.070 382.263 C 114.536 382.797,115.739 383.600,117.073 383.600 C 117.829 383.600,118.344 383.768,118.217 383.972 C 117.926 384.444,118.708 384.942,120.000 385.108 C 120.550 385.178,121.204 385.504,121.454 385.831 C 121.704 386.159,122.829 386.536,123.954 386.669 C 125.284 386.827,126.000 387.100,126.000 387.451 C 126.000 387.770,126.645 388.094,127.575 388.242 C 128.442 388.381,129.239 388.724,129.347 389.006 C 129.455 389.287,130.498 389.648,131.664 389.809 C 132.831 389.969,133.980 390.366,134.217 390.691 C 134.454 391.016,135.490 391.376,136.518 391.492 C 137.546 391.608,138.592 391.950,138.843 392.251 C 139.134 392.602,140.144 392.800,141.646 392.800 C 143.560 392.800,144.085 392.948,144.493 393.600 C 144.897 394.246,145.426 394.400,147.250 394.400 C 149.170 394.400,149.538 394.519,149.716 395.200 C 149.903 395.915,150.262 396.000,153.074 396.000 C 155.765 396.000,156.307 396.117,156.800 396.800 C 157.303 397.498,157.835 397.600,160.992 397.600 C 164.174 397.600,164.667 397.696,165.107 398.400 C 165.560 399.125,166.040 399.200,170.203 399.200 C 173.001 399.200,174.800 399.357,174.800 399.600 C 174.800 399.862,183.467 400.000,200.000 400.000 C 216.533 400.000,225.200 399.862,225.200 399.600 C 225.200 399.355,227.079 399.200,230.037 399.200 C 234.538 399.200,234.889 399.144,235.084 398.400 C 235.274 397.673,235.630 397.600,238.985 397.600 C 242.168 397.600,242.776 397.490,243.400 396.800 C 244.000 396.137,244.632 396.000,247.099 396.000 C 249.738 396.000,250.099 395.910,250.284 395.200 C 250.463 394.516,250.830 394.400,252.820 394.400 C 254.795 394.400,255.184 394.279,255.400 393.600 C 255.622 392.902,256.005 392.800,258.407 392.800 C 260.297 392.800,261.261 392.630,261.480 392.259 C 261.656 391.961,262.560 391.619,263.489 391.498 C 264.418 391.378,265.448 391.009,265.779 390.678 C 266.109 390.348,267.284 389.953,268.391 389.801 C 269.497 389.649,270.537 389.288,270.701 389.000 C 270.866 388.711,271.600 388.381,272.334 388.267 C 273.068 388.153,273.878 387.797,274.134 387.476 C 274.390 387.156,275.404 386.795,276.386 386.673 C 277.368 386.552,278.370 386.182,278.613 385.850 C 278.981 385.347,279.962 385.023,281.700 384.833 C 281.865 384.815,281.955 384.575,281.900 384.300 C 281.837 383.985,282.372 383.753,283.344 383.673 C 284.471 383.581,284.944 383.337,285.091 382.773 C 285.242 382.196,285.646 382.000,286.684 382.000 C 287.738 382.000,288.125 381.806,288.284 381.200 C 288.432 380.634,288.830 380.400,289.643 380.400 C 290.360 380.400,290.981 380.099,291.293 379.600 C 291.626 379.066,292.226 378.800,293.096 378.800 C 294.133 378.800,294.400 378.636,294.400 378.000 C 294.400 377.333,294.667 377.200,296.000 377.200 C 297.333 377.200,297.600 377.067,297.600 376.400 C 297.600 375.752,297.867 375.600,299.000 375.600 C 299.770 375.600,300.400 375.422,300.400 375.205 C 300.400 374.988,300.985 374.534,301.700 374.195 C 303.801 373.199,304.793 372.559,305.637 371.652 C 306.074 371.184,306.874 370.800,307.416 370.800 C 308.024 370.800,308.400 370.571,308.400 370.200 C 308.400 369.867,308.756 369.600,309.200 369.600 C 309.733 369.600,310.000 369.333,310.000 368.800 C 310.000 368.221,310.267 368.000,310.967 368.000 C 312.348 368.000,313.200 367.602,313.200 366.957 C 313.200 366.651,313.560 366.400,314.000 366.400 C 314.533 366.400,314.800 366.133,314.800 365.600 C 314.800 364.976,315.067 364.800,316.013 364.800 C 316.748 364.800,317.320 364.552,317.467 364.169 C 317.600 363.823,318.135 363.377,318.655 363.179 C 319.175 362.982,319.600 362.545,319.600 362.210 C 319.600 361.868,319.949 361.600,320.397 361.600 C 320.835 361.600,321.418 361.240,321.693 360.800 C 321.968 360.360,322.526 360.000,322.934 360.000 C 323.341 360.000,323.769 359.640,323.884 359.200 C 324.000 358.757,324.430 358.400,324.847 358.400 C 325.261 358.400,325.600 358.151,325.600 357.847 C 325.600 357.542,325.960 357.199,326.400 357.084 C 326.840 356.969,327.200 356.588,327.200 356.237 C 327.200 355.887,327.478 355.600,327.817 355.600 C 328.157 355.600,328.920 355.150,329.513 354.600 C 330.107 354.050,330.736 353.600,330.913 353.600 C 331.090 353.600,332.211 352.632,333.404 351.448 C 334.597 350.264,335.849 349.190,336.187 349.060 C 336.524 348.931,336.800 348.549,336.800 348.213 C 336.800 347.876,337.070 347.600,337.400 347.600 C 337.730 347.600,338.000 347.326,338.000 346.990 C 338.000 346.655,338.450 346.209,339.000 346.000 C 339.550 345.791,340.000 345.366,340.000 345.057 C 340.000 344.747,340.360 344.399,340.800 344.284 C 341.240 344.169,341.600 343.788,341.600 343.437 C 341.600 343.087,341.870 342.800,342.200 342.800 C 342.530 342.800,342.800 342.551,342.800 342.247 C 342.800 341.942,343.160 341.599,343.600 341.484 C 344.040 341.369,344.400 340.988,344.400 340.637 C 344.400 340.287,344.674 340.000,345.010 340.000 C 345.345 340.000,345.791 339.550,346.000 339.000 C 346.209 338.450,346.655 338.000,346.990 338.000 C 347.326 338.000,347.600 337.730,347.600 337.400 C 347.600 337.070,347.876 336.800,348.213 336.800 C 348.549 336.800,348.931 336.524,349.060 336.187 C 349.190 335.849,350.264 334.597,351.448 333.404 C 352.632 332.211,353.600 331.090,353.600 330.913 C 353.600 330.736,354.050 330.107,354.600 329.513 C 355.150 328.920,355.600 328.178,355.600 327.864 C 355.600 327.550,355.960 327.199,356.400 327.084 C 356.840 326.969,357.200 326.588,357.200 326.237 C 357.200 325.887,357.470 325.600,357.800 325.600 C 358.130 325.600,358.400 325.261,358.400 324.847 C 358.400 324.430,358.757 324.000,359.200 323.884 C 359.640 323.769,360.000 323.341,360.000 322.934 C 360.000 322.526,360.360 321.968,360.800 321.693 C 361.240 321.418,361.600 320.835,361.600 320.397 C 361.600 319.949,361.868 319.600,362.210 319.600 C 362.545 319.600,362.982 319.175,363.179 318.655 C 363.377 318.135,363.823 317.600,364.169 317.467 C 364.552 317.320,364.800 316.748,364.800 316.013 C 364.800 315.067,364.976 314.800,365.600 314.800 C 366.133 314.800,366.400 314.533,366.400 314.000 C 366.400 313.560,366.651 313.200,366.957 313.200 C 367.602 313.200,368.000 312.348,368.000 310.967 C 368.000 310.267,368.221 310.000,368.800 310.000 C 369.333 310.000,369.600 309.733,369.600 309.200 C 369.600 308.756,369.867 308.400,370.200 308.400 C 370.574 308.400,370.800 308.022,370.800 307.397 C 370.800 306.826,371.231 306.020,371.800 305.525 C 372.350 305.047,372.800 304.446,372.800 304.189 C 372.800 303.932,373.160 303.307,373.600 302.800 C 374.040 302.293,374.400 301.629,374.400 301.326 C 374.400 301.023,374.670 300.671,375.000 300.545 C 375.370 300.403,375.600 299.795,375.600 298.957 C 375.600 297.867,375.757 297.600,376.400 297.600 C 377.063 297.600,377.200 297.333,377.200 296.047 C 377.200 294.830,377.373 294.448,378.000 294.284 C 378.564 294.137,378.800 293.738,378.800 292.934 C 378.800 292.226,379.104 291.603,379.600 291.293 C 380.099 290.981,380.400 290.360,380.400 289.643 C 380.400 288.830,380.634 288.432,381.200 288.284 C 381.806 288.125,382.000 287.738,382.000 286.684 C 382.000 285.646,382.196 285.242,382.773 285.091 C 383.337 284.944,383.581 284.471,383.673 283.344 C 383.753 282.372,383.985 281.837,384.300 281.900 C 384.575 281.955,384.815 281.865,384.833 281.700 C 385.023 279.962,385.347 278.981,385.850 278.613 C 386.182 278.370,386.552 277.368,386.673 276.386 C 386.795 275.404,387.156 274.390,387.476 274.134 C 387.797 273.878,388.153 273.068,388.267 272.334 C 388.381 271.600,388.711 270.866,389.000 270.701 C 389.288 270.537,389.649 269.501,389.800 268.400 C 389.951 267.299,390.327 266.257,390.634 266.085 C 390.940 265.913,391.311 264.879,391.456 263.786 C 391.602 262.694,391.964 261.656,392.260 261.480 C 392.624 261.265,392.800 260.323,392.800 258.594 C 392.800 256.438,392.928 255.960,393.600 255.600 C 394.260 255.247,394.400 254.762,394.400 252.833 C 394.400 250.830,394.515 250.463,395.200 250.284 C 395.910 250.099,396.000 249.738,396.000 247.099 C 396.000 244.632,396.137 244.000,396.800 243.400 C 397.490 242.776,397.600 242.168,397.600 238.985 C 397.600 235.630,397.673 235.274,398.400 235.084 C 399.144 234.889,399.200 234.538,399.200 230.037 C 399.200 227.079,399.355 225.200,399.600 225.200 C 399.862 225.200,400.000 216.533,400.000 200.000 C 400.000 183.467,399.862 174.800,399.600 174.800 C 399.357 174.800,399.200 173.001,399.200 170.203 C 399.200 166.040,399.125 165.560,398.400 165.107 C 397.696 164.667,397.600 164.174,397.600 160.992 C 397.600 157.835,397.498 157.303,396.800 156.800 C 396.117 156.307,396.000 155.765,396.000 153.074 C 396.000 150.262,395.915 149.903,395.200 149.716 C 394.519 149.538,394.400 149.170,394.400 147.250 C 394.400 145.426,394.246 144.897,393.600 144.493 C 392.948 144.085,392.800 143.560,392.800 141.646 C 392.800 140.144,392.602 139.134,392.251 138.843 C 391.950 138.592,391.608 137.546,391.492 136.518 C 391.376 135.490,391.016 134.454,390.691 134.217 C 390.366 133.980,389.969 132.831,389.809 131.664 C 389.648 130.498,389.287 129.455,389.006 129.347 C 388.724 129.239,388.381 128.442,388.242 127.575 C 388.092 126.637,387.771 126.000,387.446 126.000 C 387.085 126.000,386.837 125.323,386.708 123.986 C 386.594 122.801,386.252 121.772,385.875 121.486 C 385.524 121.219,385.178 120.550,385.108 120.000 C 384.942 118.708,384.444 117.926,383.972 118.217 C 383.768 118.344,383.600 117.829,383.600 117.073 C 383.600 115.739,382.797 114.536,382.263 115.070 C 382.118 115.215,382.000 114.583,382.000 113.667 C 382.000 112.267,381.872 112.000,381.200 112.000 C 380.533 112.000,380.400 111.733,380.400 110.400 C 380.400 109.067,380.267 108.800,379.600 108.800 C 378.948 108.800,378.800 108.533,378.800 107.363 C 378.800 106.262,378.613 105.876,378.000 105.716 C 377.403 105.560,377.200 105.170,377.200 104.180 C 377.200 103.205,376.988 102.787,376.400 102.600 C 375.844 102.423,375.600 101.995,375.600 101.193 C 375.600 100.559,375.327 99.887,374.992 99.700 C 374.658 99.513,374.304 98.939,374.205 98.425 C 374.106 97.911,373.777 97.200,373.473 96.845 C 373.170 96.490,372.810 95.885,372.673 95.500 C 372.537 95.115,372.165 94.800,371.848 94.800 C 371.486 94.800,371.169 94.203,371.000 93.200 C 370.834 92.216,370.512 91.600,370.165 91.600 C 369.854 91.600,369.600 91.261,369.600 90.847 C 369.600 90.430,369.243 90.000,368.800 89.884 C 368.321 89.759,368.000 89.338,368.000 88.837 C 368.000 88.377,367.640 87.640,367.200 87.200 C 366.760 86.760,366.400 86.130,366.400 85.800 C 366.400 85.467,366.044 85.200,365.600 85.200 C 364.972 85.200,364.800 84.933,364.800 83.963 C 364.800 83.062,364.583 82.668,364.000 82.516 C 363.560 82.401,363.200 82.052,363.200 81.741 C 363.200 81.430,362.923 81.069,362.585 80.939 C 362.247 80.809,361.716 80.095,361.406 79.351 C 361.095 78.608,360.652 78.000,360.420 78.000 C 360.189 78.000,360.000 77.623,360.000 77.163 C 360.000 76.662,359.679 76.241,359.200 76.116 C 358.760 76.001,358.400 75.652,358.400 75.341 C 358.400 75.030,358.148 74.678,357.839 74.560 C 357.531 74.441,357.188 73.997,357.077 73.572 C 356.966 73.148,356.588 72.800,356.237 72.800 C 355.887 72.800,355.600 72.592,355.600 72.338 C 355.600 72.084,355.106 71.229,354.501 70.438 C 353.897 69.647,353.452 68.852,353.511 68.670 C 353.571 68.489,353.435 68.455,353.209 68.594 C 352.983 68.734,352.623 68.387,352.409 67.824 C 352.195 67.261,351.745 66.800,351.410 66.800 C 351.074 66.800,350.800 66.606,350.800 66.369 C 350.800 65.812,348.352 63.369,347.926 63.500 C 347.747 63.555,347.600 63.240,347.600 62.800 C 347.600 62.267,347.333 62.000,346.800 62.000 C 346.267 62.000,346.000 61.733,346.000 61.200 C 346.000 60.667,345.733 60.400,345.200 60.400 C 344.667 60.400,344.400 60.133,344.400 59.600 C 344.400 59.067,344.133 58.800,343.600 58.800 C 343.083 58.800,342.800 58.533,342.800 58.047 C 342.800 57.618,342.438 57.199,341.960 57.074 C 341.463 56.944,341.234 56.668,341.400 56.400 C 341.564 56.134,341.348 55.859,340.877 55.736 C 340.435 55.621,339.984 55.183,339.874 54.763 C 339.765 54.343,339.400 54.000,339.064 54.000 C 338.729 54.000,338.340 53.640,338.200 53.200 C 338.060 52.760,337.793 52.400,337.606 52.400 C 337.418 52.400,336.516 51.680,335.600 50.800 C 334.684 49.920,333.769 49.200,333.567 49.200 C 333.365 49.200,333.200 48.930,333.200 48.600 C 333.200 48.270,332.942 48.000,332.627 48.000 C 332.312 48.000,331.935 47.626,331.790 47.170 C 331.646 46.713,331.428 46.438,331.308 46.559 C 331.188 46.679,330.560 46.333,329.914 45.789 C 329.267 45.245,328.392 44.800,327.969 44.800 C 327.467 44.800,327.200 44.523,327.200 44.000 C 327.200 43.467,326.933 43.200,326.400 43.200 C 325.867 43.200,325.600 42.933,325.600 42.400 C 325.600 41.883,325.333 41.600,324.847 41.600 C 324.418 41.600,323.999 41.238,323.874 40.760 C 323.753 40.298,323.467 40.035,323.239 40.176 C 323.010 40.317,322.426 39.975,321.939 39.416 C 321.453 38.857,320.841 38.400,320.578 38.400 C 320.316 38.400,319.313 37.680,318.351 36.800 C 317.388 35.920,316.195 35.200,315.700 35.200 C 315.067 35.200,314.800 34.963,314.800 34.400 C 314.800 33.956,314.533 33.600,314.200 33.600 C 313.870 33.600,313.240 33.240,312.800 32.800 C 312.360 32.360,311.646 32.000,311.214 32.000 C 310.782 32.000,310.235 31.640,310.000 31.200 C 309.765 30.760,309.308 30.400,308.986 30.400 C 308.664 30.400,308.400 30.130,308.400 29.800 C 308.400 29.385,307.983 29.200,307.047 29.200 C 306.030 29.200,305.641 29.001,305.484 28.400 C 305.360 27.927,304.938 27.600,304.452 27.600 C 303.999 27.600,303.435 27.240,303.200 26.800 C 302.965 26.360,302.371 26.000,301.882 26.000 C 301.393 26.000,300.768 25.640,300.493 25.200 C 300.181 24.701,299.560 24.400,298.843 24.400 C 298.030 24.400,297.632 24.166,297.484 23.600 C 297.325 22.994,296.938 22.800,295.884 22.800 C 294.830 22.800,294.443 22.606,294.284 22.000 C 294.133 21.422,293.738 21.200,292.864 21.200 C 292.005 21.200,291.580 20.968,291.400 20.400 C 291.213 19.812,290.795 19.600,289.820 19.600 C 288.830 19.600,288.440 19.397,288.284 18.800 C 288.124 18.187,287.738 18.000,286.637 18.000 C 285.631 18.000,285.200 17.821,285.200 17.405 C 285.200 17.017,284.629 16.718,283.566 16.548 C 282.667 16.404,281.842 16.053,281.732 15.768 C 281.623 15.482,280.963 15.125,280.267 14.974 C 279.570 14.823,278.879 14.510,278.732 14.278 C 278.454 13.840,278.092 13.721,275.902 13.341 C 275.186 13.217,274.410 12.877,274.177 12.586 C 273.944 12.295,273.085 12.000,272.269 11.929 C 271.452 11.858,270.802 11.640,270.826 11.445 C 270.899 10.836,269.863 10.413,268.283 10.406 C 267.326 10.402,266.450 10.105,265.908 9.600 C 265.350 9.080,264.496 8.800,263.469 8.800 C 262.425 8.800,261.714 8.562,261.376 8.100 C 260.816 7.334,260.775 7.322,258.275 7.250 C 257.157 7.218,256.249 6.919,255.692 6.400 C 255.048 5.800,254.281 5.600,252.617 5.600 C 250.959 5.600,250.400 5.455,250.400 5.027 C 250.400 4.257,249.541 4.044,246.086 3.954 C 244.483 3.912,243.060 3.698,242.924 3.477 C 242.777 3.239,242.904 3.194,243.238 3.368 C 243.547 3.528,243.451 3.376,243.024 3.030 C 242.460 2.573,241.360 2.400,239.012 2.400 C 236.273 2.400,235.673 2.278,235.093 1.600 C 234.481 0.886,233.913 0.800,229.804 0.800 C 227.001 0.800,225.200 0.643,225.200 0.400 C 225.200 0.138,216.533 0.000,200.000 0.000 C 183.467 0.000,174.800 0.138,174.800 0.400 M201.004 51.207 C 201.142 51.430,201.423 51.509,201.628 51.383 C 201.832 51.256,202.000 51.332,202.000 51.552 C 202.000 51.771,202.315 51.962,202.700 51.977 C 203.085 51.991,207.360 52.108,212.200 52.236 C 219.654 52.433,221.077 52.568,221.504 53.117 C 221.890 53.613,222.924 53.802,225.904 53.925 C 228.749 54.041,229.997 54.259,230.529 54.731 C 231.003 55.150,232.231 55.432,234.029 55.534 C 235.553 55.620,236.800 55.821,236.800 55.981 C 236.800 56.518,238.824 57.200,240.419 57.200 C 241.288 57.200,242.000 57.391,242.000 57.624 C 242.000 57.857,242.180 57.936,242.400 57.800 C 242.620 57.664,242.800 57.743,242.800 57.976 C 242.800 58.215,243.631 58.400,244.704 58.400 C 246.174 58.400,246.721 58.582,247.107 59.200 C 247.486 59.807,248.040 60.000,249.403 60.000 C 250.672 60.000,251.200 60.164,251.200 60.557 C 251.200 61.272,252.077 61.600,253.986 61.600 C 255.170 61.600,255.553 61.777,255.716 62.400 C 255.871 62.992,256.262 63.200,257.218 63.200 C 257.965 63.200,258.718 63.482,259.001 63.868 C 259.269 64.236,259.819 64.585,260.221 64.644 C 261.903 64.891,262.819 65.245,262.619 65.570 C 262.372 65.969,263.313 66.400,264.433 66.400 C 264.855 66.400,265.560 66.760,266.000 67.200 C 266.440 67.640,267.248 68.000,267.797 68.000 C 268.360 68.000,269.010 68.348,269.293 68.800 C 269.568 69.240,270.134 69.600,270.552 69.600 C 270.970 69.600,271.517 69.880,271.767 70.222 C 272.158 70.758,272.862 71.043,274.100 71.169 C 274.265 71.186,274.400 71.468,274.400 71.795 C 274.400 72.180,274.965 72.481,276.000 72.646 C 276.981 72.803,277.600 73.118,277.600 73.461 C 277.600 73.768,278.050 74.191,278.600 74.400 C 279.150 74.609,279.600 74.965,279.600 75.190 C 279.600 75.416,280.128 75.600,280.773 75.600 C 281.595 75.600,282.022 75.840,282.200 76.400 C 282.340 76.840,282.684 77.200,282.965 77.200 C 283.246 77.200,283.802 77.560,284.200 78.000 C 284.598 78.440,285.346 78.800,285.862 78.800 C 286.438 78.800,286.800 79.037,286.800 79.413 C 286.800 79.749,287.092 80.137,287.448 80.274 C 287.804 80.410,288.702 81.129,289.444 81.870 C 290.185 82.612,291.334 83.327,291.996 83.459 C 292.821 83.624,293.200 83.936,293.200 84.450 C 293.200 84.933,293.484 85.200,294.000 85.200 C 294.440 85.200,294.800 85.409,294.800 85.664 C 294.800 86.170,297.141 88.400,297.672 88.400 C 297.852 88.400,298.000 88.670,298.000 89.000 C 298.000 89.330,298.268 89.600,298.597 89.600 C 298.925 89.600,299.418 89.960,299.693 90.400 C 299.968 90.840,300.419 91.200,300.696 91.200 C 300.973 91.200,301.200 91.470,301.200 91.800 C 301.200 92.130,301.438 92.400,301.729 92.400 C 302.020 92.400,302.857 93.114,303.589 93.987 C 304.321 94.859,305.073 95.479,305.260 95.363 C 305.447 95.247,305.600 95.328,305.600 95.542 C 305.600 95.992,306.758 97.403,308.900 99.563 C 309.725 100.395,310.400 101.283,310.400 101.538 C 310.400 101.959,310.933 102.168,311.700 102.047 C 311.865 102.021,312.000 102.298,312.000 102.662 C 312.000 103.027,312.720 104.031,313.600 104.893 C 314.480 105.756,315.200 106.628,315.200 106.831 C 315.200 107.034,315.456 107.200,315.768 107.200 C 316.081 107.200,316.455 107.739,316.599 108.398 C 316.744 109.056,317.087 109.731,317.361 109.898 C 317.636 110.064,317.976 110.515,318.118 110.900 C 318.259 111.285,318.651 111.600,318.987 111.600 C 319.324 111.600,319.600 111.887,319.600 112.237 C 319.600 112.588,319.960 112.969,320.400 113.084 C 320.962 113.231,321.200 113.630,321.200 114.424 C 321.200 115.058,321.519 115.784,321.926 116.077 C 322.326 116.365,322.770 116.915,322.914 117.300 C 323.057 117.685,323.451 118.000,323.787 118.000 C 324.206 118.000,324.400 118.393,324.400 119.237 C 324.400 120.138,324.617 120.532,325.200 120.684 C 325.660 120.804,326.000 121.230,326.000 121.684 C 326.000 122.138,326.340 122.564,326.800 122.684 C 327.401 122.841,327.600 123.230,327.600 124.247 C 327.600 125.333,327.758 125.600,328.400 125.600 C 329.018 125.600,329.200 125.867,329.200 126.771 C 329.200 127.416,329.435 128.181,329.722 128.471 C 330.234 128.990,330.897 130.292,330.965 130.915 C 330.984 131.088,331.197 131.358,331.438 131.515 C 331.680 131.672,332.000 132.302,332.150 132.916 C 332.318 133.601,332.597 133.925,332.874 133.755 C 333.138 133.591,333.213 133.655,333.055 133.911 C 332.908 134.149,332.970 134.458,333.193 134.596 C 333.417 134.734,333.600 135.197,333.600 135.624 C 333.600 136.051,333.941 136.741,334.358 137.158 C 334.774 137.574,335.240 138.654,335.393 139.558 C 335.565 140.574,335.885 141.200,336.235 141.200 C 336.617 141.200,336.800 141.666,336.800 142.637 C 336.800 143.738,336.987 144.124,337.600 144.284 C 338.247 144.453,338.400 144.830,338.400 146.251 C 338.400 147.513,338.625 148.201,339.200 148.693 C 339.739 149.154,340.000 149.873,340.000 150.893 C 340.000 151.913,340.261 152.632,340.800 153.093 C 341.383 153.592,341.600 154.273,341.600 155.601 C 341.600 156.965,341.801 157.569,342.400 158.000 C 342.981 158.419,343.200 159.035,343.200 160.256 C 343.200 162.318,343.513 163.200,344.243 163.200 C 344.671 163.200,344.800 163.912,344.800 166.269 C 344.800 168.336,344.983 169.543,345.362 169.969 C 345.720 170.371,345.981 171.861,346.084 174.083 C 346.195 176.494,346.438 177.786,346.874 178.283 C 347.382 178.862,347.553 180.579,347.763 187.200 C 348.070 196.869,348.152 197.788,348.808 199.014 C 349.102 199.564,349.176 200.244,348.988 200.673 C 348.812 201.073,348.638 201.490,348.600 201.600 C 348.562 201.710,348.427 202.070,348.299 202.400 C 348.171 202.730,348.066 203.270,348.065 203.600 C 348.044 210.459,347.393 221.068,346.974 221.399 C 346.376 221.870,346.036 224.021,346.015 227.471 C 346.005 229.118,345.800 230.143,345.400 230.543 C 344.982 230.961,344.800 231.985,344.800 233.925 C 344.800 236.370,344.703 236.732,344.000 236.916 C 343.325 237.092,343.200 237.462,343.200 239.274 C 343.200 240.927,343.016 241.580,342.400 242.107 C 341.841 242.586,341.600 243.287,341.600 244.433 C 341.600 245.468,341.305 246.449,340.800 247.091 C 340.313 247.709,340.000 248.714,340.000 249.654 C 340.000 250.709,339.823 251.200,339.443 251.200 C 338.726 251.200,338.400 252.077,338.400 254.006 C 338.400 255.134,338.209 255.607,337.685 255.773 C 337.226 255.919,336.935 256.460,336.872 257.288 C 336.818 257.997,336.420 258.953,335.987 259.414 C 335.554 259.875,335.200 260.572,335.200 260.963 C 335.200 261.354,334.840 262.131,334.400 262.691 C 333.960 263.250,333.600 263.984,333.600 264.322 C 333.600 264.660,333.324 265.242,332.988 265.614 C 332.651 265.986,332.295 266.707,332.197 267.216 C 332.099 267.725,331.880 268.244,331.709 268.371 C 331.197 268.750,330.400 270.348,330.400 270.995 C 330.400 271.328,330.130 271.600,329.800 271.600 C 329.383 271.600,329.200 272.019,329.200 272.973 C 329.200 273.995,328.995 274.411,328.400 274.600 C 327.805 274.789,327.600 275.205,327.600 276.227 C 327.600 277.333,327.445 277.600,326.800 277.600 C 326.267 277.600,326.000 277.867,326.000 278.400 C 326.000 278.842,325.733 279.200,325.405 279.200 C 325.021 279.200,324.720 279.762,324.556 280.784 C 324.417 281.655,324.178 282.330,324.026 282.284 C 323.389 282.091,321.200 284.791,321.200 285.769 C 321.200 286.446,320.981 286.800,320.563 286.800 C 320.212 286.800,319.831 287.160,319.716 287.600 C 319.601 288.040,319.287 288.400,319.018 288.400 C 318.749 288.400,318.323 288.850,318.073 289.400 C 317.822 289.950,317.441 290.400,317.227 290.400 C 317.012 290.400,316.718 291.030,316.574 291.800 C 316.414 292.652,316.079 293.200,315.718 293.200 C 315.392 293.200,315.031 293.560,314.916 294.000 C 314.801 294.440,314.539 294.800,314.334 294.800 C 313.821 294.800,312.028 296.885,312.013 297.500 C 312.006 297.775,311.640 298.000,311.200 298.000 C 310.667 298.000,310.400 298.267,310.400 298.800 C 310.400 299.265,310.133 299.600,309.763 299.600 C 309.412 299.600,309.031 299.960,308.916 300.400 C 308.801 300.840,308.458 301.200,308.153 301.200 C 307.849 301.200,307.600 301.386,307.600 301.614 C 307.600 302.154,302.154 307.600,301.614 307.600 C 301.386 307.600,301.200 307.772,301.200 307.982 C 301.200 308.580,299.229 310.400,298.582 310.400 C 298.262 310.400,298.000 310.760,298.000 311.200 C 298.000 311.640,297.775 312.006,297.500 312.013 C 296.856 312.029,294.800 313.832,294.800 314.381 C 294.800 314.611,294.513 314.800,294.163 314.800 C 293.812 314.800,293.435 315.143,293.326 315.562 C 293.199 316.048,292.632 316.418,291.763 316.581 C 291.013 316.721,290.400 317.012,290.400 317.227 C 290.400 317.441,289.950 317.822,289.400 318.073 C 288.850 318.323,288.400 318.770,288.400 319.064 C 288.400 319.359,288.113 319.600,287.763 319.600 C 287.412 319.600,287.031 319.960,286.916 320.400 C 286.778 320.927,286.370 321.200,285.723 321.200 C 284.747 321.200,282.100 323.423,282.300 324.074 C 282.355 324.253,281.950 324.400,281.400 324.400 C 280.850 324.400,280.040 324.760,279.600 325.200 C 279.160 325.640,278.530 326.000,278.200 326.000 C 277.867 326.000,277.600 326.356,277.600 326.800 C 277.600 327.445,277.333 327.600,276.227 327.600 C 275.205 327.600,274.789 327.805,274.600 328.400 C 274.411 328.995,273.995 329.200,272.973 329.200 C 272.019 329.200,271.600 329.383,271.600 329.800 C 271.600 330.130,271.328 330.400,270.995 330.400 C 270.337 330.400,268.746 331.201,268.360 331.727 C 268.228 331.906,267.823 332.097,267.460 332.150 C 267.097 332.203,266.517 332.596,266.170 333.023 C 265.824 333.451,265.670 333.530,265.829 333.200 C 266.063 332.713,266.016 332.694,265.579 333.100 C 265.282 333.375,264.740 333.600,264.374 333.600 C 264.008 333.600,263.250 333.960,262.691 334.400 C 262.131 334.840,261.354 335.200,260.963 335.200 C 260.572 335.200,259.875 335.554,259.414 335.987 C 258.953 336.420,257.997 336.818,257.288 336.872 C 256.460 336.935,255.919 337.226,255.773 337.685 C 255.607 338.209,255.134 338.400,254.006 338.400 C 252.077 338.400,251.200 338.726,251.200 339.443 C 251.200 339.823,250.709 340.000,249.654 340.000 C 248.714 340.000,247.709 340.313,247.091 340.800 C 246.449 341.305,245.468 341.600,244.433 341.600 C 243.287 341.600,242.586 341.841,242.107 342.400 C 241.580 343.016,240.927 343.200,239.274 343.200 C 237.462 343.200,237.092 343.325,236.916 344.000 C 236.732 344.703,236.370 344.800,233.925 344.800 C 231.985 344.800,230.961 344.982,230.543 345.400 C 230.143 345.800,229.118 346.005,227.471 346.015 C 224.021 346.036,221.870 346.376,221.399 346.974 C 221.068 347.393,210.459 348.044,203.600 348.065 C 203.270 348.066,202.730 348.171,202.400 348.299 C 202.070 348.427,201.710 348.562,201.600 348.600 C 201.490 348.638,201.073 348.812,200.673 348.988 C 200.244 349.176,199.564 349.102,199.014 348.808 C 197.788 348.152,196.869 348.070,187.200 347.763 C 180.579 347.553,178.862 347.382,178.283 346.874 C 177.786 346.438,176.494 346.195,174.083 346.084 C 171.861 345.981,170.371 345.720,169.969 345.362 C 169.543 344.983,168.336 344.800,166.269 344.800 C 163.912 344.800,163.200 344.671,163.200 344.243 C 163.200 343.523,162.322 343.200,160.367 343.200 C 159.333 343.200,158.528 342.928,158.000 342.400 C 157.445 341.845,156.667 341.600,155.462 341.600 C 154.232 341.600,153.512 341.366,153.000 340.800 C 152.530 340.280,151.768 340.000,150.827 340.000 C 149.873 340.000,149.144 339.727,148.693 339.200 C 148.201 338.625,147.513 338.400,146.251 338.400 C 144.850 338.400,144.452 338.243,144.291 337.627 C 144.144 337.063,143.671 336.819,142.544 336.727 C 141.638 336.652,141.037 336.407,141.089 336.133 C 141.139 335.873,140.457 335.545,139.547 335.391 C 138.649 335.239,137.574 334.774,137.158 334.358 C 136.741 333.941,136.051 333.600,135.624 333.600 C 135.197 333.600,134.734 333.417,134.596 333.193 C 134.458 332.970,134.149 332.908,133.911 333.055 C 133.650 333.216,133.592 333.137,133.765 332.857 C 133.952 332.554,133.622 332.304,132.827 332.145 C 132.152 332.010,131.600 331.732,131.600 331.526 C 131.600 331.321,131.420 331.264,131.200 331.400 C 130.980 331.536,130.800 331.460,130.800 331.231 C 130.800 331.002,130.363 330.706,129.829 330.572 C 129.295 330.437,128.761 330.074,128.641 329.764 C 128.512 329.426,127.859 329.200,127.013 329.200 C 125.867 329.200,125.600 329.049,125.600 328.400 C 125.600 327.758,125.333 327.600,124.247 327.600 C 123.230 327.600,122.841 327.401,122.684 326.800 C 122.564 326.340,122.138 326.000,121.684 326.000 C 121.226 326.000,120.804 325.659,120.681 325.189 C 120.564 324.742,120.318 324.404,120.134 324.436 C 119.019 324.632,118.000 324.323,118.000 323.787 C 118.000 323.451,117.685 323.057,117.300 322.914 C 116.915 322.770,116.365 322.326,116.077 321.926 C 115.784 321.519,115.058 321.200,114.424 321.200 C 113.630 321.200,113.231 320.962,113.084 320.400 C 112.969 319.960,112.588 319.600,112.237 319.600 C 111.887 319.600,111.600 319.324,111.600 318.987 C 111.600 318.651,111.285 318.259,110.900 318.118 C 110.515 317.976,110.064 317.636,109.898 317.361 C 109.731 317.087,109.056 316.744,108.398 316.599 C 107.739 316.455,107.200 316.081,107.200 315.768 C 107.200 315.456,107.034 315.200,106.831 315.200 C 106.628 315.200,105.756 314.480,104.893 313.600 C 104.031 312.720,103.027 312.000,102.662 312.000 C 102.298 312.000,102.021 311.865,102.047 311.700 C 102.168 310.933,101.959 310.400,101.538 310.400 C 101.283 310.400,100.395 309.725,99.563 308.900 C 97.403 306.758,95.992 305.600,95.542 305.600 C 95.328 305.600,95.247 305.448,95.361 305.263 C 95.476 305.077,94.860 304.312,93.994 303.563 C 93.127 302.813,92.414 301.975,92.409 301.700 C 92.404 301.425,92.130 301.200,91.800 301.200 C 91.470 301.200,91.200 300.973,91.200 300.696 C 91.200 300.419,90.840 299.968,90.400 299.693 C 89.960 299.418,89.600 298.925,89.600 298.597 C 89.600 298.268,89.330 298.000,89.000 298.000 C 88.670 298.000,88.400 297.852,88.400 297.672 C 88.400 297.141,86.170 294.800,85.664 294.800 C 85.409 294.800,85.200 294.440,85.200 294.000 C 85.200 293.484,84.933 293.200,84.450 293.200 C 83.936 293.200,83.624 292.821,83.459 291.996 C 83.327 291.334,82.612 290.185,81.870 289.444 C 81.129 288.702,80.410 287.804,80.274 287.448 C 80.137 287.092,79.749 286.800,79.413 286.800 C 79.025 286.800,78.800 286.431,78.800 285.796 C 78.800 285.244,78.440 284.484,78.000 284.107 C 77.560 283.730,77.200 283.192,77.200 282.911 C 77.200 282.447,76.690 282.228,75.900 282.353 C 75.735 282.379,75.600 281.779,75.600 281.020 C 75.600 280.261,75.361 279.496,75.070 279.320 C 74.778 279.144,74.424 278.685,74.282 278.300 C 74.141 277.915,73.772 277.600,73.464 277.600 C 73.118 277.600,72.804 276.985,72.646 276.000 C 72.481 274.965,72.180 274.400,71.795 274.400 C 71.468 274.400,71.186 274.265,71.169 274.100 C 71.043 272.862,70.758 272.158,70.222 271.767 C 69.880 271.517,69.600 270.970,69.600 270.552 C 69.600 270.134,69.240 269.568,68.800 269.293 C 68.348 269.010,68.000 268.360,68.000 267.797 C 68.000 267.248,67.640 266.440,67.200 266.000 C 66.760 265.560,66.400 264.855,66.400 264.433 C 66.400 263.313,65.969 262.372,65.570 262.619 C 65.245 262.819,64.891 261.903,64.644 260.221 C 64.585 259.819,64.236 259.269,63.868 259.001 C 63.482 258.718,63.200 257.965,63.200 257.218 C 63.200 256.262,62.992 255.871,62.400 255.716 C 61.777 255.553,61.600 255.170,61.600 253.986 C 61.600 252.077,61.272 251.200,60.557 251.200 C 60.164 251.200,60.000 250.672,60.000 249.403 C 60.000 248.040,59.807 247.486,59.200 247.107 C 58.582 246.721,58.400 246.174,58.400 244.704 C 58.400 243.631,58.215 242.800,57.976 242.800 C 57.743 242.800,57.664 242.620,57.800 242.400 C 57.936 242.180,57.857 242.000,57.624 242.000 C 57.391 242.000,57.200 241.288,57.200 240.419 C 57.200 238.824,56.518 236.800,55.981 236.800 C 55.821 236.800,55.620 235.553,55.534 234.029 C 55.432 232.231,55.150 231.003,54.731 230.529 C 54.259 229.997,54.041 228.749,53.925 225.904 C 53.802 222.924,53.613 221.890,53.117 221.504 C 52.568 221.077,52.433 219.654,52.236 212.200 C 52.108 207.360,51.991 203.085,51.977 202.700 C 51.962 202.315,51.781 202.000,51.575 202.000 C 51.369 202.000,51.229 201.865,51.264 201.700 C 51.298 201.535,51.189 201.085,51.021 200.700 C 50.852 200.315,50.852 199.685,51.021 199.300 C 51.189 198.915,51.298 198.465,51.264 198.300 C 51.229 198.135,51.351 198.000,51.535 198.000 C 51.720 198.000,51.902 197.415,51.940 196.700 C 51.978 195.985,52.088 194.590,52.185 193.600 C 52.281 192.610,52.369 188.785,52.380 185.100 C 52.395 180.231,52.527 178.427,52.865 178.500 C 53.561 178.650,53.916 176.974,53.960 173.320 C 53.992 170.667,54.131 169.966,54.685 169.656 C 55.207 169.364,55.409 168.576,55.535 166.344 C 55.646 164.378,55.895 163.273,56.291 162.983 C 56.616 162.746,56.976 161.662,57.091 160.576 C 57.207 159.489,57.594 158.266,57.951 157.858 C 58.308 157.450,58.555 157.045,58.500 156.958 C 58.041 156.233,58.514 153.494,59.200 152.907 C 59.722 152.461,60.000 151.727,60.000 150.800 C 60.000 149.873,60.278 149.139,60.800 148.693 C 61.380 148.196,61.600 147.513,61.600 146.204 C 61.600 144.929,61.763 144.400,62.157 144.400 C 62.802 144.400,63.200 143.548,63.200 142.167 C 63.200 141.580,63.433 141.200,63.792 141.200 C 64.118 141.200,64.489 140.705,64.617 140.100 C 64.745 139.495,64.934 138.588,65.037 138.084 C 65.139 137.580,65.379 137.264,65.570 137.381 C 65.951 137.617,66.395 136.710,66.409 135.667 C 66.414 135.300,66.770 134.550,67.200 134.000 C 67.630 133.450,67.986 132.750,67.991 132.444 C 67.996 132.138,68.315 131.630,68.700 131.314 C 69.116 130.974,69.156 130.862,68.800 131.039 C 68.355 131.260,68.381 131.131,68.900 130.537 C 69.285 130.097,69.600 129.436,69.600 129.069 C 69.600 128.701,69.818 128.445,70.085 128.500 C 70.351 128.555,70.743 127.925,70.955 127.100 C 71.167 126.275,71.577 125.600,71.866 125.600 C 72.169 125.600,72.499 124.920,72.649 123.987 C 72.790 123.099,73.001 122.468,73.116 122.583 C 73.431 122.898,74.423 121.961,74.184 121.575 C 74.071 121.391,74.343 121.045,74.789 120.806 C 75.317 120.523,75.600 119.968,75.600 119.213 C 75.600 118.405,75.842 117.977,76.400 117.800 C 76.840 117.660,77.200 117.378,77.200 117.173 C 77.200 116.968,77.560 116.440,78.000 116.000 C 78.440 115.560,78.800 114.771,78.800 114.247 C 78.800 113.630,79.082 113.219,79.600 113.084 C 80.040 112.969,80.400 112.609,80.400 112.284 C 80.400 111.959,80.760 111.599,81.200 111.484 C 81.679 111.359,82.000 110.938,82.000 110.437 C 82.000 109.977,82.210 109.645,82.467 109.700 C 82.724 109.755,83.105 109.230,83.315 108.534 C 83.525 107.838,84.035 107.180,84.448 107.072 C 84.862 106.963,85.200 106.600,85.200 106.264 C 85.200 105.929,85.560 105.540,86.000 105.400 C 86.440 105.260,86.800 104.972,86.800 104.760 C 86.800 104.547,87.430 103.743,88.200 102.973 C 88.970 102.203,89.600 101.466,89.600 101.334 C 89.600 101.202,90.275 100.456,91.100 99.675 C 91.925 98.894,92.550 98.092,92.489 97.893 C 92.427 97.694,92.742 97.436,93.189 97.319 C 93.635 97.202,94.000 96.962,94.000 96.784 C 94.000 96.364,96.364 94.000,96.784 94.000 C 96.962 94.000,97.202 93.635,97.319 93.189 C 97.436 92.742,97.694 92.427,97.893 92.489 C 98.092 92.550,98.894 91.925,99.675 91.100 C 100.456 90.275,101.202 89.600,101.334 89.600 C 101.466 89.600,102.203 88.970,102.973 88.200 C 103.743 87.430,104.547 86.800,104.760 86.800 C 104.972 86.800,105.260 86.440,105.400 86.000 C 105.540 85.560,105.929 85.200,106.264 85.200 C 106.600 85.200,106.963 84.862,107.072 84.448 C 107.180 84.035,107.838 83.525,108.534 83.315 C 109.230 83.105,109.755 82.724,109.700 82.467 C 109.645 82.210,109.977 82.000,110.437 82.000 C 110.938 82.000,111.359 81.679,111.484 81.200 C 111.599 80.760,111.959 80.400,112.284 80.400 C 112.609 80.400,112.969 80.040,113.084 79.600 C 113.219 79.082,113.630 78.800,114.247 78.800 C 114.771 78.800,115.560 78.440,116.000 78.000 C 116.440 77.560,116.968 77.200,117.173 77.200 C 117.378 77.200,117.660 76.840,117.800 76.400 C 117.977 75.842,118.405 75.600,119.213 75.600 C 119.968 75.600,120.523 75.317,120.806 74.789 C 121.045 74.343,121.391 74.071,121.575 74.184 C 121.961 74.423,122.898 73.431,122.583 73.116 C 122.468 73.001,123.099 72.790,123.987 72.649 C 124.920 72.499,125.600 72.169,125.600 71.866 C 125.600 71.577,126.275 71.167,127.100 70.955 C 127.925 70.743,128.555 70.351,128.500 70.085 C 128.445 69.818,128.701 69.600,129.069 69.600 C 129.436 69.600,130.097 69.285,130.537 68.900 C 131.131 68.381,131.260 68.355,131.039 68.800 C 130.862 69.156,130.974 69.116,131.314 68.700 C 131.630 68.315,132.138 67.996,132.444 67.991 C 132.750 67.986,133.450 67.630,134.000 67.200 C 134.550 66.770,135.300 66.414,135.667 66.409 C 136.710 66.395,137.617 65.951,137.381 65.570 C 137.264 65.379,137.625 65.128,138.184 65.012 C 138.743 64.895,139.650 64.707,140.200 64.592 C 140.750 64.478,141.200 64.118,141.200 63.792 C 141.200 63.433,141.580 63.200,142.167 63.200 C 143.548 63.200,144.400 62.802,144.400 62.157 C 144.400 61.763,144.929 61.600,146.204 61.600 C 147.513 61.600,148.196 61.380,148.693 60.800 C 149.139 60.278,149.873 60.000,150.800 60.000 C 151.727 60.000,152.461 59.722,152.907 59.200 C 153.381 58.647,154.087 58.400,155.196 58.400 C 157.373 58.400,157.322 58.411,158.000 57.822 C 158.330 57.536,159.489 57.207,160.576 57.091 C 161.662 56.976,162.746 56.616,162.983 56.291 C 163.273 55.895,164.378 55.646,166.344 55.535 C 168.576 55.409,169.364 55.207,169.656 54.685 C 169.966 54.131,170.667 53.992,173.320 53.960 C 176.974 53.916,178.650 53.561,178.500 52.865 C 178.427 52.527,180.231 52.395,185.100 52.380 C 188.785 52.369,192.610 52.281,193.600 52.185 C 194.590 52.088,195.985 51.978,196.700 51.940 C 197.415 51.902,198.000 51.709,198.000 51.512 C 198.000 51.314,198.168 51.256,198.372 51.383 C 198.577 51.509,198.858 51.430,198.996 51.207 C 199.134 50.983,199.586 50.800,200.000 50.800 C 200.414 50.800,200.866 50.983,201.004 51.207 M271.700 124.665 C 271.425 124.776,271.200 125.122,271.200 125.433 C 271.200 125.812,270.745 126.000,269.827 126.000 C 268.805 126.000,268.389 126.205,268.200 126.800 C 268.025 127.350,267.595 127.600,266.822 127.600 C 265.691 127.600,264.581 128.447,265.070 128.937 C 265.215 129.082,264.682 129.200,263.887 129.200 C 263.047 129.200,262.305 129.440,262.119 129.773 C 261.943 130.088,261.280 130.415,260.647 130.500 C 260.014 130.585,259.294 130.929,259.048 131.265 C 258.802 131.600,257.925 132.001,257.100 132.156 C 256.183 132.327,255.600 132.662,255.600 133.018 C 255.600 133.359,255.185 133.621,254.600 133.650 C 252.751 133.742,252.600 133.798,252.600 134.384 C 252.600 134.726,252.037 135.082,251.237 135.246 C 250.487 135.399,249.713 135.812,249.517 136.162 C 249.318 136.518,248.645 136.800,247.994 136.800 C 247.238 136.800,246.678 137.081,246.400 137.600 C 246.098 138.164,245.562 138.400,244.586 138.400 C 243.467 138.400,243.200 138.554,243.200 139.200 C 243.200 139.822,242.933 140.000,242.003 140.000 C 241.240 140.000,240.626 140.290,240.307 140.800 C 239.977 141.329,239.374 141.600,238.531 141.600 C 237.605 141.600,237.184 141.820,237.000 142.400 C 236.812 142.991,236.395 143.200,235.400 143.200 C 234.405 143.200,233.988 143.409,233.800 144.000 C 233.632 144.530,233.195 144.800,232.505 144.800 C 231.932 144.800,231.169 145.066,230.811 145.390 C 230.452 145.715,229.737 146.045,229.223 146.124 C 228.708 146.202,228.075 146.556,227.817 146.910 C 227.424 147.447,226.460 147.774,224.700 147.967 C 224.535 147.985,224.400 148.247,224.400 148.549 C 224.400 148.880,223.765 149.199,222.800 149.354 C 221.765 149.519,221.200 149.820,221.200 150.205 C 221.200 150.560,220.796 150.820,220.200 150.850 C 218.348 150.943,218.200 150.998,218.200 151.600 C 218.200 151.984,217.733 152.245,216.901 152.325 C 216.117 152.401,215.437 152.758,215.186 153.225 C 214.899 153.763,214.347 154.000,213.386 154.000 C 212.267 154.000,212.000 154.154,212.000 154.800 C 212.000 155.467,211.733 155.600,210.400 155.600 C 209.067 155.600,208.800 155.733,208.800 156.400 C 208.800 157.022,208.533 157.200,207.603 157.200 C 206.840 157.200,206.226 157.490,205.907 158.000 C 205.577 158.529,204.974 158.800,204.131 158.800 C 203.205 158.800,202.784 159.020,202.600 159.600 C 202.425 160.150,201.995 160.400,201.222 160.400 C 200.091 160.400,198.981 161.247,199.470 161.737 C 199.615 161.882,199.133 162.000,198.398 162.000 C 197.664 162.000,196.769 162.266,196.411 162.590 C 196.052 162.915,195.337 163.245,194.823 163.324 C 194.308 163.402,193.687 163.738,193.443 164.071 C 193.200 164.403,192.325 164.801,191.500 164.956 C 190.661 165.113,190.000 165.470,190.000 165.767 C 190.000 166.078,189.330 166.405,188.381 166.557 C 187.469 166.703,186.869 166.988,187.007 167.211 C 187.284 167.660,186.731 167.911,185.000 168.121 C 184.300 168.206,183.800 168.503,183.800 168.834 C 183.800 169.180,183.296 169.449,182.501 169.525 C 181.717 169.601,181.037 169.958,180.786 170.425 C 180.499 170.963,179.947 171.200,178.986 171.200 C 177.867 171.200,177.600 171.354,177.600 172.000 C 177.600 172.611,177.333 172.800,176.472 172.800 C 175.768 172.800,175.018 173.175,174.475 173.800 C 173.997 174.350,173.424 174.800,173.203 174.800 C 172.981 174.800,172.800 175.430,172.800 176.200 C 172.800 177.333,172.648 177.600,172.000 177.600 C 171.354 177.600,171.200 177.867,171.200 178.986 C 171.200 179.947,170.963 180.499,170.425 180.786 C 169.958 181.037,169.601 181.717,169.525 182.501 C 169.449 183.296,169.180 183.800,168.834 183.800 C 168.503 183.800,168.206 184.300,168.121 185.000 C 167.911 186.731,167.660 187.284,167.211 187.007 C 166.988 186.869,166.703 187.469,166.557 188.381 C 166.405 189.330,166.078 190.000,165.767 190.000 C 165.470 190.000,165.113 190.661,164.956 191.500 C 164.801 192.325,164.403 193.200,164.071 193.443 C 163.738 193.687,163.402 194.308,163.324 194.823 C 163.245 195.337,162.915 196.052,162.590 196.411 C 162.266 196.769,162.000 197.664,162.000 198.398 C 162.000 199.133,161.882 199.615,161.737 199.470 C 161.247 198.981,160.400 200.091,160.400 201.222 C 160.400 201.995,160.150 202.425,159.600 202.600 C 159.020 202.784,158.800 203.205,158.800 204.131 C 158.800 204.974,158.529 205.577,158.000 205.907 C 157.490 206.226,157.200 206.840,157.200 207.603 C 157.200 208.533,157.022 208.800,156.400 208.800 C 155.733 208.800,155.600 209.067,155.600 210.400 C 155.600 211.733,155.467 212.000,154.800 212.000 C 154.154 212.000,154.000 212.267,154.000 213.386 C 154.000 214.347,153.763 214.899,153.225 215.186 C 152.758 215.437,152.401 216.117,152.325 216.901 C 152.245 217.733,151.984 218.200,151.600 218.200 C 150.998 218.200,150.943 218.348,150.850 220.200 C 150.820 220.796,150.560 221.200,150.205 221.200 C 149.820 221.200,149.519 221.765,149.354 222.800 C 149.199 223.765,148.880 224.400,148.549 224.400 C 148.247 224.400,147.985 224.535,147.967 224.700 C 147.774 226.460,147.447 227.424,146.910 227.817 C 146.556 228.075,146.202 228.708,146.124 229.223 C 146.045 229.737,145.715 230.452,145.390 230.811 C 145.066 231.169,144.800 231.932,144.800 232.505 C 144.800 233.195,144.530 233.632,144.000 233.800 C 143.409 233.988,143.200 234.405,143.200 235.400 C 143.200 236.395,142.991 236.812,142.400 237.000 C 141.820 237.184,141.600 237.605,141.600 238.531 C 141.600 239.374,141.329 239.977,140.800 240.307 C 140.290 240.626,140.000 241.240,140.000 242.003 C 140.000 242.933,139.822 243.200,139.200 243.200 C 138.554 243.200,138.400 243.467,138.400 244.586 C 138.400 245.562,138.164 246.098,137.600 246.400 C 137.081 246.678,136.800 247.238,136.800 247.994 C 136.800 248.645,136.518 249.318,136.162 249.517 C 135.812 249.713,135.399 250.487,135.246 251.237 C 135.082 252.037,134.726 252.600,134.384 252.600 C 133.798 252.600,133.742 252.751,133.650 254.600 C 133.621 255.185,133.359 255.600,133.018 255.600 C 132.662 255.600,132.327 256.183,132.156 257.100 C 132.001 257.925,131.600 258.802,131.265 259.048 C 130.929 259.294,130.585 260.014,130.500 260.647 C 130.415 261.280,130.088 261.943,129.773 262.119 C 129.440 262.305,129.200 263.047,129.200 263.887 C 129.200 264.682,129.082 265.215,128.937 265.070 C 128.447 264.581,127.600 265.691,127.600 266.822 C 127.600 267.595,127.350 268.025,126.800 268.200 C 126.220 268.384,126.000 268.805,126.000 269.731 C 126.000 270.574,125.729 271.177,125.200 271.507 C 124.593 271.886,124.400 272.440,124.400 273.803 L 124.400 275.600 126.413 275.600 C 127.756 275.600,128.496 275.416,128.637 275.047 C 128.754 274.743,129.558 274.381,130.425 274.242 C 131.440 274.080,132.000 273.779,132.000 273.395 C 132.000 273.068,132.225 272.786,132.500 272.769 C 133.811 272.689,134.616 272.393,135.018 271.843 C 135.260 271.512,135.975 271.148,136.606 271.033 C 137.238 270.919,137.908 270.549,138.097 270.213 C 138.286 269.876,138.964 269.600,139.606 269.600 C 140.362 269.600,140.922 269.319,141.200 268.800 C 141.435 268.360,141.967 268.000,142.381 268.000 C 143.560 268.000,144.400 267.566,144.400 266.957 C 144.400 266.605,144.840 266.400,145.597 266.400 C 146.360 266.400,146.974 266.110,147.293 265.600 C 147.631 265.058,148.226 264.800,149.134 264.800 C 150.138 264.800,150.527 264.599,150.684 264.000 C 150.843 263.394,151.230 263.200,152.284 263.200 C 153.338 263.200,153.725 263.006,153.884 262.400 C 154.030 261.844,154.430 261.600,155.198 261.600 C 156.313 261.600,157.416 260.749,156.930 260.263 C 156.785 260.118,157.344 260.000,158.171 260.000 C 159.338 260.000,159.722 259.821,159.884 259.200 C 160.048 258.573,160.430 258.400,161.647 258.400 C 162.696 258.400,163.200 258.222,163.200 257.851 C 163.200 257.520,163.835 257.201,164.800 257.046 C 165.835 256.881,166.400 256.580,166.400 256.195 C 166.400 255.868,166.625 255.586,166.900 255.569 C 168.221 255.489,169.018 255.191,169.433 254.622 C 169.683 254.280,170.357 254.000,170.930 254.000 C 171.562 254.000,172.140 253.686,172.400 253.200 C 172.685 252.668,173.238 252.400,174.052 252.400 C 174.938 252.400,175.332 252.180,175.484 251.600 C 175.617 251.092,176.030 250.800,176.614 250.800 C 177.951 250.800,178.800 250.395,178.800 249.757 C 178.800 249.405,179.240 249.200,179.997 249.200 C 180.760 249.200,181.374 248.910,181.693 248.400 C 182.031 247.858,182.626 247.600,183.534 247.600 C 184.538 247.600,184.927 247.399,185.084 246.800 C 185.230 246.244,185.630 246.000,186.398 246.000 C 187.513 246.000,188.616 245.149,188.130 244.663 C 187.985 244.518,188.505 244.400,189.284 244.400 C 190.653 244.400,191.871 243.604,191.330 243.063 C 191.185 242.918,191.732 242.800,192.546 242.800 C 193.436 242.800,194.110 242.580,194.237 242.247 C 194.354 241.943,195.158 241.581,196.025 241.442 C 197.040 241.280,197.600 240.979,197.600 240.595 C 197.600 240.227,197.981 240.000,198.600 240.000 C 199.150 240.000,199.956 239.644,200.390 239.210 C 200.825 238.775,201.670 238.330,202.268 238.222 C 202.865 238.114,203.508 237.749,203.697 237.413 C 203.886 237.076,204.564 236.800,205.206 236.800 C 205.962 236.800,206.522 236.519,206.800 236.000 C 207.035 235.560,207.567 235.200,207.981 235.200 C 209.160 235.200,210.000 234.766,210.000 234.157 C 210.000 233.789,210.466 233.600,211.373 233.600 C 212.395 233.600,212.811 233.395,213.000 232.800 C 213.178 232.240,213.605 232.000,214.424 232.000 C 215.160 232.000,215.778 231.704,216.093 231.200 C 216.431 230.658,217.026 230.400,217.934 230.400 C 218.938 230.400,219.327 230.199,219.484 229.600 C 219.630 229.044,220.030 228.800,220.798 228.800 C 221.913 228.800,223.016 227.949,222.530 227.463 C 222.385 227.318,222.944 227.200,223.771 227.200 C 224.914 227.200,225.323 227.017,225.474 226.437 C 225.584 226.017,226.017 225.584,226.437 225.474 C 227.017 225.323,227.200 224.914,227.200 223.771 C 227.200 222.944,227.318 222.385,227.463 222.530 C 227.949 223.016,228.800 221.913,228.800 220.798 C 228.800 220.030,229.044 219.630,229.600 219.484 C 230.199 219.327,230.400 218.938,230.400 217.934 C 230.400 217.026,230.658 216.431,231.200 216.093 C 231.704 215.778,232.000 215.160,232.000 214.424 C 232.000 213.605,232.240 213.178,232.800 213.000 C 233.395 212.811,233.600 212.395,233.600 211.373 C 233.600 210.466,233.789 210.000,234.157 210.000 C 234.766 210.000,235.200 209.160,235.200 207.981 C 235.200 207.567,235.560 207.035,236.000 206.800 C 236.519 206.522,236.800 205.962,236.800 205.206 C 236.800 204.564,237.076 203.886,237.413 203.697 C 237.749 203.508,238.114 202.865,238.222 202.268 C 238.330 201.670,238.775 200.825,239.210 200.390 C 239.644 199.956,240.000 199.150,240.000 198.600 C 240.000 197.981,240.227 197.600,240.595 197.600 C 240.979 197.600,241.280 197.040,241.442 196.025 C 241.581 195.158,241.943 194.354,242.247 194.237 C 242.580 194.110,242.800 193.436,242.800 192.546 C 242.800 191.732,242.918 191.185,243.063 191.330 C 243.604 191.871,244.400 190.653,244.400 189.284 C 244.400 188.505,244.518 187.985,244.663 188.130 C 245.149 188.616,246.000 187.513,246.000 186.398 C 246.000 185.630,246.244 185.230,246.800 185.084 C 247.399 184.927,247.600 184.538,247.600 183.534 C 247.600 182.626,247.858 182.031,248.400 181.693 C 248.910 181.374,249.200 180.760,249.200 179.997 C 249.200 179.240,249.405 178.800,249.757 178.800 C 250.402 178.800,250.800 177.948,250.800 176.567 C 250.800 176.007,251.035 175.600,251.357 175.600 C 251.966 175.600,252.400 174.760,252.400 173.581 C 252.400 173.167,252.760 172.635,253.200 172.400 C 253.686 172.140,254.000 171.562,254.000 170.930 C 254.000 170.357,254.280 169.683,254.622 169.433 C 255.191 169.018,255.489 168.221,255.569 166.900 C 255.586 166.625,255.868 166.400,256.195 166.400 C 256.580 166.400,256.881 165.835,257.046 164.800 C 257.201 163.835,257.520 163.200,257.851 163.200 C 258.222 163.200,258.400 162.696,258.400 161.647 C 258.400 160.430,258.573 160.048,259.200 159.884 C 259.821 159.722,260.000 159.338,260.000 158.171 C 260.000 157.344,260.118 156.785,260.263 156.930 C 260.749 157.416,261.600 156.313,261.600 155.198 C 261.600 154.430,261.844 154.030,262.400 153.884 C 263.006 153.725,263.200 153.338,263.200 152.284 C 263.200 151.230,263.394 150.843,264.000 150.684 C 264.599 150.527,264.800 150.138,264.800 149.134 C 264.800 148.226,265.058 147.631,265.600 147.293 C 266.110 146.974,266.400 146.360,266.400 145.597 C 266.400 144.840,266.605 144.400,266.957 144.400 C 267.566 144.400,268.000 143.560,268.000 142.381 C 268.000 141.967,268.360 141.435,268.800 141.200 C 269.319 140.922,269.600 140.362,269.600 139.606 C 269.600 138.964,269.876 138.286,270.213 138.097 C 270.549 137.908,270.919 137.238,271.033 136.606 C 271.148 135.975,271.512 135.260,271.843 135.018 C 272.393 134.616,272.689 133.811,272.769 132.500 C 272.786 132.225,273.068 132.000,273.395 132.000 C 273.779 132.000,274.080 131.440,274.242 130.425 C 274.381 129.558,274.743 128.754,275.047 128.637 C 275.416 128.496,275.600 127.756,275.600 126.413 L 275.600 124.400 273.900 124.432 C 272.965 124.449,271.975 124.554,271.700 124.665 " stroke="none" fill="#2fb1c0" fill-rule="evenodd"></path><path id="path2" d="" stroke="none" fill="#00ffff" fill-rule="evenodd"></path></g></svg>