<svg id="svg" version="1.1" width="400" height="400" xmlns="http://www.w3.org/2000/svg" xmlns:xlink="http://www.w3.org/1999/xlink" style="display: block;"><g id="svgg"><path id="path0" d="M198.887 76.409 C 198.419 77.159,198.441 77.181,199.191 76.713 C 199.636 76.435,200.000 76.071,200.000 75.904 C 200.000 75.326,199.391 75.603,198.887 76.409 " stroke="none" fill="#000000" fill-rule="evenodd"></path><path id="path1" d="M198.598 25.936 C 198.104 26.430,198.518 26.638,199.960 26.619 C 200.818 26.609,201.450 26.486,201.365 26.346 C 201.165 26.018,198.857 25.676,198.598 25.936 M120.915 59.452 C 120.440 60.474,120.447 60.482,121.215 59.787 C 122.012 59.065,122.246 58.397,121.700 58.403 C 121.535 58.405,121.182 58.877,120.915 59.452 M88.968 135.751 C 88.436 136.329,88.499 137.542,89.114 138.603 C 89.638 139.508,89.706 139.004,89.222 137.800 C 89.045 137.360,89.072 136.670,89.283 136.266 C 89.742 135.383,89.567 135.098,88.968 135.751 M310.956 137.234 C 310.931 137.916,311.044 138.253,311.207 137.988 C 311.370 137.725,311.585 137.665,311.686 137.855 C 311.787 138.045,311.808 137.960,311.734 137.667 C 311.660 137.374,311.600 136.879,311.600 136.567 C 311.600 135.420,310.999 136.043,310.956 137.234 M309.200 223.000 C 308.917 223.341,308.776 223.709,308.886 223.819 C 308.996 223.929,309.317 223.741,309.600 223.400 C 309.883 223.059,310.024 222.691,309.914 222.581 C 309.804 222.471,309.483 222.659,309.200 223.000 M254.662 357.131 C 253.933 357.937,253.772 358.588,254.398 358.201 C 254.815 357.943,255.739 356.400,255.476 356.400 C 255.392 356.400,255.026 356.729,254.662 357.131 M197.288 373.665 C 197.374 373.921,197.759 374.176,198.144 374.233 C 198.707 374.316,198.752 374.224,198.373 373.768 C 197.806 373.084,197.071 373.014,197.288 373.665 " stroke="none" fill="#005555" fill-rule="evenodd"></path><path id="path2" d="M227.400 1.198 C 228.442 1.648,228.800 1.671,228.800 1.287 C 228.800 1.115,228.305 0.947,227.700 0.913 C 226.751 0.861,226.710 0.900,227.400 1.198 M264.400 14.600 C 264.674 14.930,265.281 15.175,265.749 15.146 C 266.564 15.093,266.562 15.084,265.700 14.918 C 265.205 14.822,264.800 14.577,264.800 14.372 C 264.800 14.167,264.598 14.000,264.351 14.000 C 264.041 14.000,264.056 14.185,264.400 14.600 M273.600 20.020 C 275.072 21.019,275.813 21.257,274.856 20.423 C 274.336 19.970,273.706 19.603,273.456 19.606 C 273.205 19.609,273.270 19.796,273.600 20.020 M279.055 23.400 C 279.182 23.730,279.558 24.000,279.892 24.000 C 280.385 24.000,280.405 23.888,280.000 23.400 C 279.726 23.070,279.350 22.800,279.164 22.800 C 278.977 22.800,278.929 23.070,279.055 23.400 M196.431 26.028 C 196.858 26.298,196.750 26.391,196.000 26.400 C 195.450 26.407,194.766 26.561,194.479 26.742 C 194.164 26.942,194.558 27.035,195.479 26.978 C 197.663 26.842,197.672 26.840,197.400 26.400 C 197.264 26.180,197.343 26.000,197.576 26.000 C 197.809 26.000,198.003 26.225,198.006 26.500 C 198.010 26.817,198.120 26.851,198.306 26.591 C 198.718 26.018,201.065 25.858,201.388 26.381 C 201.535 26.618,201.823 26.709,202.028 26.583 C 202.232 26.456,202.622 26.490,202.893 26.658 C 203.165 26.826,204.290 26.999,205.393 27.043 L 207.400 27.124 205.462 26.662 C 204.397 26.408,203.617 26.110,203.729 26.000 C 203.841 25.890,202.117 25.770,199.898 25.734 C 197.375 25.692,196.075 25.802,196.431 26.028 M283.417 26.501 C 283.653 27.115,285.938 28.800,286.535 28.800 C 286.667 28.800,286.671 28.530,286.545 28.200 C 286.418 27.870,286.030 27.600,285.683 27.600 C 285.336 27.600,284.625 27.199,284.104 26.709 C 283.386 26.035,283.219 25.985,283.417 26.501 M180.624 28.213 C 180.196 28.536,180.027 28.800,180.247 28.800 C 180.467 28.800,180.996 28.536,181.424 28.213 C 181.851 27.890,182.020 27.625,181.800 27.625 C 181.580 27.625,181.051 27.890,180.624 28.213 M167.600 31.033 C 167.600 31.308,167.375 31.624,167.100 31.735 C 166.811 31.852,166.785 31.950,167.038 31.968 C 167.279 31.986,167.775 31.670,168.140 31.267 C 168.706 30.641,168.715 30.533,168.202 30.533 C 167.871 30.533,167.600 30.758,167.600 31.033 M240.243 34.167 C 240.376 34.515,240.661 34.800,240.876 34.800 C 241.402 34.800,241.073 33.891,240.475 33.692 C 240.182 33.594,240.093 33.777,240.243 34.167 M155.200 35.704 C 155.200 36.055,154.885 36.424,154.500 36.524 C 153.844 36.696,153.845 36.710,154.513 36.754 C 155.236 36.801,155.906 35.773,155.449 35.316 C 155.312 35.179,155.200 35.353,155.200 35.704 M294.274 35.963 C 294.407 36.469,294.818 36.800,295.313 36.800 C 295.764 36.800,296.058 36.753,295.967 36.696 C 295.875 36.638,295.408 36.262,294.928 35.859 C 294.074 35.142,294.060 35.144,294.274 35.963 M103.700 36.944 C 103.205 37.189,102.800 37.527,102.800 37.695 C 102.800 38.248,103.464 38.013,104.200 37.200 C 105.001 36.315,104.986 36.307,103.700 36.944 M296.788 38.188 C 297.584 39.035,298.400 39.220,298.400 38.553 C 298.400 38.443,298.233 38.456,298.029 38.582 C 297.825 38.708,297.543 38.449,297.402 38.006 C 297.261 37.563,296.857 37.200,296.503 37.200 C 295.990 37.200,296.047 37.399,296.788 38.188 M298.636 39.542 C 298.520 39.730,298.869 40.301,299.412 40.812 C 300.201 41.553,300.400 41.610,300.400 41.097 C 300.400 40.743,300.037 40.339,299.594 40.198 C 299.151 40.057,298.892 39.775,299.018 39.571 C 299.144 39.367,299.157 39.200,299.047 39.200 C 298.937 39.200,298.752 39.354,298.636 39.542 M100.224 40.213 C 99.796 40.536,99.616 40.804,99.824 40.809 C 100.031 40.814,99.750 41.170,99.200 41.600 C 98.650 42.030,98.396 42.386,98.636 42.391 C 98.875 42.396,99.645 41.770,100.345 41.000 C 101.656 39.560,101.596 39.175,100.224 40.213 M300.800 42.287 C 300.800 42.782,301.131 43.193,301.637 43.326 C 302.456 43.540,302.458 43.526,301.741 42.672 C 301.338 42.192,300.962 41.725,300.904 41.633 C 300.847 41.542,300.800 41.836,300.800 42.287 M97.200 43.600 C 96.650 44.030,96.352 44.386,96.537 44.391 C 96.722 44.396,97.331 44.040,97.891 43.600 C 98.450 43.160,98.749 42.804,98.554 42.809 C 98.359 42.814,97.750 43.170,97.200 43.600 M133.660 47.980 C 133.748 48.244,133.951 48.447,134.110 48.430 C 134.588 48.381,134.496 47.832,133.980 47.660 C 133.716 47.572,133.572 47.716,133.660 47.980 M125.762 54.893 C 125.295 55.440,125.247 55.597,125.637 55.297 C 125.987 55.027,126.392 54.925,126.537 55.070 C 126.682 55.215,126.800 55.033,126.800 54.667 C 126.800 53.796,126.674 53.824,125.762 54.893 M273.052 54.592 C 273.180 54.924,273.429 55.106,273.607 54.996 C 273.784 54.886,274.612 55.517,275.447 56.398 C 276.900 57.931,277.600 58.353,277.600 57.695 C 277.600 57.527,277.195 57.205,276.700 56.980 C 276.205 56.755,275.831 56.393,275.870 56.177 C 275.908 55.960,275.237 55.379,274.380 54.885 C 273.220 54.218,272.880 54.142,273.052 54.592 M122.756 57.700 C 122.286 58.595,122.288 58.596,123.142 57.838 C 124.095 56.991,124.182 56.800,123.614 56.800 C 123.402 56.800,123.016 57.205,122.756 57.700 M313.600 57.708 C 313.600 58.042,313.870 58.418,314.200 58.545 C 314.530 58.671,314.800 58.623,314.800 58.436 C 314.800 58.250,314.530 57.874,314.200 57.600 C 313.712 57.195,313.600 57.215,313.600 57.708 M279.600 60.318 C 279.600 60.492,280.321 61.318,281.202 62.153 C 282.083 62.988,282.714 63.816,282.604 63.993 C 282.494 64.171,282.674 64.419,283.002 64.546 C 283.331 64.672,283.600 64.699,283.600 64.605 C 283.600 64.167,281.613 61.573,281.326 61.637 C 281.147 61.677,280.822 61.325,280.605 60.855 C 280.219 60.018,279.600 59.688,279.600 60.318 M184.400 62.400 C 183.867 62.745,183.867 62.788,184.400 62.788 C 184.730 62.788,185.270 62.613,185.600 62.400 C 186.133 62.055,186.133 62.012,185.600 62.012 C 185.270 62.012,184.730 62.187,184.400 62.400 M316.764 62.600 C 317.458 63.957,317.987 64.622,317.994 64.144 C 317.997 63.894,317.630 63.264,317.177 62.744 C 316.531 62.002,316.442 61.971,316.764 62.600 M116.774 64.037 C 115.911 65.248,115.910 65.263,116.728 64.752 C 117.188 64.465,117.483 64.150,117.385 64.052 C 117.287 63.954,117.407 63.632,117.652 63.337 C 117.897 63.042,117.998 62.800,117.876 62.800 C 117.754 62.800,117.258 63.357,116.774 64.037 M173.073 65.755 C 172.923 66.144,173.090 66.249,173.630 66.108 C 174.516 65.876,174.674 65.200,173.843 65.200 C 173.536 65.200,173.190 65.450,173.073 65.755 M78.229 70.229 C 77.504 70.953,77.442 71.200,77.986 71.200 C 78.198 71.200,78.565 70.840,78.800 70.400 C 79.314 69.439,79.086 69.371,78.229 70.229 M322.454 71.851 C 322.425 72.319,322.670 72.926,323.000 73.200 C 323.415 73.544,323.600 73.559,323.600 73.249 C 323.600 73.002,323.433 72.800,323.228 72.800 C 323.023 72.800,322.778 72.395,322.682 71.900 C 322.516 71.038,322.507 71.036,322.454 71.851 M198.162 75.938 C 198.353 76.248,198.052 76.400,197.247 76.400 C 196.587 76.400,195.951 76.556,195.833 76.746 C 195.558 77.192,198.049 76.911,198.517 76.443 C 198.721 76.239,198.660 75.961,198.373 75.783 C 198.053 75.585,197.978 75.641,198.162 75.938 M326.000 79.800 C 326.000 80.167,326.194 80.402,326.430 80.323 C 326.667 80.245,326.860 80.009,326.860 79.800 C 326.860 79.591,326.667 79.356,326.430 79.277 C 326.194 79.198,326.000 79.433,326.000 79.800 M145.500 83.585 C 144.482 84.577,144.640 84.980,145.671 84.020 C 146.150 83.574,146.465 83.140,146.371 83.056 C 146.277 82.972,145.885 83.210,145.500 83.585 M302.608 96.042 C 302.925 97.055,303.634 97.714,303.988 97.323 C 304.105 97.195,303.974 97.010,303.698 96.911 C 303.421 96.812,303.267 96.612,303.356 96.466 C 303.444 96.320,303.244 95.949,302.913 95.642 C 302.384 95.152,302.346 95.202,302.608 96.042 M334.281 102.161 C 335.127 103.291,335.250 103.277,334.937 102.083 C 334.811 101.597,334.449 101.200,334.135 101.200 C 333.679 101.200,333.709 101.396,334.281 102.161 M64.893 104.800 C 64.893 105.570,64.975 105.885,65.076 105.500 C 65.176 105.115,65.176 104.485,65.076 104.100 C 64.975 103.715,64.893 104.030,64.893 104.800 M146.200 108.000 C 146.064 108.220,146.223 108.400,146.553 108.400 C 146.883 108.400,147.264 108.220,147.400 108.000 C 147.536 107.780,147.377 107.600,147.047 107.600 C 146.717 107.600,146.336 107.780,146.200 108.000 M92.000 110.600 C 91.717 110.941,91.576 111.309,91.686 111.419 C 91.796 111.529,92.117 111.341,92.400 111.000 C 92.683 110.659,92.824 110.291,92.714 110.181 C 92.604 110.071,92.283 110.259,92.000 110.600 M127.969 110.567 C 127.953 110.585,127.880 110.903,127.809 111.272 C 127.660 112.043,128.622 111.840,128.931 111.036 C 129.071 110.672,128.243 110.268,127.969 110.567 M88.581 133.867 C 88.592 134.453,88.819 135.006,89.086 135.095 C 89.408 135.203,89.543 134.843,89.486 134.030 C 89.381 132.526,88.555 132.378,88.581 133.867 M310.562 134.061 C 310.406 134.314,310.610 134.764,311.015 135.061 C 311.558 135.458,311.601 135.602,311.176 135.606 C 310.691 135.611,310.688 135.668,311.154 135.963 C 311.550 136.214,311.617 136.640,311.389 137.457 C 311.213 138.086,311.098 138.735,311.134 138.900 C 311.170 139.065,311.031 139.200,310.825 139.200 C 310.619 139.200,310.476 139.548,310.508 139.972 C 310.540 140.397,310.712 140.655,310.890 140.545 C 311.067 140.435,311.121 140.196,311.009 140.014 C 310.896 139.833,311.054 139.588,311.359 139.471 C 312.072 139.198,312.000 134.733,311.279 134.493 C 311.013 134.404,310.897 134.167,311.021 133.966 C 311.145 133.765,311.157 133.600,311.047 133.600 C 310.937 133.600,310.719 133.807,310.562 134.061 M88.412 138.424 C 88.405 138.986,88.671 139.796,89.003 140.224 C 89.578 140.965,89.597 140.951,89.432 139.917 C 89.157 138.194,88.428 137.126,88.412 138.424 M90.133 151.838 C 90.133 152.147,90.373 152.400,90.667 152.400 C 90.960 152.400,91.200 152.239,91.200 152.043 C 91.200 151.846,90.960 151.593,90.667 151.481 C 90.373 151.368,90.133 151.529,90.133 151.838 M307.592 157.810 C 306.819 158.741,307.371 158.917,308.198 158.002 C 308.597 157.561,308.738 157.200,308.511 157.200 C 308.284 157.200,307.870 157.474,307.592 157.810 M334.260 166.838 C 333.866 167.299,333.624 167.758,333.724 167.857 C 333.962 168.095,335.200 166.849,335.200 166.371 C 335.200 165.833,335.062 165.902,334.260 166.838 M328.800 181.013 C 328.800 181.660,329.425 181.807,329.774 181.242 C 329.896 181.045,329.726 180.781,329.398 180.654 C 329.035 180.515,328.800 180.656,328.800 181.013 M108.800 198.151 C 108.800 198.234,109.070 198.526,109.400 198.800 C 109.891 199.208,110.000 199.180,110.000 198.649 C 110.000 198.292,109.730 198.000,109.400 198.000 C 109.070 198.000,108.800 198.068,108.800 198.151 M282.530 212.663 C 282.675 212.808,282.589 213.172,282.340 213.473 C 282.090 213.773,281.957 214.087,282.043 214.170 C 282.129 214.254,282.523 213.889,282.919 213.361 C 283.588 212.467,283.590 212.400,282.952 212.400 C 282.575 212.400,282.385 212.518,282.530 212.663 M313.802 213.998 C 313.140 214.730,313.135 214.800,313.751 214.800 C 314.122 214.800,314.532 214.522,314.662 214.183 C 315.034 213.212,314.598 213.118,313.802 213.998 M88.406 219.414 C 88.417 220.103,89.148 220.985,89.454 220.679 C 89.618 220.515,89.448 220.077,89.076 219.705 C 88.704 219.333,88.403 219.202,88.406 219.414 M274.805 226.791 C 274.459 227.436,274.494 227.539,274.991 227.348 C 275.326 227.220,275.600 226.864,275.600 226.557 C 275.600 225.776,275.301 225.864,274.805 226.791 M303.060 234.038 C 302.666 234.499,302.424 234.958,302.524 235.057 C 302.762 235.295,304.000 234.049,304.000 233.571 C 304.000 233.033,303.862 233.102,303.060 234.038 M97.600 235.939 C 97.600 236.125,97.960 236.693,98.400 237.200 C 98.840 237.707,99.200 237.915,99.200 237.661 C 99.200 237.408,98.840 236.840,98.400 236.400 C 97.960 235.960,97.600 235.752,97.600 235.939 M301.499 236.577 C 301.115 236.858,300.800 237.300,300.800 237.560 C 300.800 237.819,301.192 237.666,301.671 237.220 C 302.671 236.288,302.544 235.813,301.499 236.577 M133.600 243.946 C 133.600 244.438,133.854 244.800,134.200 244.800 C 134.530 244.800,134.800 245.010,134.800 245.267 C 134.800 245.523,134.911 245.623,135.046 245.488 C 135.181 245.353,134.911 244.758,134.446 244.167 C 133.651 243.157,133.600 243.144,133.600 243.946 M135.200 247.024 C 135.200 247.367,135.369 247.543,135.575 247.415 C 135.782 247.288,136.136 247.502,136.363 247.892 C 136.590 248.281,136.775 248.420,136.775 248.200 C 136.774 247.714,135.812 246.400,135.456 246.400 C 135.315 246.400,135.200 246.681,135.200 247.024 M104.000 247.841 C 104.000 248.122,105.078 249.200,105.359 249.200 C 105.478 249.200,105.477 248.944,105.357 248.631 C 105.144 248.076,104.000 247.411,104.000 247.841 M139.615 255.000 C 139.617 255.220,139.986 255.850,140.436 256.400 C 140.979 257.064,141.115 257.131,140.840 256.600 C 140.166 255.295,139.612 254.572,139.615 255.000 M118.032 274.937 C 118.014 275.122,118.360 275.731,118.800 276.291 C 119.566 277.265,119.600 277.272,119.600 276.454 C 119.600 275.984,119.345 275.600,119.033 275.600 C 118.722 275.600,118.376 275.375,118.265 275.100 C 118.154 274.825,118.049 274.752,118.032 274.937 M276.679 286.957 C 276.515 287.374,276.475 287.809,276.591 287.924 C 276.955 288.289,277.276 287.691,277.124 286.931 C 276.983 286.235,276.962 286.236,276.679 286.957 M245.067 291.867 C 244.630 292.304,244.764 293.200,245.267 293.200 C 245.523 293.200,245.615 293.082,245.470 292.937 C 245.325 292.792,245.407 292.432,245.652 292.137 C 246.097 291.601,245.574 291.360,245.067 291.867 M237.363 300.060 C 237.001 300.646,237.910 300.753,238.641 300.210 C 239.368 299.671,239.360 299.649,238.470 299.711 C 237.958 299.746,237.460 299.903,237.363 300.060 M212.243 303.433 C 212.093 303.823,212.182 304.006,212.475 303.908 C 213.073 303.709,213.402 302.800,212.876 302.800 C 212.661 302.800,212.376 303.085,212.243 303.433 M175.029 307.829 C 174.077 308.780,174.276 309.028,175.300 308.166 C 175.795 307.750,176.275 307.362,176.367 307.304 C 176.458 307.247,176.336 307.200,176.095 307.200 C 175.854 307.200,175.374 307.483,175.029 307.829 M162.577 309.367 C 162.150 309.679,161.907 310.040,162.036 310.170 C 162.166 310.299,162.598 310.044,162.998 309.602 C 163.848 308.663,163.673 308.566,162.577 309.367 M269.200 309.602 C 269.200 309.896,268.895 310.474,268.522 310.886 C 267.904 311.570,267.902 311.612,268.507 311.380 C 269.207 311.112,269.837 309.704,269.437 309.303 C 269.306 309.173,269.200 309.307,269.200 309.602 M130.877 310.830 C 130.956 311.067,131.191 311.260,131.400 311.260 C 131.609 311.260,131.845 311.067,131.923 310.830 C 132.002 310.594,131.767 310.400,131.400 310.400 C 131.033 310.400,130.798 310.594,130.877 310.830 M236.878 315.624 C 236.401 316.387,236.425 316.415,237.193 316.004 C 237.649 315.760,237.917 315.389,237.788 315.180 C 237.475 314.674,237.470 314.676,236.878 315.624 M223.621 317.161 C 223.281 317.795,223.335 317.890,223.940 317.732 C 224.340 317.627,224.667 317.285,224.667 316.971 C 224.667 316.161,224.101 316.264,223.621 317.161 M237.170 317.100 C 237.154 317.265,237.073 317.850,236.991 318.400 L 236.841 319.400 237.309 318.400 C 237.567 317.850,237.963 317.268,238.189 317.106 C 238.427 316.936,238.305 316.810,237.900 316.806 C 237.515 316.803,237.187 316.935,237.170 317.100 M211.660 318.380 C 211.748 318.644,211.950 318.847,212.110 318.830 C 212.588 318.781,212.496 318.232,211.980 318.060 C 211.716 317.972,211.572 318.116,211.660 318.380 M198.871 320.114 C 198.549 320.503,198.632 320.629,199.212 320.629 C 199.635 320.629,200.069 320.397,200.178 320.114 C 200.286 319.831,200.133 319.600,199.836 319.600 C 199.540 319.600,199.106 319.831,198.871 320.114 M167.215 333.254 C 167.923 334.613,168.036 334.672,167.872 333.597 C 167.792 333.072,167.501 332.567,167.225 332.475 C 166.824 332.341,166.822 332.498,167.215 333.254 M260.000 337.176 C 260.000 337.839,260.584 337.934,261.116 337.358 C 261.544 336.894,261.493 336.800,260.816 336.800 C 260.367 336.800,260.000 336.969,260.000 337.176 M213.067 340.267 C 212.574 340.760,212.780 341.314,213.300 340.892 C 213.575 340.669,214.160 340.398,214.600 340.289 C 215.244 340.131,215.198 340.084,214.367 340.046 C 213.798 340.021,213.213 340.120,213.067 340.267 M200.000 342.400 C 199.765 342.840,199.722 343.200,199.906 343.200 C 200.331 343.200,201.200 342.341,201.200 341.920 C 201.200 341.299,200.423 341.610,200.000 342.400 M258.800 342.200 C 258.522 342.535,258.479 342.800,258.702 342.800 C 258.922 342.800,259.326 342.530,259.600 342.200 C 259.878 341.865,259.921 341.600,259.698 341.600 C 259.478 341.600,259.074 341.870,258.800 342.200 M187.328 343.716 C 186.925 344.368,187.493 344.408,188.640 343.808 L 189.800 343.201 188.668 343.290 C 188.045 343.339,187.442 343.531,187.328 343.716 M174.981 345.152 C 174.191 345.942,175.152 346.216,176.150 345.486 C 176.805 345.007,176.795 344.971,176.008 344.971 C 175.543 344.971,175.080 345.053,174.981 345.152 M141.723 346.562 C 141.765 346.981,142.116 347.371,142.502 347.427 C 142.888 347.484,143.101 347.363,142.974 347.158 C 142.848 346.954,142.591 346.882,142.403 346.998 C 142.214 347.115,141.967 346.893,141.853 346.505 C 141.677 345.905,141.657 345.914,141.723 346.562 M223.708 354.590 C 223.308 355.045,223.351 355.139,223.941 355.094 C 224.340 355.064,224.667 354.806,224.667 354.520 C 224.667 353.856,224.332 353.881,223.708 354.590 M224.584 356.027 C 224.148 356.732,224.607 356.830,225.429 356.209 C 226.106 355.697,226.117 355.624,225.524 355.613 C 225.152 355.606,224.729 355.792,224.584 356.027 M186.600 358.800 C 186.175 359.488,186.792 360.039,187.379 359.496 C 187.928 358.989,187.832 358.400,187.200 358.400 C 187.006 358.400,186.736 358.580,186.600 358.800 M218.274 367.637 C 218.064 368.440,218.087 368.445,218.828 367.775 C 219.746 366.943,219.779 366.800,219.047 366.800 C 218.742 366.800,218.395 367.177,218.274 367.637 M184.481 370.382 C 185.033 371.266,185.422 371.155,185.062 370.217 C 184.932 369.878,184.638 369.600,184.409 369.600 C 184.146 369.600,184.172 369.887,184.481 370.382 M195.545 373.158 C 196.006 373.449,196.006 373.537,195.545 373.720 C 195.114 373.891,195.126 373.950,195.600 373.999 C 195.930 374.033,196.503 374.120,196.872 374.191 C 197.311 374.276,197.470 374.127,197.330 373.763 C 197.213 373.456,196.967 373.296,196.786 373.409 C 196.604 373.521,196.342 373.430,196.204 373.207 C 196.066 372.983,195.738 372.803,195.476 372.806 C 195.159 372.810,195.182 372.928,195.545 373.158 M204.132 373.434 C 203.936 373.943,203.824 373.962,203.559 373.534 C 203.289 373.097,203.117 373.112,202.614 373.615 C 202.061 374.168,202.088 374.236,202.887 374.297 C 203.375 374.333,204.102 374.012,204.503 373.582 C 204.903 373.152,205.039 372.800,204.803 372.800 C 204.568 372.800,204.265 373.085,204.132 373.434 M154.006 377.486 C 154.016 377.989,154.559 378.592,155.100 378.700 C 155.895 378.859,155.680 378.071,154.800 377.600 C 154.360 377.365,154.003 377.313,154.006 377.486 M243.657 380.857 C 243.375 381.309,243.232 381.766,243.340 381.873 C 243.447 381.981,243.744 381.678,244.000 381.200 C 244.605 380.070,244.324 379.790,243.657 380.857 M220.984 398.417 C 220.336 399.133,220.329 399.202,220.922 398.974 C 221.295 398.831,221.600 398.543,221.600 398.334 C 221.600 398.124,221.780 398.064,222.000 398.200 C 222.220 398.336,222.400 398.257,222.400 398.024 C 222.400 397.357,221.791 397.526,220.984 398.417 " stroke="none" fill="#009999" fill-rule="evenodd"></path><path id="path3" d="M179.533 0.373 C 179.460 0.579,177.645 0.795,175.500 0.853 C 172.294 0.941,171.599 1.071,171.594 1.580 C 171.588 2.126,171.542 2.129,171.200 1.600 C 170.869 1.087,170.811 1.102,170.806 1.700 C 170.801 2.250,170.437 2.407,169.100 2.435 C 166.135 2.495,164.620 2.739,164.474 3.178 C 164.396 3.413,164.167 3.503,163.966 3.379 C 163.765 3.255,163.600 3.343,163.600 3.576 C 163.600 3.812,162.800 4.000,161.800 4.000 C 160.549 4.000,159.762 4.238,159.221 4.779 C 158.690 5.310,157.799 5.588,156.425 5.651 C 154.876 5.721,154.355 5.911,154.177 6.471 C 154.000 7.032,153.537 7.200,152.176 7.200 C 150.840 7.200,150.284 7.396,149.907 8.000 C 149.592 8.504,148.974 8.800,148.235 8.800 C 147.591 8.800,146.703 9.115,146.263 9.500 C 145.669 10.019,145.540 10.045,145.761 9.600 C 145.938 9.244,145.826 9.284,145.486 9.700 C 145.170 10.085,144.444 10.400,143.871 10.400 C 143.299 10.400,142.509 10.745,142.116 11.167 C 141.722 11.590,140.770 11.995,140.000 12.067 C 139.081 12.154,138.600 12.406,138.600 12.800 C 138.600 13.402,138.452 13.457,136.600 13.550 C 136.050 13.578,135.645 13.814,135.700 14.076 C 135.755 14.338,135.444 14.629,135.010 14.723 C 134.575 14.817,134.035 15.122,133.810 15.403 C 133.584 15.683,132.725 16.126,131.900 16.387 C 130.995 16.673,130.400 17.114,130.400 17.498 C 130.400 17.847,130.287 18.021,130.149 17.883 C 129.819 17.552,127.600 18.708,127.600 19.210 C 127.600 19.425,127.255 19.600,126.834 19.600 C 126.129 19.600,125.127 20.282,123.158 22.100 C 122.741 22.485,122.130 22.800,121.800 22.800 C 121.470 22.800,120.840 23.160,120.400 23.600 C 119.960 24.040,119.426 24.400,119.214 24.400 C 119.002 24.400,118.635 24.760,118.400 25.200 C 118.165 25.640,117.743 26.000,117.462 26.000 C 117.182 26.000,116.604 26.283,116.176 26.630 C 115.749 26.976,115.653 27.128,115.962 26.968 C 116.331 26.776,116.426 26.835,116.238 27.138 C 116.081 27.392,115.610 27.600,115.190 27.600 C 114.771 27.600,114.235 27.960,114.000 28.400 C 113.765 28.840,113.218 29.200,112.786 29.200 C 112.354 29.200,112.000 29.464,112.000 29.786 C 112.000 30.108,111.640 30.565,111.200 30.800 C 110.760 31.035,110.400 31.486,110.400 31.802 C 110.400 32.157,110.162 32.284,109.776 32.135 C 109.359 31.976,109.078 32.179,108.929 32.748 C 108.807 33.217,108.466 33.600,108.172 33.600 C 107.877 33.600,107.223 34.014,106.717 34.519 C 106.212 35.025,105.472 35.564,105.074 35.716 C 104.675 35.869,104.444 36.148,104.561 36.336 C 104.800 36.724,102.150 39.200,101.495 39.200 C 101.259 39.200,101.172 39.305,101.300 39.434 C 101.660 39.794,100.310 41.191,99.867 40.918 C 99.652 40.785,99.597 40.872,99.745 41.111 C 99.893 41.350,99.610 41.828,99.118 42.173 C 98.625 42.518,98.377 42.800,98.566 42.800 C 98.755 42.800,98.261 43.316,97.468 43.946 C 96.675 44.576,96.125 45.192,96.247 45.314 C 96.369 45.436,96.093 45.736,95.634 45.982 C 95.175 46.227,94.800 46.616,94.800 46.845 C 94.800 47.379,92.590 49.600,92.059 49.600 C 91.837 49.600,91.594 50.005,91.518 50.500 C 91.443 50.995,91.147 51.351,90.861 51.290 C 90.575 51.230,90.455 51.365,90.594 51.590 C 90.733 51.816,90.657 52.000,90.424 52.000 C 90.191 52.000,90.000 52.450,90.000 53.000 C 90.000 53.550,89.809 54.000,89.576 54.000 C 89.343 54.000,89.288 53.775,89.453 53.500 C 89.657 53.160,89.537 53.176,89.077 53.549 C 88.705 53.851,88.400 54.424,88.400 54.822 C 88.400 55.220,88.040 55.660,87.600 55.800 C 87.160 55.940,86.800 56.383,86.800 56.784 C 86.800 57.186,86.547 57.612,86.238 57.730 C 85.928 57.849,85.554 58.498,85.406 59.173 C 85.258 59.848,84.893 60.400,84.595 60.400 C 84.297 60.400,83.940 60.760,83.800 61.200 C 83.660 61.640,83.348 62.000,83.106 62.000 C 82.865 62.000,82.778 62.111,82.914 62.248 C 83.050 62.384,82.890 62.767,82.558 63.099 C 82.226 63.431,82.049 63.950,82.164 64.252 C 82.280 64.553,82.213 64.800,82.016 64.800 C 81.320 64.800,80.400 66.069,80.400 67.029 C 80.400 67.563,80.190 67.955,79.934 67.900 C 79.677 67.845,79.333 68.421,79.168 69.180 C 79.003 69.940,78.583 70.770,78.234 71.025 C 77.885 71.280,77.600 71.761,77.600 72.095 C 77.600 72.429,77.329 72.927,76.998 73.201 C 76.668 73.476,76.244 74.263,76.056 74.950 C 75.869 75.638,75.516 76.157,75.272 76.105 C 75.028 76.052,74.925 76.259,75.042 76.564 C 75.159 76.869,75.062 77.238,74.827 77.383 C 74.592 77.528,74.400 77.997,74.400 78.424 C 74.400 78.851,74.265 79.201,74.100 79.203 C 73.704 79.207,72.800 81.177,72.800 82.037 C 72.800 82.410,72.519 82.822,72.175 82.954 C 71.831 83.086,71.654 83.363,71.781 83.570 C 71.909 83.776,71.830 84.058,71.607 84.196 C 71.383 84.334,71.200 85.002,71.200 85.680 C 71.200 86.357,70.912 87.123,70.559 87.380 C 70.201 87.642,69.826 88.672,69.709 89.713 C 69.569 90.951,69.280 91.648,68.849 91.785 C 68.396 91.929,68.163 92.564,68.078 93.886 C 68.011 94.928,67.741 95.917,67.478 96.084 C 67.215 96.251,67.180 96.393,67.400 96.400 C 67.620 96.407,67.589 96.546,67.331 96.710 C 67.073 96.875,66.766 97.827,66.648 98.826 C 66.392 101.008,66.025 102.063,65.611 101.807 C 65.443 101.703,65.219 102.831,65.113 104.312 C 65.007 105.794,64.603 107.621,64.214 108.373 C 63.740 109.290,63.459 110.925,63.360 113.344 C 63.276 115.381,63.010 117.133,62.747 117.374 C 62.406 117.687,62.368 117.650,62.603 117.238 C 62.808 116.880,62.769 116.772,62.497 116.940 C 62.036 117.225,61.789 151.783,62.239 152.958 C 62.374 153.309,62.612 153.516,62.768 153.420 C 62.925 153.323,63.102 153.999,63.163 154.922 C 63.223 155.845,63.331 157.050,63.403 157.600 C 63.475 158.150,63.548 159.005,63.567 159.500 C 63.585 159.995,63.915 160.717,64.300 161.105 C 64.702 161.510,65.025 162.490,65.059 163.405 C 65.092 164.282,65.137 165.392,65.159 165.871 C 65.182 166.351,65.480 167.022,65.821 167.364 C 66.163 167.706,66.502 168.664,66.575 169.493 C 66.731 171.272,67.146 172.400,67.643 172.400 C 67.839 172.400,68.000 173.109,68.000 173.976 C 68.000 174.843,68.192 175.672,68.427 175.817 C 68.662 175.962,68.758 176.333,68.640 176.640 C 68.516 176.963,68.674 177.200,69.013 177.200 C 69.431 177.200,69.600 177.660,69.600 178.800 C 69.600 179.680,69.780 180.400,70.000 180.400 C 70.220 180.400,70.379 180.535,70.353 180.700 C 70.228 181.490,70.451 181.740,70.800 181.200 C 71.084 180.761,71.189 181.055,71.194 182.300 C 71.197 183.235,71.211 184.135,71.224 184.300 C 71.237 184.465,71.574 184.721,71.974 184.869 C 72.602 185.101,73.033 186.244,73.273 188.317 C 73.306 188.602,73.539 188.755,73.791 188.659 C 74.082 188.547,74.280 189.088,74.334 190.142 C 74.389 191.194,74.696 192.032,75.174 192.435 C 75.588 192.784,75.989 193.504,76.064 194.035 C 76.219 195.132,76.854 196.005,77.300 195.734 C 77.465 195.635,77.600 196.262,77.600 197.130 C 77.600 198.370,77.771 198.751,78.400 198.916 C 78.926 199.054,79.200 199.462,79.200 200.109 C 79.200 200.650,79.554 201.542,79.987 202.092 C 80.420 202.643,80.664 203.203,80.530 203.337 C 80.396 203.471,80.514 203.855,80.792 204.190 C 81.070 204.526,81.152 204.800,80.973 204.800 C 80.794 204.800,80.982 205.045,81.390 205.343 C 81.799 205.642,82.197 206.317,82.274 206.843 C 82.352 207.370,82.682 208.000,83.007 208.244 C 83.333 208.488,83.600 209.066,83.600 209.529 C 83.600 209.991,83.969 210.713,84.421 211.134 C 84.873 211.554,85.271 212.326,85.307 212.849 C 85.376 213.879,86.152 214.915,86.552 214.514 C 86.689 214.378,86.800 214.842,86.800 215.546 C 86.800 216.299,87.040 216.917,87.385 217.050 C 87.706 217.173,88.084 217.636,88.225 218.078 C 88.365 218.521,88.910 219.515,89.434 220.289 C 89.959 221.062,90.290 221.855,90.169 222.050 C 90.048 222.246,90.230 222.513,90.572 222.645 C 90.915 222.776,91.096 223.045,90.974 223.242 C 90.852 223.439,90.943 223.600,91.176 223.600 C 91.409 223.600,91.600 223.948,91.600 224.373 C 91.600 224.798,91.960 225.260,92.400 225.400 C 93.124 225.630,93.357 226.355,93.316 228.247 C 93.311 228.492,93.588 228.672,93.931 228.647 C 94.358 228.615,94.665 229.137,94.901 230.300 C 95.091 231.235,95.468 232.000,95.738 232.000 C 96.009 232.000,96.260 232.402,96.297 232.894 C 96.334 233.386,96.557 233.852,96.792 233.931 C 97.027 234.009,97.476 234.687,97.790 235.437 C 98.103 236.186,98.528 236.800,98.735 236.800 C 98.942 236.800,99.229 237.430,99.374 238.200 C 99.531 239.038,99.870 239.600,100.218 239.600 C 100.619 239.600,100.800 240.046,100.800 241.037 C 100.800 242.138,100.987 242.524,101.600 242.684 C 102.292 242.865,102.629 243.748,102.447 244.900 C 102.421 245.065,102.591 245.200,102.824 245.200 C 103.057 245.200,103.136 245.380,103.000 245.600 C 102.864 245.820,103.033 246.000,103.376 246.000 C 103.719 246.000,104.000 246.320,104.000 246.711 C 104.000 247.102,104.360 247.730,104.800 248.107 C 105.240 248.484,105.600 249.244,105.600 249.796 C 105.600 250.431,105.825 250.800,106.213 250.800 C 106.549 250.800,106.926 251.115,107.050 251.500 C 107.681 253.463,108.119 254.373,108.362 254.224 C 108.509 254.132,108.667 254.540,108.712 255.129 C 108.757 255.718,109.155 256.499,109.597 256.864 C 110.084 257.267,110.400 258.014,110.400 258.764 C 110.400 259.733,110.573 260.000,111.200 260.000 C 111.750 260.000,112.000 260.267,112.000 260.853 C 112.000 261.322,112.365 262.296,112.811 263.018 C 113.258 263.741,113.596 264.482,113.564 264.666 C 113.396 265.621,113.663 266.400,114.157 266.400 C 114.768 266.400,115.326 267.473,114.995 268.009 C 114.880 268.194,115.133 268.588,115.555 268.884 C 115.978 269.180,116.414 269.991,116.523 270.686 C 116.769 272.248,117.140 272.884,117.628 272.583 C 117.832 272.456,118.000 272.799,118.000 273.344 C 118.000 274.747,118.394 275.600,119.043 275.600 C 119.349 275.600,119.615 276.005,119.633 276.500 C 119.711 278.596,119.911 279.346,120.509 279.783 C 120.857 280.038,121.200 280.956,121.271 281.823 C 121.359 282.901,121.590 283.400,122.000 283.400 C 122.397 283.400,122.639 283.874,122.715 284.800 C 122.779 285.570,122.942 286.470,123.079 286.800 C 123.215 287.130,123.298 287.535,123.264 287.700 C 123.229 287.865,123.470 288.000,123.800 288.000 C 124.219 288.000,124.400 288.422,124.400 289.400 C 124.400 290.170,124.400 290.890,124.400 291.000 C 124.400 291.110,124.760 291.560,125.200 292.000 C 125.701 292.501,126.000 293.333,126.000 294.226 C 126.000 295.852,126.656 297.336,127.220 296.988 C 127.435 296.855,127.600 297.424,127.600 298.296 C 127.600 299.145,127.825 300.082,128.100 300.379 C 128.506 300.816,128.487 300.863,128.000 300.628 C 127.670 300.469,127.778 300.675,128.241 301.086 C 128.825 301.605,129.145 302.482,129.286 303.959 C 129.399 305.128,129.715 306.224,129.989 306.393 C 130.263 306.563,130.581 307.533,130.696 308.551 C 130.825 309.701,131.102 310.400,131.427 310.400 C 131.715 310.400,131.956 310.715,131.964 311.100 C 132.012 313.635,132.456 315.800,132.991 316.099 C 133.407 316.332,133.600 317.059,133.600 318.393 C 133.600 319.995,133.744 320.392,134.400 320.600 C 135.008 320.793,135.212 321.231,135.250 322.427 C 135.278 323.292,135.337 324.135,135.383 324.300 C 136.043 326.700,136.122 326.850,136.447 326.338 C 136.675 325.978,136.801 326.264,136.827 327.200 C 136.903 329.903,137.385 331.827,137.953 331.700 C 138.243 331.635,138.400 332.432,138.400 333.973 C 138.400 335.995,138.518 336.384,139.200 336.600 C 139.946 336.837,140.303 338.598,140.030 340.700 C 139.994 340.975,140.153 341.200,140.382 341.200 C 140.612 341.200,140.800 341.470,140.800 341.800 C 140.800 342.130,140.958 342.400,141.150 342.400 C 141.343 342.400,141.584 343.396,141.685 344.614 C 141.786 345.832,142.104 347.047,142.393 347.314 C 142.812 347.703,142.854 347.680,142.600 347.200 C 142.377 346.779,142.412 346.719,142.718 347.000 C 142.958 347.220,143.197 348.343,143.248 349.496 C 143.319 351.062,143.514 351.646,144.023 351.807 C 144.523 351.966,144.752 352.612,144.887 354.248 C 144.989 355.472,145.290 356.608,145.556 356.773 C 145.822 356.937,146.052 357.506,146.066 358.036 C 146.093 359.039,146.786 360.840,147.289 361.217 C 147.586 361.439,147.917 362.841,147.970 364.100 C 147.987 364.485,148.270 364.800,148.600 364.800 C 148.930 364.800,149.222 365.070,149.250 365.400 C 149.278 365.730,149.345 366.180,149.400 366.400 C 149.455 366.620,149.523 367.250,149.550 367.800 C 149.578 368.368,149.816 368.757,150.100 368.700 C 150.404 368.639,150.651 369.141,150.732 369.985 C 150.804 370.746,151.177 371.589,151.560 371.857 C 151.943 372.126,152.478 373.083,152.748 373.984 C 153.018 374.886,153.410 375.517,153.620 375.388 C 153.829 375.259,154.000 375.607,154.000 376.162 C 154.000 376.762,154.324 377.345,154.800 377.600 C 155.240 377.835,155.600 378.380,155.600 378.811 C 155.600 379.241,155.960 379.818,156.400 380.093 C 156.840 380.368,157.200 380.909,157.200 381.296 C 157.200 381.683,157.560 382.360,158.000 382.800 C 158.440 383.240,158.800 383.858,158.800 384.173 C 158.800 384.488,159.151 384.857,159.580 384.994 C 160.008 385.130,160.471 385.594,160.608 386.026 C 160.745 386.458,161.026 386.707,161.232 386.580 C 161.438 386.453,161.740 386.678,161.903 387.081 C 162.308 388.078,166.210 391.657,166.537 391.329 C 166.682 391.185,166.800 391.345,166.800 391.685 C 166.800 392.025,167.340 392.527,168.000 392.800 C 168.660 393.073,169.200 393.545,169.200 393.849 C 169.200 394.172,169.619 394.400,170.213 394.400 C 170.769 394.400,171.324 394.659,171.446 394.976 C 171.567 395.292,172.237 395.676,172.933 395.828 C 173.630 395.980,174.629 396.441,175.154 396.852 C 175.705 397.284,176.750 397.600,177.627 397.600 C 178.724 397.600,179.208 397.795,179.369 398.302 C 179.541 398.843,180.119 399.032,181.896 399.128 C 183.163 399.196,184.260 399.420,184.333 399.626 C 184.521 400.152,216.000 400.126,216.000 399.600 C 216.000 399.380,216.933 399.200,218.074 399.200 C 219.578 399.200,220.376 398.986,220.977 398.422 C 221.473 397.955,222.484 397.604,223.500 397.544 C 224.727 397.472,225.259 397.244,225.425 396.722 C 225.589 396.206,226.056 396.000,227.064 396.000 C 228.138 396.000,228.525 395.809,228.684 395.200 C 228.840 394.606,229.230 394.400,230.202 394.400 C 231.184 394.400,231.497 394.232,231.456 393.728 C 231.422 393.324,231.785 392.961,232.363 392.818 C 232.893 392.688,233.440 392.257,233.579 391.861 C 233.718 391.465,233.914 391.184,234.016 391.238 C 234.298 391.386,237.568 389.044,237.585 388.681 C 237.593 388.505,238.050 387.945,238.600 387.435 C 239.150 386.925,239.600 386.373,239.600 386.207 C 239.600 386.042,240.275 385.240,241.100 384.425 C 241.925 383.611,243.050 382.057,243.600 380.972 C 244.662 378.878,245.159 378.327,245.691 378.656 C 245.872 378.768,245.994 378.711,245.963 378.530 C 245.740 377.248,246.074 375.600,246.557 375.600 C 247.205 375.600,247.600 374.747,247.600 373.350 C 247.600 372.634,247.791 372.397,248.300 372.482 C 248.835 372.572,249.031 372.275,249.132 371.215 C 249.204 370.454,249.569 369.617,249.944 369.354 C 250.318 369.092,250.667 368.275,250.720 367.539 C 250.773 366.803,251.097 365.990,251.439 365.734 C 252.091 365.244,252.319 364.511,252.369 362.727 C 252.390 362.022,252.674 361.567,253.200 361.400 C 253.843 361.196,254.000 360.795,254.000 359.356 C 254.000 358.144,254.248 357.300,254.769 356.741 C 255.192 356.287,255.470 355.565,255.388 355.136 C 255.231 354.322,255.929 352.382,256.534 351.950 C 256.726 351.813,256.947 350.865,257.023 349.843 C 257.172 347.852,257.469 347.072,257.963 347.377 C 258.132 347.481,258.305 346.449,258.347 345.083 C 258.406 343.180,258.605 342.447,259.200 341.945 C 259.778 341.459,259.996 340.715,260.050 339.045 C 260.111 337.178,260.244 336.800,260.843 336.800 C 261.445 336.800,261.581 336.396,261.681 334.300 C 261.769 332.444,261.949 331.800,262.377 331.800 C 262.796 331.800,262.997 331.154,263.114 329.434 C 263.227 327.752,263.491 326.885,264.025 326.434 C 264.593 325.955,264.795 325.189,264.854 323.299 C 264.896 321.923,265.020 320.887,265.129 320.996 C 265.725 321.592,266.400 320.082,266.400 318.151 C 266.400 316.586,266.551 316.000,266.953 316.000 C 267.591 316.000,267.987 314.796,267.995 312.831 C 267.998 312.079,268.291 311.141,268.647 310.748 C 269.003 310.354,269.391 309.170,269.510 308.116 C 269.628 307.062,269.961 306.020,270.249 305.800 C 270.538 305.580,270.848 304.770,270.940 304.000 C 271.124 302.443,271.584 301.108,272.045 300.793 C 272.211 300.679,272.436 299.869,272.543 298.993 C 272.796 296.943,273.191 295.947,273.642 296.226 C 273.839 296.348,274.014 296.212,274.031 295.924 C 274.047 295.636,274.136 295.040,274.227 294.600 C 274.318 294.160,274.432 293.408,274.481 292.928 C 274.530 292.449,274.757 292.089,274.985 292.128 C 275.221 292.169,275.452 291.204,275.520 289.889 C 275.586 288.618,275.791 287.671,275.974 287.784 C 276.381 288.035,277.172 286.194,277.286 284.728 C 277.332 284.139,277.467 283.665,277.585 283.676 C 278.554 283.762,278.800 283.441,278.800 282.089 C 278.800 281.073,279.062 280.353,279.600 279.893 C 280.040 279.516,280.400 278.750,280.400 278.191 C 280.400 277.632,280.680 277.067,281.023 276.936 C 281.366 276.804,281.551 276.450,281.436 276.148 C 281.320 275.847,281.399 275.600,281.613 275.600 C 281.826 275.600,282.000 275.186,282.000 274.680 C 282.000 274.174,282.225 273.518,282.500 273.221 C 282.904 272.786,282.893 272.744,282.438 273.003 C 282.062 273.218,281.971 273.171,282.162 272.862 C 282.319 272.608,282.707 272.400,283.024 272.400 C 283.414 272.400,283.600 271.956,283.600 271.027 C 283.600 270.005,283.805 269.589,284.400 269.400 C 285.026 269.201,285.200 268.795,285.200 267.530 C 285.200 266.258,285.328 265.963,285.800 266.145 C 286.130 266.271,286.421 266.246,286.446 266.087 C 286.471 265.929,286.553 265.263,286.629 264.607 C 286.704 263.951,287.014 263.231,287.317 263.007 C 287.620 262.783,287.999 262.071,288.160 261.425 C 288.321 260.778,288.756 260.028,289.127 259.757 C 289.798 259.266,289.855 259.116,289.950 257.600 C 289.978 257.160,290.270 256.800,290.600 256.800 C 290.930 256.800,291.200 256.462,291.200 256.049 C 291.200 255.636,291.469 255.075,291.797 254.802 C 292.126 254.530,292.582 253.608,292.813 252.753 C 293.056 251.848,293.475 251.200,293.815 251.200 C 294.196 251.200,294.400 250.789,294.400 250.024 C 294.400 249.377,294.608 248.719,294.862 248.562 C 295.175 248.368,295.215 248.457,294.985 248.838 C 294.697 249.317,294.747 249.319,295.323 248.851 C 295.695 248.549,296.000 247.796,296.000 247.178 C 296.000 246.436,296.251 245.974,296.739 245.819 C 297.236 245.661,297.490 245.179,297.514 244.348 C 297.536 243.581,297.862 242.891,298.375 242.533 C 298.877 242.181,299.200 241.513,299.200 240.824 C 299.200 240.030,299.438 239.631,300.000 239.484 C 300.564 239.337,300.800 238.938,300.800 238.134 C 300.800 237.426,301.104 236.803,301.600 236.493 C 302.040 236.218,302.400 235.635,302.400 235.197 C 302.400 234.758,302.550 234.400,302.732 234.400 C 302.915 234.400,303.320 233.905,303.632 233.300 C 303.945 232.695,304.425 231.962,304.699 231.672 C 304.974 231.382,305.315 230.681,305.457 230.114 C 305.599 229.548,306.050 228.750,306.458 228.342 C 306.866 227.934,307.200 227.169,307.200 226.643 C 307.200 226.116,307.470 225.582,307.800 225.455 C 308.147 225.322,308.400 224.724,308.400 224.040 C 308.400 223.230,308.639 222.778,309.152 222.615 C 309.576 222.481,310.008 221.858,310.142 221.188 C 310.281 220.494,310.634 220.000,310.990 220.000 C 311.398 220.000,311.600 219.611,311.600 218.823 C 311.600 218.117,311.906 217.431,312.365 217.109 C 312.786 216.815,313.191 216.040,313.265 215.387 C 313.348 214.661,313.606 214.243,313.930 214.310 C 314.221 214.370,314.353 214.248,314.223 214.038 C 314.093 213.827,314.170 213.542,314.393 213.404 C 314.617 213.266,314.800 212.810,314.800 212.390 C 314.800 211.971,315.160 211.435,315.600 211.200 C 316.117 210.923,316.400 210.362,316.400 209.615 C 316.400 208.832,316.626 208.415,317.099 208.324 C 317.484 208.250,317.816 207.922,317.838 207.595 C 317.860 207.268,317.906 206.607,317.939 206.127 C 317.973 205.647,318.321 205.152,318.713 205.028 C 319.123 204.897,319.462 204.353,319.513 203.745 C 319.561 203.164,319.878 202.485,320.218 202.237 C 320.735 201.858,320.999 200.991,321.172 199.100 C 321.188 198.935,321.425 198.845,321.700 198.900 C 321.995 198.959,322.355 198.302,322.577 197.300 C 322.786 196.359,323.187 195.600,323.477 195.600 C 323.974 195.600,324.184 194.848,324.020 193.657 C 323.979 193.358,324.290 192.872,324.711 192.577 C 325.161 192.262,325.511 191.496,325.560 190.720 C 325.697 188.532,325.721 188.428,326.047 188.629 C 326.492 188.904,327.200 187.438,327.200 186.240 C 327.200 185.638,327.524 185.055,328.000 184.800 C 328.634 184.461,328.800 183.962,328.800 182.398 C 328.800 180.893,328.930 180.475,329.347 180.635 C 329.951 180.867,330.386 179.713,330.395 177.857 C 330.399 176.990,330.550 176.772,331.021 176.953 C 331.377 177.089,331.537 177.022,331.397 176.795 C 331.263 176.578,331.343 176.400,331.576 176.400 C 331.818 176.400,332.000 175.541,332.000 174.400 C 332.000 172.974,332.157 172.400,332.548 172.400 C 333.076 172.400,333.586 170.494,333.596 168.483 C 333.598 167.979,333.928 167.215,334.328 166.785 C 334.806 166.272,335.089 165.279,335.151 163.901 C 335.202 162.746,335.404 161.743,335.600 161.674 C 335.795 161.605,335.865 161.313,335.755 161.026 C 335.644 160.738,335.795 160.411,336.090 160.297 C 336.457 160.157,336.658 159.168,336.727 157.170 C 336.782 155.563,337.041 153.992,337.301 153.678 C 338.374 152.386,338.614 116.773,337.546 117.433 C 337.070 117.727,336.841 116.391,336.733 112.700 C 336.677 110.775,336.489 109.200,336.316 109.200 C 336.142 109.200,336.045 108.975,336.100 108.700 C 336.155 108.425,336.007 108.234,335.770 108.277 C 335.522 108.321,335.303 107.529,335.252 106.398 C 335.128 103.692,334.919 102.794,334.236 102.039 C 333.912 101.681,333.608 100.491,333.561 99.394 C 333.467 97.196,332.967 95.850,332.380 96.212 C 332.159 96.349,332.000 95.600,332.000 94.424 C 332.000 93.266,331.819 92.400,331.576 92.400 C 331.343 92.400,331.264 92.220,331.400 92.000 C 331.536 91.780,331.367 91.600,331.024 91.600 C 330.565 91.600,330.400 91.186,330.400 90.033 C 330.400 88.078,330.077 87.200,329.357 87.200 C 328.990 87.200,328.800 86.735,328.800 85.833 C 328.800 84.071,328.455 83.200,327.757 83.200 C 327.255 83.200,326.983 81.953,327.169 80.506 C 327.205 80.225,326.978 80.110,326.640 80.240 C 326.067 80.460,325.294 78.156,325.530 76.930 C 325.580 76.672,325.256 76.345,324.811 76.203 C 324.194 76.008,324.000 75.601,324.000 74.506 C 324.000 73.715,323.882 73.185,323.737 73.330 C 323.282 73.785,322.400 72.744,322.400 71.751 C 322.400 71.228,322.255 70.800,322.077 70.800 C 321.899 70.800,321.435 70.078,321.046 69.196 C 320.657 68.313,320.202 67.675,320.036 67.778 C 319.869 67.881,319.726 67.748,319.718 67.482 C 319.683 66.419,319.357 65.785,318.476 65.062 C 317.967 64.645,317.646 64.058,317.761 63.757 C 317.877 63.456,317.761 63.252,317.505 63.305 C 317.249 63.357,316.827 62.770,316.568 62.000 C 316.309 61.230,315.805 60.542,315.448 60.471 C 315.092 60.400,314.800 59.989,314.800 59.558 C 314.800 59.127,314.541 58.676,314.224 58.554 C 313.908 58.433,313.529 57.786,313.382 57.118 C 313.226 56.408,312.800 55.821,312.358 55.705 C 311.941 55.596,311.600 55.264,311.600 54.967 C 311.600 54.671,311.240 54.235,310.800 54.000 C 310.360 53.765,310.000 53.284,310.000 52.932 C 310.000 52.580,309.595 51.876,309.100 51.368 C 307.187 49.405,306.800 48.917,306.800 48.466 C 306.800 48.210,306.542 48.000,306.227 48.000 C 305.912 48.000,305.540 47.640,305.400 47.200 C 305.260 46.760,304.973 46.400,304.760 46.400 C 304.548 46.400,304.264 46.085,304.128 45.700 C 303.808 44.793,302.030 43.200,301.338 43.200 C 301.042 43.200,300.800 42.918,300.800 42.574 C 300.800 42.230,300.269 41.501,299.620 40.955 C 298.844 40.302,298.525 39.739,298.689 39.312 C 298.874 38.830,298.770 38.726,298.288 38.911 C 297.861 39.075,297.298 38.756,296.645 37.980 C 296.099 37.331,295.370 36.800,295.026 36.800 C 294.682 36.800,294.400 36.558,294.400 36.262 C 294.400 35.543,292.703 33.600,292.075 33.600 C 291.800 33.600,291.474 33.337,291.350 33.015 C 291.227 32.694,290.783 32.321,290.363 32.188 C 289.943 32.055,289.600 31.709,289.600 31.420 C 289.600 31.130,289.240 30.799,288.800 30.684 C 288.360 30.569,288.000 30.188,288.000 29.837 C 288.000 29.487,287.726 29.200,287.391 29.200 C 286.587 29.200,283.719 27.288,283.443 26.567 C 283.323 26.255,282.970 26.000,282.659 26.000 C 282.348 26.000,282.004 25.659,281.895 25.242 C 281.779 24.800,281.192 24.374,280.482 24.218 C 279.814 24.071,279.167 23.692,279.046 23.376 C 278.924 23.059,278.473 22.800,278.042 22.800 C 277.611 22.800,277.200 22.508,277.129 22.152 C 277.058 21.795,276.370 21.291,275.600 21.032 C 274.830 20.773,274.243 20.351,274.295 20.095 C 274.348 19.839,274.144 19.723,273.843 19.839 C 273.542 19.954,272.955 19.633,272.538 19.124 C 271.815 18.243,271.181 17.917,270.118 17.882 C 269.852 17.874,269.727 17.719,269.838 17.538 C 269.950 17.358,269.312 16.918,268.421 16.562 C 267.529 16.205,266.800 15.753,266.800 15.557 C 266.800 15.360,266.372 15.200,265.849 15.200 C 264.856 15.200,263.815 14.318,264.270 13.863 C 264.415 13.718,263.963 13.600,263.267 13.600 C 262.533 13.600,261.663 13.263,261.200 12.800 C 260.760 12.360,259.956 12.000,259.414 12.000 C 258.838 12.000,258.250 11.668,258.000 11.200 C 257.673 10.588,257.162 10.400,255.833 10.400 C 254.430 10.400,254.053 10.245,253.884 9.600 C 253.718 8.964,253.338 8.800,252.037 8.800 C 250.904 8.800,250.400 8.628,250.400 8.243 C 250.400 7.523,249.522 7.200,247.567 7.200 C 246.500 7.200,246.000 7.024,246.000 6.647 C 246.000 5.991,244.787 5.613,242.663 5.605 C 241.514 5.601,241.077 5.416,240.934 4.870 C 240.785 4.300,240.293 4.120,238.677 4.046 C 237.448 3.990,236.319 3.689,235.894 3.304 C 235.500 2.947,234.598 2.617,233.889 2.571 C 229.633 2.290,229.200 2.213,229.200 1.734 C 229.200 1.424,228.940 1.325,228.534 1.481 C 228.168 1.621,227.971 1.570,228.095 1.368 C 228.225 1.158,226.754 0.945,224.661 0.872 C 222.647 0.802,220.940 0.577,220.867 0.372 C 220.687 -0.128,179.712 -0.127,179.533 0.373 M197.000 26.000 C 197.136 26.220,197.462 26.397,197.724 26.394 C 198.014 26.390,197.965 26.229,197.600 25.981 C 197.176 25.693,198.018 25.607,200.460 25.687 C 202.364 25.749,203.838 25.935,203.737 26.100 C 203.636 26.265,203.968 26.403,204.476 26.406 C 205.145 26.411,205.251 26.507,204.858 26.755 C 204.499 26.983,204.767 27.087,205.658 27.065 C 213.076 26.878,218.763 27.232,218.519 27.866 C 218.355 28.294,218.421 28.434,218.704 28.259 C 218.947 28.109,219.258 28.170,219.396 28.393 C 219.534 28.617,221.077 28.800,222.824 28.800 C 225.261 28.800,226.000 28.929,226.000 29.353 C 226.000 30.057,227.239 30.388,229.900 30.395 C 231.426 30.399,232.000 30.552,232.000 30.957 C 232.000 31.687,232.882 32.000,234.944 32.000 C 236.127 32.000,236.824 32.236,237.307 32.800 C 237.734 33.299,238.487 33.600,239.307 33.600 C 240.127 33.600,240.880 33.901,241.307 34.400 C 241.751 34.918,242.487 35.200,243.396 35.200 C 244.358 35.200,244.800 35.383,244.800 35.782 C 244.800 36.138,245.383 36.473,246.300 36.644 C 247.125 36.799,247.998 37.195,248.240 37.525 C 248.482 37.855,249.022 38.151,249.440 38.184 C 249.858 38.216,250.722 38.586,251.360 39.007 C 251.998 39.427,252.803 39.812,253.149 39.863 C 253.495 39.914,253.963 40.202,254.189 40.503 C 254.668 41.140,256.524 42.224,258.103 42.788 C 258.710 43.005,259.160 43.403,259.103 43.673 C 258.998 44.174,259.245 44.262,261.000 44.350 C 261.717 44.386,262.000 44.627,262.000 45.200 C 262.000 45.733,262.267 46.000,262.800 46.000 C 263.258 46.000,263.600 46.267,263.600 46.624 C 263.600 46.967,263.780 47.136,264.000 47.000 C 264.220 46.864,264.400 46.943,264.400 47.176 C 264.400 47.409,264.664 47.600,264.986 47.600 C 265.308 47.600,265.765 47.960,266.000 48.400 C 266.235 48.840,266.773 49.200,267.194 49.200 C 267.616 49.200,268.104 49.425,268.280 49.701 C 268.456 49.976,269.262 50.769,270.071 51.463 C 270.880 52.157,271.435 52.832,271.304 52.962 C 271.078 53.189,271.832 53.359,272.530 53.237 C 272.711 53.206,272.753 53.352,272.624 53.561 C 272.494 53.771,272.754 54.058,273.200 54.200 C 273.647 54.342,273.891 54.652,273.744 54.891 C 273.597 55.129,273.641 55.222,273.843 55.097 C 274.328 54.797,275.968 55.688,275.874 56.200 C 275.833 56.420,276.205 56.778,276.700 56.995 C 277.195 57.212,277.600 57.519,277.600 57.677 C 277.600 58.050,279.550 60.000,279.923 60.000 C 280.081 60.000,280.388 60.405,280.605 60.900 C 280.822 61.395,281.150 61.710,281.332 61.600 C 281.758 61.344,282.804 63.270,282.503 63.757 C 282.378 63.959,282.474 64.002,282.715 63.853 C 282.972 63.694,283.434 64.172,283.829 65.005 C 284.201 65.788,284.588 66.345,284.690 66.243 C 284.792 66.141,285.443 66.720,286.137 67.529 C 286.831 68.338,287.624 69.144,287.899 69.320 C 288.175 69.496,288.400 69.984,288.400 70.406 C 288.400 70.827,288.760 71.365,289.200 71.600 C 289.640 71.835,290.000 72.292,290.000 72.614 C 290.000 72.936,290.191 73.200,290.424 73.200 C 290.657 73.200,290.736 73.380,290.600 73.600 C 290.464 73.820,290.633 74.000,290.976 74.000 C 291.333 74.000,291.600 74.342,291.600 74.800 C 291.600 75.333,291.867 75.600,292.400 75.600 C 292.973 75.600,293.214 75.883,293.250 76.600 C 293.337 78.348,293.426 78.602,293.910 78.503 C 294.355 78.412,296.000 81.462,296.000 82.378 C 296.000 82.610,296.191 82.800,296.424 82.800 C 296.657 82.800,296.737 82.978,296.603 83.195 C 296.463 83.422,296.623 83.489,296.979 83.353 C 297.321 83.222,297.621 83.269,297.646 83.457 C 297.671 83.646,297.751 84.313,297.825 84.941 C 297.898 85.568,298.281 86.318,298.676 86.606 C 299.071 86.895,299.413 87.372,299.436 87.666 C 299.459 87.960,299.506 88.515,299.539 88.900 C 299.573 89.285,299.870 89.600,300.200 89.600 C 300.714 89.600,301.035 90.813,300.855 92.076 C 300.834 92.227,301.173 92.464,301.608 92.603 C 302.154 92.776,302.400 93.209,302.400 93.998 C 302.400 94.628,302.661 95.404,302.981 95.724 C 303.300 96.043,303.450 96.416,303.314 96.552 C 303.178 96.689,303.277 96.800,303.533 96.800 C 303.800 96.800,304.000 97.400,304.000 98.200 C 304.000 99.067,304.305 99.905,304.800 100.400 C 305.291 100.891,305.600 101.733,305.600 102.581 C 305.600 104.070,306.344 106.082,306.792 105.805 C 307.094 105.618,307.101 105.670,307.221 108.700 C 307.267 109.855,307.472 110.800,307.676 110.800 C 307.880 110.800,307.936 110.980,307.800 111.200 C 307.664 111.420,307.833 111.600,308.176 111.600 C 308.720 111.600,309.189 116.509,308.837 118.530 C 308.806 118.711,308.944 118.758,309.145 118.634 C 310.068 118.063,310.352 119.785,310.442 126.509 C 310.494 130.409,310.697 133.600,310.892 133.600 C 311.087 133.600,311.136 133.780,311.000 134.000 C 310.864 134.220,310.924 134.400,311.134 134.400 C 311.343 134.400,311.614 134.661,311.737 134.980 C 311.892 135.384,311.754 135.496,311.280 135.349 C 310.671 135.161,310.673 135.186,311.300 135.590 C 312.371 136.278,312.244 138.921,311.100 139.770 C 310.605 140.137,310.453 140.311,310.762 140.157 C 311.173 139.952,311.228 140.027,310.968 140.438 C 310.527 141.134,310.511 141.335,310.450 147.043 C 310.409 150.828,310.297 151.646,309.844 151.472 C 309.189 151.221,308.800 152.753,308.800 155.588 C 308.800 156.968,308.585 157.671,308.000 158.200 C 307.383 158.758,307.199 159.437,307.194 161.162 C 307.190 162.755,307.076 163.227,306.800 162.800 C 306.469 162.287,306.411 162.302,306.406 162.900 C 306.403 163.285,306.212 163.600,305.982 163.600 C 305.753 163.600,305.594 163.825,305.630 164.100 C 305.821 165.573,305.550 167.189,305.127 167.100 C 304.846 167.041,304.478 167.883,304.224 169.167 C 303.988 170.360,303.576 171.408,303.307 171.498 C 303.039 171.587,302.700 172.562,302.554 173.663 C 302.379 174.981,302.173 175.484,301.950 175.133 C 301.709 174.753,301.610 174.866,301.606 175.524 C 301.603 176.036,301.422 176.337,301.200 176.200 C 300.958 176.051,300.800 176.596,300.800 177.576 C 300.800 178.686,300.626 179.200,300.251 179.200 C 299.923 179.200,299.603 179.823,299.455 180.748 C 299.319 181.599,298.936 182.522,298.604 182.797 C 298.272 183.073,298.000 183.743,298.000 184.286 C 298.000 184.900,297.728 185.346,297.283 185.462 C 296.889 185.565,296.543 185.955,296.515 186.329 C 296.422 187.569,296.205 188.193,295.725 188.599 C 295.464 188.819,295.093 189.630,294.900 190.400 C 294.703 191.187,294.298 191.800,293.975 191.800 C 293.387 191.800,293.337 191.949,293.250 193.956 C 293.214 194.794,293.008 195.096,292.500 195.056 C 291.978 195.014,291.766 195.356,291.667 196.398 C 291.528 197.865,290.922 198.923,290.405 198.603 C 290.237 198.499,290.100 198.866,290.100 199.417 C 290.100 199.968,289.706 200.761,289.224 201.179 C 288.742 201.597,288.359 202.043,288.374 202.170 C 288.528 203.525,288.310 204.400,287.818 204.400 C 287.470 204.400,287.131 204.962,286.974 205.800 C 286.828 206.575,286.471 207.200,286.174 207.200 C 285.873 207.200,285.517 207.838,285.364 208.652 C 285.193 209.565,284.823 210.173,284.368 210.292 C 283.902 210.414,283.601 210.930,283.522 211.741 C 283.437 212.616,283.217 212.959,282.800 212.867 C 282.470 212.793,282.328 212.861,282.484 213.017 C 282.785 213.318,281.741 215.637,281.124 216.036 C 280.924 216.166,280.731 216.661,280.695 217.136 C 280.659 217.611,280.308 218.102,279.915 218.227 C 279.411 218.387,279.200 218.860,279.200 219.827 C 279.200 220.776,279.016 221.200,278.605 221.200 C 278.220 221.200,277.919 221.765,277.754 222.800 C 277.526 224.224,277.227 224.576,276.342 224.461 C 276.200 224.443,275.970 225.034,275.831 225.775 C 275.692 226.516,275.313 227.224,274.989 227.349 C 274.665 227.473,274.400 228.041,274.400 228.611 C 274.400 229.269,274.238 229.547,273.955 229.372 C 273.400 229.029,272.814 229.910,272.806 231.100 C 272.803 231.595,272.440 232.360,272.000 232.800 C 271.560 233.240,271.200 234.050,271.200 234.600 C 271.200 235.188,270.970 235.600,270.643 235.600 C 270.034 235.600,269.600 236.440,269.600 237.619 C 269.600 238.033,269.240 238.565,268.800 238.800 C 268.276 239.080,268.000 239.638,268.000 240.414 C 268.000 241.197,267.798 241.600,267.405 241.600 C 267.020 241.600,266.719 242.165,266.554 243.200 C 266.411 244.089,266.073 244.800,265.792 244.800 C 265.207 244.800,264.690 245.899,265.022 246.436 C 265.146 246.636,264.995 246.800,264.688 246.800 C 264.076 246.800,263.067 248.661,263.393 249.188 C 263.504 249.369,263.315 249.624,262.972 249.755 C 262.630 249.887,262.461 250.176,262.598 250.397 C 262.735 250.619,262.657 250.800,262.424 250.800 C 262.191 250.800,261.979 251.565,261.954 252.500 C 261.928 253.435,261.821 253.867,261.717 253.460 C 261.485 252.561,260.400 254.362,260.400 255.646 C 260.400 256.087,260.109 256.412,259.700 256.428 C 259.093 256.452,259.104 256.497,259.779 256.761 C 260.522 257.052,260.517 257.076,259.679 257.295 C 259.033 257.464,258.800 257.827,258.800 258.666 C 258.800 259.374,258.496 259.997,258.000 260.307 C 257.560 260.582,257.200 261.075,257.200 261.403 C 257.200 261.929,250.433 262.000,200.000 262.000 C 143.552 262.000,142.800 261.990,142.800 261.220 C 142.800 260.791,142.521 260.284,142.181 260.093 C 141.840 259.902,141.492 259.218,141.408 258.573 C 141.324 257.928,141.221 257.310,141.180 257.200 C 141.139 257.090,141.142 256.820,141.186 256.600 C 141.230 256.380,141.133 256.334,140.969 256.497 C 140.587 256.880,139.479 255.319,139.783 254.827 C 139.910 254.623,139.827 254.340,139.600 254.200 C 139.373 254.060,139.308 253.749,139.455 253.511 C 139.603 253.272,139.543 253.188,139.322 253.325 C 138.870 253.604,138.066 252.259,137.878 250.910 C 137.810 250.421,137.600 249.881,137.413 249.710 C 137.225 249.540,137.219 249.670,137.400 250.000 C 137.586 250.340,137.577 250.462,137.378 250.281 C 137.185 250.105,136.833 249.385,136.594 248.681 C 136.356 247.976,135.945 247.445,135.680 247.500 C 135.416 247.555,135.200 247.255,135.200 246.833 C 135.200 245.641,134.769 244.800,134.157 244.800 C 133.805 244.800,133.600 244.359,133.600 243.600 C 133.600 242.940,133.589 242.265,133.576 242.100 C 133.563 241.935,133.203 241.671,132.776 241.513 C 132.294 241.335,132.000 240.850,132.000 240.236 C 132.000 239.691,131.667 239.010,131.261 238.723 C 130.854 238.435,130.396 237.525,130.243 236.700 C 130.072 235.782,129.738 235.200,129.382 235.200 C 128.882 235.200,128.560 233.921,128.753 232.700 C 128.779 232.535,128.665 232.421,128.500 232.447 C 127.580 232.593,127.200 232.296,127.200 231.433 C 127.200 230.086,126.806 229.200,126.207 229.200 C 125.928 229.200,125.596 228.681,125.469 228.046 C 125.187 226.634,123.406 223.927,123.016 224.317 C 122.861 224.473,122.788 224.420,122.854 224.200 C 123.044 223.568,122.085 221.200,121.639 221.200 C 121.417 221.200,121.115 220.556,120.968 219.768 C 120.820 218.981,120.457 218.243,120.160 218.129 C 119.864 218.016,119.507 217.310,119.366 216.561 C 119.221 215.789,118.871 215.200,118.555 215.200 C 118.250 215.200,118.000 214.906,118.000 214.547 C 118.000 214.188,117.685 213.603,117.300 213.247 C 116.915 212.891,116.538 212.240,116.462 211.800 C 116.282 210.754,115.605 209.950,115.145 210.234 C 114.944 210.358,114.806 210.311,114.837 210.130 C 115.081 208.729,114.716 207.503,114.000 207.316 C 113.444 207.170,113.200 206.770,113.200 206.002 C 113.200 205.350,112.874 204.673,112.404 204.349 C 111.939 204.027,111.573 203.273,111.521 202.528 C 111.473 201.828,111.291 201.344,111.117 201.451 C 110.943 201.559,110.800 201.446,110.800 201.200 C 110.800 200.954,110.620 200.864,110.400 201.000 C 110.176 201.139,110.000 200.825,110.000 200.286 C 110.000 199.757,109.640 198.998,109.200 198.600 C 108.757 198.199,108.400 197.368,108.400 196.738 C 108.400 195.993,108.193 195.600,107.800 195.600 C 107.470 195.600,107.178 195.420,107.150 195.200 C 107.123 194.980,107.063 194.665,107.017 194.500 C 106.461 192.479,106.270 192.000,106.021 192.000 C 105.860 192.000,105.492 191.286,105.204 190.413 C 104.916 189.541,104.549 188.908,104.389 189.007 C 104.068 189.205,103.444 186.929,103.577 186.046 C 103.630 185.693,103.431 185.579,103.030 185.733 C 102.540 185.921,102.400 185.699,102.400 184.734 C 102.400 183.985,102.078 183.215,101.587 182.789 C 101.140 182.401,100.735 181.523,100.687 180.838 C 100.632 180.056,100.339 179.509,99.900 179.369 C 99.413 179.214,99.200 178.729,99.200 177.773 C 99.200 177.018,99.009 176.400,98.776 176.400 C 98.543 176.400,98.483 176.189,98.642 175.932 C 98.830 175.627,98.721 175.545,98.329 175.695 C 97.853 175.878,97.713 175.546,97.658 174.105 C 97.610 172.848,97.343 172.071,96.795 171.595 C 96.358 171.216,96.000 170.416,96.000 169.816 C 96.000 169.217,95.640 168.269,95.200 167.709 C 94.718 167.096,94.400 166.086,94.400 165.169 C 94.400 164.145,94.158 163.474,93.663 163.123 C 93.151 162.759,92.853 161.881,92.686 160.237 C 92.553 158.938,92.241 157.749,91.992 157.595 C 91.743 157.441,91.480 156.434,91.409 155.357 C 91.338 154.281,91.262 153.175,91.240 152.900 C 91.218 152.625,90.960 152.400,90.667 152.400 C 90.373 152.400,90.122 152.175,90.108 151.900 C 90.093 151.625,89.961 149.330,89.814 146.800 C 89.667 144.270,89.532 141.930,89.514 141.600 C 89.497 141.270,89.239 140.645,88.941 140.211 C 88.301 139.278,88.207 135.600,88.824 135.600 C 89.067 135.600,89.111 135.387,88.926 135.100 C 88.442 134.345,88.501 132.800,89.015 132.800 C 89.263 132.800,89.483 132.575,89.503 132.300 C 89.523 132.025,89.628 129.100,89.737 125.800 C 89.934 119.839,90.178 118.216,90.818 118.611 C 91.001 118.724,91.139 118.498,91.124 118.109 C 91.040 115.936,91.748 110.914,92.211 110.395 C 92.508 110.063,92.792 108.775,92.842 107.534 C 92.911 105.843,93.068 105.328,93.467 105.481 C 93.760 105.594,94.023 105.486,94.050 105.243 C 94.078 104.999,94.145 104.620,94.200 104.400 C 94.255 104.180,94.323 103.263,94.350 102.363 C 94.389 101.085,94.576 100.679,95.200 100.516 C 95.806 100.357,96.000 99.970,96.000 98.916 C 96.000 98.132,96.349 97.083,96.800 96.509 C 97.240 95.950,97.600 94.886,97.600 94.146 C 97.600 93.067,97.758 92.800,98.400 92.800 C 98.840 92.800,99.179 92.665,99.153 92.500 C 98.936 91.126,99.287 89.641,99.856 89.529 C 100.244 89.453,100.562 88.929,100.634 88.249 C 100.701 87.616,101.110 86.716,101.543 86.249 C 101.976 85.782,102.395 84.950,102.474 84.400 C 102.554 83.850,102.826 83.441,103.080 83.490 C 103.333 83.540,103.658 83.045,103.802 82.390 C 103.946 81.736,104.274 81.197,104.532 81.194 C 104.802 81.190,104.746 81.024,104.400 80.800 C 104.038 80.566,103.989 80.410,104.277 80.406 C 104.540 80.403,105.068 79.870,105.451 79.222 C 105.834 78.574,106.294 78.134,106.473 78.245 C 106.653 78.356,106.800 78.091,106.800 77.656 C 106.800 76.442,107.227 75.600,107.843 75.600 C 108.149 75.600,108.400 75.252,108.400 74.827 C 108.400 74.402,108.760 73.940,109.200 73.800 C 109.704 73.640,110.000 73.195,110.000 72.597 C 110.000 72.074,110.208 71.519,110.462 71.362 C 110.765 71.174,110.824 71.269,110.632 71.638 C 110.472 71.947,110.624 71.851,110.970 71.424 C 111.317 70.996,111.600 70.424,111.600 70.151 C 111.600 69.877,111.941 69.546,112.357 69.414 C 112.773 69.282,113.206 68.819,113.319 68.387 C 113.433 67.954,113.812 67.600,114.163 67.600 C 114.539 67.600,114.800 67.263,114.800 66.776 C 114.800 66.323,114.960 66.051,115.155 66.172 C 115.557 66.421,116.507 65.441,116.181 65.114 C 116.064 64.997,116.870 63.952,117.971 62.791 C 119.072 61.631,119.862 60.500,119.725 60.279 C 119.584 60.051,119.676 60.000,119.936 60.161 C 120.211 60.331,120.584 60.033,120.863 59.423 C 121.119 58.860,121.563 58.400,121.850 58.400 C 122.137 58.400,122.565 58.040,122.800 57.600 C 123.035 57.160,123.488 56.800,123.805 56.800 C 124.122 56.800,124.675 56.352,125.035 55.803 C 125.394 55.255,125.876 54.923,126.106 55.065 C 126.345 55.213,126.405 55.131,126.246 54.874 C 126.076 54.600,126.533 54.188,127.413 53.820 C 128.207 53.488,128.747 53.038,128.612 52.820 C 128.478 52.602,128.825 52.309,129.384 52.168 C 129.943 52.028,130.400 51.657,130.400 51.344 C 130.400 51.031,130.749 50.645,131.176 50.487 C 131.603 50.329,131.952 50.020,131.953 49.800 C 131.953 49.580,132.368 49.298,132.876 49.173 C 133.460 49.030,133.757 48.699,133.682 48.273 C 133.603 47.818,133.838 47.600,134.409 47.600 C 135.543 47.600,136.879 46.852,136.588 46.380 C 136.458 46.171,136.740 46.000,137.214 46.000 C 137.738 46.000,138.157 45.687,138.284 45.200 C 138.419 44.682,138.830 44.400,139.447 44.400 C 139.971 44.400,140.400 44.209,140.400 43.976 C 140.400 43.743,140.580 43.664,140.800 43.800 C 141.020 43.936,141.200 43.767,141.200 43.424 C 141.200 43.067,141.542 42.800,142.000 42.800 C 142.483 42.800,142.813 42.523,142.832 42.100 C 142.849 41.715,142.946 41.600,143.046 41.845 C 143.279 42.408,146.000 41.243,146.000 40.580 C 146.000 40.331,146.701 39.916,147.559 39.660 C 148.416 39.403,149.220 38.924,149.346 38.596 C 149.479 38.249,150.082 38.000,150.787 38.000 C 151.548 38.000,152.000 37.796,152.000 37.451 C 152.000 37.120,152.635 36.801,153.600 36.646 C 154.519 36.499,155.200 36.168,155.200 35.868 C 155.200 35.552,156.029 35.199,157.300 34.973 C 158.455 34.768,159.365 34.405,159.322 34.167 C 159.242 33.717,159.313 33.698,161.554 33.559 C 162.489 33.501,162.967 33.247,163.100 32.738 C 163.245 32.184,163.673 32.000,164.814 32.000 C 166.670 32.000,167.600 31.674,167.600 31.024 C 167.600 30.754,167.825 30.524,168.100 30.512 C 171.808 30.352,172.695 30.194,173.400 29.568 C 173.980 29.053,174.971 28.835,177.000 28.776 C 178.857 28.721,180.204 28.452,181.000 27.977 C 182.001 27.378,183.307 27.241,188.889 27.147 C 192.568 27.085,195.358 26.894,195.089 26.723 C 194.793 26.535,195.073 26.407,195.800 26.400 C 196.723 26.391,196.861 26.298,196.400 26.000 C 196.039 25.767,195.990 25.610,196.276 25.606 C 196.538 25.603,196.864 25.780,197.000 26.000 M184.890 62.638 C 184.169 62.953,183.089 63.226,182.490 63.245 C 180.305 63.313,178.401 63.679,178.596 63.994 C 178.843 64.393,177.836 64.801,176.019 65.037 C 175.259 65.135,174.539 65.368,174.419 65.554 C 174.147 65.974,172.497 66.518,171.308 66.579 C 170.817 66.605,170.187 66.915,169.908 67.268 C 169.629 67.622,168.733 68.028,167.918 68.170 C 166.935 68.342,166.503 68.604,166.635 68.948 C 166.831 69.458,166.331 69.613,164.500 69.610 C 163.889 69.609,163.600 69.848,163.600 70.353 C 163.600 70.913,163.202 71.161,162.000 71.354 C 160.965 71.519,160.400 71.820,160.400 72.205 C 160.400 72.533,160.042 72.800,159.600 72.800 C 159.160 72.800,158.800 72.980,158.800 73.200 C 158.800 73.420,158.665 73.579,158.500 73.553 C 157.710 73.428,157.460 73.651,158.000 74.000 C 158.453 74.293,158.273 74.389,157.263 74.394 C 156.264 74.398,155.872 74.603,155.716 75.200 C 155.601 75.640,155.264 76.000,154.967 76.000 C 154.671 76.000,154.235 76.360,154.000 76.800 C 153.765 77.240,153.213 77.600,152.773 77.600 C 152.334 77.600,151.866 77.884,151.733 78.231 C 151.600 78.577,151.065 79.023,150.545 79.221 C 150.025 79.418,149.600 79.855,149.600 80.190 C 149.600 80.748,149.115 80.984,148.270 80.837 C 148.089 80.806,148.054 80.964,148.193 81.188 C 148.332 81.413,147.985 81.806,147.423 82.063 C 146.860 82.319,146.400 82.729,146.400 82.975 C 146.400 83.482,144.107 85.600,143.559 85.600 C 143.361 85.600,143.200 85.800,143.200 86.044 C 143.200 86.448,142.785 86.979,140.700 89.241 C 140.315 89.658,140.000 90.276,140.000 90.613 C 140.000 90.949,139.716 91.334,139.369 91.467 C 139.023 91.600,138.573 92.145,138.370 92.679 C 138.167 93.212,137.834 93.545,137.630 93.418 C 137.262 93.191,136.558 94.690,136.731 95.330 C 136.780 95.511,136.648 95.553,136.438 95.424 C 136.228 95.294,135.828 95.820,135.548 96.592 C 135.269 97.365,134.756 98.087,134.408 98.198 C 134.059 98.308,133.735 98.894,133.686 99.499 C 133.638 100.105,133.329 100.800,132.999 101.044 C 132.670 101.288,132.400 101.685,132.400 101.925 C 132.400 102.746,131.484 104.375,131.142 104.164 C 130.954 104.048,130.787 104.098,130.770 104.276 C 130.573 106.422,130.094 107.705,129.603 107.402 C 129.355 107.248,129.200 107.862,129.200 109.000 C 129.200 110.115,129.043 110.750,128.805 110.603 C 128.569 110.457,128.516 110.638,128.674 111.049 C 128.868 111.553,128.778 111.677,128.342 111.510 C 127.873 111.330,127.725 111.678,127.650 113.131 C 127.597 114.149,127.339 115.118,127.077 115.285 C 126.815 115.451,126.780 115.596,127.000 115.606 C 127.220 115.616,127.085 115.808,126.700 116.032 C 126.130 116.364,125.991 117.050,125.954 119.720 C 125.928 121.524,125.824 122.683,125.723 122.295 C 125.622 121.907,125.370 121.695,125.163 121.823 C 124.956 121.951,124.891 122.223,125.017 122.428 C 125.144 122.632,125.069 122.800,124.852 122.800 C 124.404 122.800,124.214 139.389,124.639 141.500 C 124.782 142.215,125.104 142.800,125.354 142.800 C 125.603 142.800,126.038 143.168,126.319 143.618 C 126.789 144.372,127.192 144.432,131.415 144.373 C 135.827 144.312,136.233 144.198,136.037 143.070 C 136.006 142.889,136.165 142.855,136.390 142.994 C 136.616 143.133,136.800 143.057,136.800 142.824 C 136.800 142.591,137.014 142.445,137.275 142.500 C 137.807 142.612,138.342 140.296,138.377 137.724 C 138.390 136.802,138.583 135.934,138.807 135.796 C 139.030 135.658,139.117 135.390,139.000 135.200 C 138.883 135.010,138.940 134.760,139.128 134.645 C 139.501 134.414,139.588 133.416,139.944 125.329 C 139.975 124.629,140.272 123.785,140.604 123.453 C 140.936 123.121,141.286 121.910,141.382 120.762 C 141.477 119.614,141.765 118.545,142.021 118.387 C 142.277 118.229,142.581 117.263,142.697 116.240 C 142.812 115.218,143.090 114.268,143.315 114.129 C 143.573 113.970,143.599 114.084,143.385 114.438 C 143.097 114.917,143.147 114.919,143.723 114.451 C 144.095 114.149,144.400 113.384,144.400 112.751 C 144.400 112.118,144.760 111.240,145.200 110.800 C 145.640 110.360,146.000 109.533,146.000 108.963 C 146.000 108.303,146.260 107.857,146.715 107.738 C 147.139 107.627,147.465 107.124,147.517 106.498 C 147.595 105.548,148.004 105.024,148.918 104.701 C 149.093 104.639,149.266 104.186,149.303 103.694 C 149.340 103.202,149.599 102.800,149.878 102.800 C 150.156 102.800,150.493 102.367,150.626 101.838 C 150.759 101.309,151.213 100.785,151.634 100.675 C 152.104 100.552,152.400 100.125,152.400 99.571 C 152.400 99.074,152.511 98.778,152.648 98.914 C 152.955 99.222,153.753 98.442,154.120 97.475 C 154.271 97.076,154.576 96.861,154.797 96.998 C 155.019 97.135,155.200 96.961,155.200 96.611 C 155.200 96.261,155.470 95.871,155.800 95.745 C 156.130 95.618,156.400 95.276,156.400 94.984 C 156.400 94.693,156.760 94.340,157.200 94.200 C 157.640 94.060,158.000 93.688,158.000 93.373 C 158.000 93.058,158.180 92.778,158.400 92.750 C 158.620 92.723,159.025 92.678,159.300 92.650 C 159.575 92.623,159.800 92.338,159.800 92.018 C 159.800 91.698,160.216 91.338,160.724 91.218 C 161.232 91.098,161.637 90.865,161.624 90.700 C 161.558 89.866,161.627 89.604,161.900 89.647 C 162.781 89.787,163.200 89.518,163.200 88.813 C 163.200 88.279,163.392 88.099,163.797 88.254 C 164.129 88.382,164.496 88.215,164.625 87.878 C 164.753 87.545,165.430 87.042,166.129 86.760 C 166.828 86.478,167.544 86.011,167.720 85.723 C 167.896 85.436,168.293 85.200,168.602 85.200 C 168.911 85.200,169.612 84.752,170.160 84.204 C 170.709 83.655,171.416 83.308,171.737 83.431 C 172.057 83.554,172.440 83.459,172.587 83.221 C 172.735 82.982,173.053 82.909,173.296 83.059 C 173.579 83.234,173.645 83.094,173.481 82.666 C 173.280 82.144,173.464 82.000,174.333 82.000 C 174.942 82.000,175.682 81.775,175.979 81.500 C 176.416 81.094,176.463 81.113,176.228 81.600 C 176.069 81.930,176.283 81.812,176.704 81.337 C 177.139 80.845,178.056 80.423,178.834 80.355 C 179.585 80.289,180.522 79.912,180.916 79.518 C 181.403 79.029,182.236 78.800,183.527 78.800 C 184.927 78.800,185.601 78.591,186.107 78.000 C 186.710 77.295,193.587 76.721,196.130 77.163 C 196.311 77.194,196.345 77.035,196.206 76.810 C 196.055 76.565,196.435 76.400,197.153 76.400 C 197.813 76.400,198.464 76.220,198.600 76.000 C 198.736 75.780,199.992 75.600,201.391 75.600 C 204.072 75.600,205.324 75.324,205.002 74.803 C 204.790 74.459,205.579 73.682,206.178 73.645 C 206.735 73.610,207.000 71.821,207.000 68.095 L 207.000 64.789 205.478 63.395 L 203.955 62.000 195.078 62.033 C 188.309 62.058,185.889 62.201,184.890 62.638 M246.240 290.054 C 246.113 290.964,245.828 291.925,245.608 292.191 C 245.387 292.456,245.325 292.792,245.470 292.937 C 245.615 293.082,245.523 293.200,245.267 293.200 C 244.980 293.200,244.800 293.895,244.800 295.000 C 244.800 296.308,244.641 296.800,244.218 296.800 C 243.870 296.800,243.531 297.361,243.374 298.196 C 243.139 299.451,242.985 299.589,241.856 299.555 C 240.419 299.512,239.730 299.662,238.600 300.266 C 238.160 300.501,236.360 300.727,234.600 300.768 C 231.019 300.852,226.623 301.213,224.800 301.573 C 224.690 301.594,224.870 301.787,225.200 302.000 C 225.609 302.264,224.336 302.407,221.200 302.450 C 214.261 302.543,213.628 302.611,213.092 303.319 C 212.691 303.849,211.562 304.003,207.000 304.148 C 199.802 304.376,200.000 304.351,200.000 305.025 C 200.000 305.505,192.315 305.910,189.745 305.566 C 189.604 305.547,189.337 305.772,189.151 306.066 C 188.895 306.470,188.811 306.478,188.806 306.097 C 188.801 305.699,188.637 305.695,188.026 306.077 C 187.600 306.343,187.341 306.704,187.449 306.880 C 187.558 307.056,185.702 307.217,183.324 307.237 C 177.103 307.291,176.080 307.404,175.287 308.122 C 174.716 308.638,173.509 308.775,169.114 308.822 C 164.300 308.874,163.570 308.971,162.964 309.640 C 161.702 311.034,160.000 310.652,160.000 308.974 C 160.000 307.348,159.344 305.864,158.780 306.212 C 158.466 306.407,158.148 303.104,158.363 301.870 C 158.394 301.689,158.248 301.647,158.039 301.776 C 157.602 302.046,157.157 300.856,156.969 298.916 C 156.898 298.183,156.561 297.304,156.220 296.963 C 155.879 296.622,155.587 296.221,155.571 296.071 C 155.554 295.922,155.481 295.101,155.408 294.247 C 155.335 293.392,155.033 292.540,154.737 292.353 C 154.442 292.166,154.380 292.007,154.600 292.000 C 154.820 291.993,154.793 291.856,154.540 291.694 C 154.150 291.445,153.814 289.717,153.958 288.700 C 153.981 288.535,174.806 288.400,200.236 288.400 L 246.471 288.400 246.240 290.054 M238.400 316.000 C 238.400 316.660,238.220 317.200,238.000 317.200 C 237.780 317.200,237.600 317.481,237.600 317.824 C 237.600 318.167,237.465 318.364,237.300 318.263 C 237.135 318.162,236.967 318.793,236.927 319.666 C 236.887 320.539,236.617 321.545,236.327 321.903 C 235.942 322.378,235.935 322.473,236.300 322.253 C 236.575 322.088,236.800 322.143,236.800 322.376 C 236.800 322.609,236.553 322.800,236.250 322.800 C 235.679 322.800,235.200 324.463,235.200 326.450 C 235.200 327.225,234.997 327.600,234.576 327.600 C 234.233 327.600,234.064 327.780,234.200 328.000 C 234.336 328.220,234.301 328.400,234.121 328.400 C 233.942 328.400,233.743 329.435,233.679 330.700 C 233.601 332.225,233.347 333.163,232.925 333.485 C 232.383 333.898,232.203 334.667,231.907 337.832 C 231.885 338.069,231.042 338.310,230.033 338.367 C 226.365 338.576,226.041 338.638,225.327 339.273 C 224.759 339.777,223.453 339.952,219.346 340.072 C 215.740 340.178,213.889 340.394,213.446 340.762 C 213.091 341.057,212.797 341.141,212.794 340.949 C 212.791 340.757,212.650 340.817,212.482 341.082 C 212.270 341.414,210.475 341.582,206.688 341.622 C 203.498 341.656,201.200 341.841,201.200 342.064 C 201.200 342.275,200.992 342.319,200.738 342.162 C 200.463 341.991,200.385 342.051,200.545 342.311 C 201.001 343.049,200.306 343.161,194.885 343.223 C 190.571 343.272,189.381 343.418,188.218 344.041 C 187.053 344.666,185.951 344.800,181.987 344.800 C 178.304 344.800,176.949 344.946,176.222 345.422 C 175.585 345.840,174.572 346.004,173.143 345.922 C 170.855 345.791,170.909 345.861,170.679 342.700 C 170.651 342.315,170.397 342.000,170.114 342.000 C 169.831 342.000,169.600 341.572,169.600 341.050 C 169.600 339.248,169.098 337.600,168.550 337.600 C 168.037 337.600,167.937 337.093,167.865 334.112 C 167.853 333.623,167.760 333.307,167.658 333.409 C 167.188 333.879,166.436 331.926,166.349 330.008 C 166.273 328.344,166.095 327.845,165.526 327.697 C 164.340 327.386,164.495 324.412,165.700 324.364 C 166.195 324.345,168.092 324.271,169.917 324.199 C 172.162 324.112,173.563 323.854,174.254 323.401 C 175.149 322.815,180.551 322.335,186.100 322.349 C 186.485 322.349,186.800 322.194,186.800 322.002 C 186.800 321.385,188.323 321.142,193.313 320.961 C 199.186 320.749,199.214 320.746,198.976 320.361 C 198.614 319.776,199.451 319.665,205.009 319.559 C 211.294 319.439,212.027 319.336,211.749 318.611 C 211.555 318.105,215.423 317.828,221.090 317.942 C 222.790 317.977,223.259 317.836,223.604 317.192 C 223.837 316.756,224.212 316.400,224.438 316.400 C 224.663 316.400,224.736 316.580,224.600 316.800 C 224.464 317.020,224.528 317.200,224.743 317.200 C 224.958 317.200,225.193 317.031,225.267 316.825 C 225.340 316.619,227.892 316.409,230.939 316.358 C 235.815 316.277,236.532 316.178,236.935 315.533 C 237.640 314.404,238.400 314.646,238.400 316.000 M226.000 354.986 C 226.000 355.562,225.668 356.150,225.200 356.400 C 224.728 356.653,224.400 357.238,224.400 357.827 C 224.400 358.376,224.127 358.930,223.793 359.058 C 223.459 359.186,223.217 359.496,223.256 359.746 C 223.295 359.995,223.208 360.515,223.063 360.900 C 222.918 361.285,222.711 361.881,222.603 362.225 C 222.490 362.584,222.205 362.727,221.935 362.560 C 221.617 362.363,221.547 362.485,221.719 362.934 C 221.860 363.300,221.801 363.600,221.587 363.600 C 221.374 363.600,221.200 363.939,221.200 364.353 C 221.200 364.782,220.838 365.201,220.360 365.326 C 219.891 365.449,219.637 365.737,219.786 365.978 C 220.070 366.437,216.480 370.270,215.926 370.100 C 215.747 370.045,215.600 370.270,215.600 370.600 C 215.600 371.114,214.603 371.422,213.500 371.247 C 213.335 371.221,213.200 371.481,213.200 371.824 C 213.200 372.167,213.035 372.345,212.834 372.221 C 212.633 372.097,212.408 372.165,212.334 372.374 C 212.260 372.582,210.503 372.843,208.429 372.953 C 205.582 373.105,204.572 373.307,204.309 373.777 C 204.117 374.120,203.689 374.400,203.357 374.400 C 202.980 374.400,202.866 374.212,203.053 373.900 C 203.272 373.536,203.176 373.544,202.702 373.928 C 202.273 374.276,201.115 374.424,199.325 374.361 C 195.922 374.242,194.924 374.021,195.666 373.551 C 195.960 373.365,196.020 373.192,195.800 373.167 C 195.080 373.084,191.437 372.892,189.727 372.845 C 188.393 372.809,187.999 372.627,187.783 371.947 C 187.593 371.347,187.422 371.241,187.206 371.590 C 186.988 371.942,186.821 371.958,186.626 371.643 C 186.476 371.399,186.102 371.200,185.795 371.200 C 185.165 371.200,183.200 369.368,183.200 368.782 C 183.200 368.572,182.930 368.400,182.600 368.400 C 182.267 368.400,182.000 368.044,182.000 367.600 C 182.000 367.067,181.733 366.800,181.200 366.800 C 180.676 366.800,180.400 366.533,180.400 366.027 C 180.400 365.602,180.040 365.140,179.600 365.000 C 178.885 364.773,178.634 364.080,178.693 362.500 C 178.703 362.225,178.371 362.000,177.956 362.000 C 177.416 362.000,177.200 361.714,177.200 361.000 L 177.200 360.000 181.956 360.000 C 186.239 360.000,186.706 359.931,186.656 359.300 C 186.596 358.547,186.037 358.612,195.326 358.296 C 197.486 358.222,199.376 357.991,199.526 357.781 C 199.930 357.219,200.530 357.139,205.800 356.940 C 208.440 356.841,210.870 356.745,211.200 356.727 C 211.530 356.709,212.100 356.433,212.466 356.115 C 212.937 355.707,214.525 355.484,217.866 355.356 C 223.745 355.132,224.298 355.062,224.886 354.474 C 225.623 353.737,226.000 353.910,226.000 354.986 " stroke="none" fill="#2fb1c0" fill-rule="evenodd"></path><path id="path4" d="M93.362 162.742 C 94.209 163.695,94.400 163.782,94.400 163.214 C 94.400 163.002,93.995 162.616,93.500 162.356 C 92.605 161.886,92.604 161.888,93.362 162.742 M201.376 373.787 C 200.717 374.286,200.699 374.376,201.257 374.387 C 201.619 374.394,202.018 374.130,202.145 373.800 C 202.431 373.055,202.347 373.053,201.376 373.787 " stroke="none" fill="#00ffff" fill-rule="evenodd"></path></g></svg>