<?xml version="1.0" standalone="no"?>
<!DOCTYPE svg PUBLIC "-//W3C//DTD SVG 20010904//EN"
 "http://www.w3.org/TR/2001/REC-SVG-20010904/DTD/svg10.dtd">
<svg version="1.0" xmlns="http://www.w3.org/2000/svg"
 width="256.000000pt" height="256.000000pt" viewBox="0 0 256.000000 256.000000"
 preserveAspectRatio="xMidYMid meet">
<metadata>
Created by potrace 1.15, written by Peter Selinger 2001-2017
</metadata>
<g transform="translate(0.000000,256.000000) scale(0.100000,-0.100000)"
fill="#000000" stroke="none">
<path d="M1065 2539 c-247 -60 -467 -240 -580 -472 -60 -125 -85 -233 -85
-373 0 -176 40 -294 199 -584 169 -310 185 -347 276 -642 76 -244 107 -319
161 -377 59 -66 103 -84 217 -89 223 -10 304 57 387 321 128 411 139 440 230
612 255 481 290 574 290 759 0 140 -25 248 -85 373 -114 234 -335 413 -585
473 -115 27 -311 27 -425 -1z m445 -183 c106 -39 205 -103 281 -183 128 -134
190 -275 197 -455 6 -162 -26 -252 -205 -578 -50 -91 -102 -186 -114 -212
l-23 -48 -366 0 -366 0 -23 48 c-12 26 -65 125 -118 220 -180 329 -208 408
-201 575 4 89 11 128 33 187 70 193 228 360 407 431 109 43 148 49 288 45 118
-2 145 -6 210 -30z m70 -1645 c0 -4 -5 -22 -11 -39 -12 -35 8 -31 -289 -67
-113 -14 -217 -27 -231 -29 -24 -4 -27 0 -47 63 -12 37 -22 70 -22 74 0 4 135
7 300 7 165 0 300 -4 300 -9z m-71 -236 c-12 -39 -24 -73 -28 -78 -4 -4 -79
-16 -167 -27 -87 -11 -173 -22 -190 -25 -31 -5 -31 -5 -52 67 -12 39 -21 72
-19 73 2 3 471 62 474 60 1 0 -7 -32 -18 -70z m-78 -223 c-34 -68 -61 -82
-154 -82 -78 0 -80 1 -113 36 -19 19 -34 39 -34 43 0 7 310 51 318 45 2 -1 -6
-20 -17 -42z"/>
<path d="M1128 2141 c-191 -62 -335 -256 -326 -438 3 -56 4 -58 32 -61 39 -5
46 6 56 81 22 182 164 325 345 347 77 10 88 17 83 56 -3 28 -4 29 -68 31 -41
2 -86 -4 -122 -16z"/>
</g>
</svg>
