<svg id="svg" version="1.1" width="400" height="400" xmlns="http://www.w3.org/2000/svg" xmlns:xlink="http://www.w3.org/1999/xlink" style="display: block;"><g id="svgg"><path id="path0" d="M165.250 1.248 C 160.162 1.776,156.000 2.611,156.000 3.104 C 156.000 3.597,154.537 4.020,152.750 4.044 C 150.963 4.068,147.700 4.736,145.500 5.529 C 143.300 6.321,140.713 6.977,139.750 6.985 C 138.787 6.993,138.000 7.422,138.000 7.939 C 138.000 8.455,135.975 9.181,133.500 9.552 C 131.025 9.923,129.000 10.621,129.000 11.102 C 129.000 11.583,127.200 12.264,125.000 12.616 C 122.800 12.968,121.000 13.648,121.000 14.128 C 121.000 14.608,120.464 15.000,119.810 15.000 C 118.455 15.000,105.768 21.135,104.990 22.165 C 104.709 22.537,103.247 23.151,101.740 23.529 C 100.233 23.907,99.000 24.566,99.000 24.992 C 99.000 25.418,98.213 26.051,97.250 26.399 C 94.621 27.350,91.170 29.492,88.432 31.873 C 87.086 33.043,85.570 34.000,85.064 34.000 C 84.557 34.000,83.548 34.592,82.821 35.315 C 82.095 36.038,80.766 37.050,79.869 37.565 C 72.143 41.993,41.993 72.143,37.565 79.869 C 37.050 80.766,36.038 82.095,35.315 82.821 C 34.592 83.548,34.000 84.557,34.000 85.064 C 34.000 85.570,33.043 87.086,31.873 88.432 C 29.492 91.170,27.350 94.621,26.399 97.250 C 26.051 98.212,25.418 99.000,24.992 99.000 C 24.566 99.000,23.907 100.233,23.529 101.740 C 23.151 103.247,22.495 104.709,22.072 104.990 C 21.072 105.653,15.000 118.449,15.000 119.893 C 15.000 120.502,14.608 121.000,14.128 121.000 C 13.648 121.000,12.968 122.800,12.616 125.000 C 12.264 127.200,11.583 129.000,11.102 129.000 C 10.621 129.000,9.923 131.025,9.552 133.500 C 9.181 135.975,8.455 138.000,7.939 138.000 C 7.422 138.000,6.993 138.787,6.985 139.750 C 6.977 140.713,6.321 143.300,5.529 145.500 C 4.736 147.700,4.068 150.963,4.044 152.750 C 4.020 154.537,3.616 156.000,3.146 156.000 C 1.594 156.000,-0.000 178.288,0.000 200.000 C 0.000 221.712,1.594 244.000,3.146 244.000 C 3.616 244.000,4.020 245.463,4.044 247.250 C 4.068 249.037,4.736 252.300,5.529 254.500 C 6.321 256.700,6.977 259.288,6.985 260.250 C 6.993 261.212,7.422 262.000,7.939 262.000 C 8.455 262.000,9.181 264.025,9.552 266.500 C 9.923 268.975,10.621 271.000,11.102 271.000 C 11.583 271.000,12.264 272.800,12.616 275.000 C 12.968 277.200,13.612 279.000,14.048 279.000 C 14.484 279.000,15.138 280.350,15.500 282.000 C 15.862 283.650,16.573 285.000,17.079 285.000 C 17.586 285.000,18.000 285.639,18.000 286.419 C 18.000 287.911,21.022 294.134,22.171 295.009 C 22.540 295.290,23.151 296.753,23.529 298.260 C 23.907 299.767,24.566 301.000,24.992 301.000 C 25.418 301.000,26.051 301.788,26.399 302.750 C 27.350 305.379,29.492 308.830,31.873 311.568 C 33.043 312.914,34.000 314.430,34.000 314.936 C 34.000 315.443,34.592 316.452,35.315 317.179 C 36.038 317.905,37.064 319.280,37.595 320.233 C 41.036 326.410,73.590 358.964,79.767 362.405 C 80.720 362.936,82.095 363.962,82.821 364.685 C 83.548 365.408,84.580 366.000,85.115 366.000 C 85.650 366.000,87.301 367.125,88.783 368.500 C 90.266 369.875,92.224 371.000,93.133 371.000 C 94.042 371.000,95.045 371.675,95.362 372.500 C 95.678 373.325,96.626 374.000,97.469 374.000 C 98.311 374.000,99.000 374.401,99.000 374.892 C 99.000 375.382,100.233 376.093,101.740 376.471 C 103.247 376.849,104.710 377.460,104.991 377.829 C 105.866 378.978,112.089 382.000,113.581 382.000 C 114.361 382.000,115.000 382.414,115.000 382.921 C 115.000 383.427,116.350 384.138,118.000 384.500 C 119.650 384.862,121.000 385.516,121.000 385.952 C 121.000 386.388,122.800 387.032,125.000 387.384 C 127.200 387.736,129.000 388.417,129.000 388.898 C 129.000 389.379,131.025 390.077,133.500 390.448 C 135.975 390.819,138.000 391.494,138.000 391.948 C 138.000 392.402,139.238 393.029,140.750 393.341 C 151.082 395.475,154.743 396.346,156.500 397.091 C 165.595 400.945,234.405 400.945,243.500 397.091 C 245.257 396.346,248.918 395.475,259.250 393.341 C 260.762 393.029,262.000 392.402,262.000 391.948 C 262.000 391.494,264.025 390.819,266.500 390.448 C 268.975 390.077,271.000 389.379,271.000 388.898 C 271.000 388.417,272.800 387.736,275.000 387.384 C 277.200 387.032,279.000 386.388,279.000 385.952 C 279.000 385.516,280.350 384.862,282.000 384.500 C 283.650 384.138,285.000 383.427,285.000 382.921 C 285.000 382.414,285.863 382.000,286.917 382.000 C 287.971 382.000,288.983 381.663,289.167 381.250 C 289.590 380.297,298.341 376.000,299.860 376.000 C 300.487 376.000,301.000 375.550,301.000 375.000 C 301.000 374.450,301.689 374.000,302.531 374.000 C 303.374 374.000,304.322 373.325,304.638 372.500 C 304.955 371.675,305.958 371.000,306.867 371.000 C 307.776 371.000,309.734 369.875,311.217 368.500 C 312.699 367.125,314.350 366.000,314.885 366.000 C 315.420 366.000,316.452 365.408,317.179 364.685 C 317.905 363.962,319.280 362.936,320.233 362.405 C 326.813 358.739,359.888 325.456,362.403 319.970 C 362.899 318.886,363.687 318.000,364.153 318.000 C 364.619 318.000,365.000 317.386,365.000 316.636 C 365.000 315.885,366.343 313.748,367.984 311.886 C 369.625 310.023,370.975 307.761,370.984 306.857 C 370.993 305.953,371.675 304.955,372.500 304.638 C 373.325 304.322,374.000 303.374,374.000 302.531 C 374.000 301.689,374.450 301.000,375.000 301.000 C 375.550 301.000,376.000 300.487,376.000 299.860 C 376.000 298.341,380.297 289.590,381.250 289.167 C 381.662 288.983,382.000 287.971,382.000 286.917 C 382.000 285.862,382.414 285.000,382.921 285.000 C 383.427 285.000,384.138 283.650,384.500 282.000 C 384.862 280.350,385.516 279.000,385.952 279.000 C 386.388 279.000,387.032 277.200,387.384 275.000 C 387.736 272.800,388.417 271.000,388.898 271.000 C 389.379 271.000,390.077 268.975,390.448 266.500 C 390.819 264.025,391.494 262.000,391.948 262.000 C 392.402 262.000,393.029 260.762,393.341 259.250 C 395.475 248.918,396.346 245.257,397.091 243.500 C 400.945 234.405,400.945 165.595,397.091 156.500 C 396.346 154.743,395.475 151.082,393.341 140.750 C 393.029 139.238,392.402 138.000,391.948 138.000 C 391.494 138.000,390.819 135.975,390.448 133.500 C 390.077 131.025,389.379 129.000,388.898 129.000 C 388.417 129.000,387.736 127.200,387.384 125.000 C 387.032 122.800,386.388 121.000,385.952 121.000 C 385.516 121.000,384.862 119.650,384.500 118.000 C 384.138 116.350,383.427 115.000,382.921 115.000 C 382.414 115.000,382.000 114.361,382.000 113.581 C 382.000 112.089,378.978 105.866,377.829 104.991 C 377.460 104.710,376.849 103.247,376.471 101.740 C 376.093 100.233,375.382 99.000,374.892 99.000 C 374.401 99.000,374.000 98.311,374.000 97.469 C 374.000 96.626,373.325 95.678,372.500 95.362 C 371.675 95.045,371.000 94.042,371.000 93.133 C 371.000 92.224,369.875 90.266,368.500 88.783 C 367.125 87.301,366.000 85.650,366.000 85.115 C 366.000 84.580,365.408 83.548,364.685 82.821 C 363.962 82.095,362.936 80.720,362.405 79.767 C 358.964 73.590,326.410 41.036,320.233 37.595 C 319.280 37.064,317.905 36.038,317.179 35.315 C 316.452 34.592,315.443 34.000,314.936 34.000 C 314.430 34.000,312.914 33.043,311.568 31.873 C 308.830 29.492,305.379 27.350,302.750 26.399 C 301.788 26.051,301.000 25.418,301.000 24.992 C 301.000 24.566,299.767 23.907,298.260 23.529 C 296.753 23.151,295.290 22.540,295.009 22.171 C 294.134 21.022,287.911 18.000,286.419 18.000 C 285.639 18.000,285.000 17.586,285.000 17.079 C 285.000 16.573,283.650 15.862,282.000 15.500 C 280.350 15.138,279.000 14.484,279.000 14.048 C 279.000 13.612,277.200 12.968,275.000 12.616 C 272.800 12.264,271.000 11.583,271.000 11.102 C 271.000 10.621,268.975 9.923,266.500 9.552 C 264.025 9.181,262.000 8.455,262.000 7.939 C 262.000 7.422,261.212 6.993,260.250 6.985 C 259.288 6.977,256.700 6.321,254.500 5.529 C 252.300 4.736,249.037 4.068,247.250 4.044 C 245.463 4.020,244.000 3.616,244.000 3.146 C 244.000 0.411,186.632 -0.972,165.250 1.248 M221.000 52.896 C 221.000 53.389,224.600 54.111,229.000 54.500 C 233.400 54.889,237.000 55.611,237.000 56.104 C 237.000 56.597,237.849 57.000,238.886 57.000 C 239.923 57.000,242.060 57.672,243.636 58.494 C 245.211 59.315,247.512 59.990,248.750 59.994 C 249.988 59.997,251.000 60.410,251.000 60.912 C 251.000 61.414,252.800 62.128,255.000 62.500 C 257.200 62.872,259.000 63.550,259.000 64.008 C 259.000 64.466,260.350 65.138,262.000 65.500 C 263.650 65.862,265.004 66.461,265.009 66.829 C 265.015 67.198,267.040 68.388,269.509 69.474 C 271.979 70.560,274.000 71.749,274.000 72.116 C 274.000 72.483,275.125 73.066,276.500 73.411 C 277.875 73.756,279.000 74.480,279.000 75.019 C 279.000 75.559,279.583 76.000,280.297 76.000 C 281.626 76.000,283.704 77.438,289.306 82.234 C 291.063 83.738,292.811 84.975,293.192 84.984 C 294.096 85.005,314.995 105.904,315.016 106.808 C 315.025 107.189,316.262 108.937,317.766 110.694 C 322.562 116.296,324.000 118.374,324.000 119.703 C 324.000 120.417,324.441 121.000,324.981 121.000 C 325.520 121.000,326.244 122.125,326.589 123.500 C 326.934 124.875,327.517 126.000,327.884 126.000 C 328.251 126.000,329.440 128.021,330.526 130.491 C 331.612 132.960,332.802 134.985,333.171 134.991 C 333.539 134.996,334.138 136.350,334.500 138.000 C 334.862 139.650,335.534 141.000,335.992 141.000 C 336.450 141.000,337.128 142.800,337.500 145.000 C 337.872 147.200,338.535 149.000,338.974 149.000 C 339.414 149.000,340.075 151.015,340.444 153.477 C 340.813 155.939,341.540 158.215,342.058 158.536 C 342.576 158.856,343.000 159.991,343.000 161.059 C 343.000 162.127,343.403 163.000,343.896 163.000 C 344.389 163.000,345.111 166.603,345.500 171.006 C 345.890 175.409,346.612 179.260,347.105 179.565 C 348.274 180.288,348.274 219.712,347.105 220.435 C 346.612 220.740,345.890 224.591,345.500 228.994 C 345.111 233.397,344.389 237.000,343.896 237.000 C 343.403 237.000,343.000 237.873,343.000 238.941 C 343.000 240.009,342.576 241.144,342.058 241.464 C 341.540 241.785,340.813 244.061,340.444 246.523 C 340.075 248.985,339.414 251.000,338.974 251.000 C 338.535 251.000,337.872 252.800,337.500 255.000 C 337.128 257.200,336.450 259.000,335.992 259.000 C 335.534 259.000,334.862 260.350,334.500 262.000 C 334.138 263.650,333.539 265.004,333.171 265.009 C 332.802 265.015,331.612 267.040,330.526 269.509 C 329.440 271.979,328.251 274.000,327.884 274.000 C 327.517 274.000,326.934 275.125,326.589 276.500 C 326.244 277.875,325.520 279.000,324.981 279.000 C 324.441 279.000,324.000 279.583,324.000 280.297 C 324.000 281.684,322.161 284.296,317.750 289.172 C 316.238 290.844,315.000 292.588,315.000 293.048 C 315.000 294.139,294.139 315.000,293.048 315.000 C 292.588 315.000,290.844 316.237,289.172 317.750 C 284.296 322.161,281.684 324.000,280.297 324.000 C 279.583 324.000,279.000 324.441,279.000 324.981 C 279.000 325.520,277.875 326.244,276.500 326.589 C 275.125 326.934,274.000 327.517,274.000 327.884 C 274.000 328.251,271.979 329.440,269.509 330.526 C 267.040 331.612,265.015 332.802,265.009 333.171 C 265.004 333.539,263.650 334.138,262.000 334.500 C 260.350 334.862,259.000 335.534,259.000 335.992 C 259.000 336.450,257.200 337.128,255.000 337.500 C 252.800 337.872,251.000 338.535,251.000 338.974 C 251.000 339.414,248.985 340.075,246.523 340.444 C 244.061 340.813,241.785 341.540,241.464 342.058 C 241.144 342.576,240.009 343.000,238.941 343.000 C 237.873 343.000,237.000 343.403,237.000 343.896 C 237.000 344.389,233.397 345.111,228.994 345.500 C 224.591 345.890,220.740 346.612,220.435 347.105 C 219.712 348.274,180.288 348.274,179.565 347.105 C 179.260 346.612,175.409 345.890,171.006 345.500 C 166.603 345.111,163.000 344.389,163.000 343.896 C 163.000 343.403,162.127 343.000,161.059 343.000 C 159.991 343.000,158.856 342.576,158.536 342.058 C 158.215 341.540,155.939 340.813,153.477 340.444 C 151.015 340.075,149.000 339.414,149.000 338.974 C 149.000 338.535,147.200 337.872,145.000 337.500 C 142.800 337.128,141.000 336.450,141.000 335.992 C 141.000 335.534,139.650 334.862,138.000 334.500 C 136.350 334.138,134.996 333.539,134.991 333.171 C 134.985 332.802,132.960 331.612,130.491 330.526 C 128.021 329.440,126.000 328.251,126.000 327.884 C 126.000 327.517,124.875 326.934,123.500 326.589 C 122.125 326.244,121.000 325.520,121.000 324.981 C 121.000 324.441,120.417 324.000,119.703 324.000 C 118.374 324.000,116.296 322.562,110.694 317.766 C 108.937 316.262,107.189 315.025,106.808 315.016 C 105.904 314.995,85.005 294.096,84.984 293.192 C 84.975 292.811,83.738 291.063,82.234 289.306 C 77.438 283.704,76.000 281.626,76.000 280.297 C 76.000 279.583,75.559 279.000,75.019 279.000 C 74.480 279.000,73.756 277.875,73.411 276.500 C 73.066 275.125,72.483 274.000,72.116 274.000 C 71.749 274.000,70.560 271.979,69.474 269.509 C 68.388 267.040,67.198 265.015,66.829 265.009 C 66.461 265.004,65.862 263.650,65.500 262.000 C 65.138 260.350,64.466 259.000,64.008 259.000 C 63.550 259.000,62.872 257.200,62.500 255.000 C 62.128 252.800,61.414 251.000,60.912 251.000 C 60.410 251.000,59.997 249.988,59.994 248.750 C 59.990 247.512,59.315 245.211,58.494 243.636 C 57.672 242.060,57.000 239.923,57.000 238.886 C 57.000 237.849,56.597 237.000,56.104 237.000 C 55.611 237.000,54.889 233.400,54.500 229.000 C 54.111 224.600,53.389 221.000,52.896 221.000 C 52.396 221.000,52.000 211.707,52.000 200.000 C 52.000 188.293,52.396 179.000,52.896 179.000 C 53.389 179.000,54.111 175.400,54.500 171.000 C 54.889 166.600,55.611 163.000,56.104 163.000 C 56.597 163.000,57.000 162.151,57.000 161.114 C 57.000 160.077,57.672 157.940,58.494 156.364 C 59.315 154.789,59.990 152.488,59.994 151.250 C 59.997 150.012,60.410 149.000,60.912 149.000 C 61.414 149.000,62.128 147.200,62.500 145.000 C 62.872 142.800,63.550 141.000,64.008 141.000 C 64.466 141.000,65.138 139.650,65.500 138.000 C 65.862 136.350,66.461 134.996,66.829 134.991 C 67.198 134.985,68.388 132.960,69.474 130.491 C 70.560 128.021,71.749 126.000,72.116 126.000 C 72.483 126.000,73.066 124.875,73.411 123.500 C 73.756 122.125,74.480 121.000,75.019 121.000 C 75.559 121.000,76.000 120.417,76.000 119.703 C 76.000 118.374,77.438 116.296,82.234 110.694 C 83.738 108.937,84.975 107.189,84.984 106.808 C 85.005 105.904,105.904 85.005,106.808 84.984 C 107.189 84.975,108.937 83.738,110.694 82.234 C 116.296 77.438,118.374 76.000,119.703 76.000 C 120.417 76.000,121.000 75.559,121.000 75.019 C 121.000 74.480,122.125 73.756,123.500 73.411 C 124.875 73.066,126.000 72.483,126.000 72.116 C 126.000 71.749,128.021 70.560,130.491 69.474 C 132.960 68.388,134.985 67.198,134.991 66.829 C 134.996 66.461,136.350 65.862,138.000 65.500 C 139.650 65.138,141.000 64.466,141.000 64.008 C 141.000 63.550,142.800 62.872,145.000 62.500 C 147.200 62.128,149.000 61.414,149.000 60.912 C 149.000 60.410,150.012 59.997,151.250 59.994 C 152.488 59.990,154.789 59.315,156.364 58.494 C 157.940 57.672,160.077 57.000,161.114 57.000 C 162.151 57.000,163.000 56.597,163.000 56.104 C 163.000 55.611,166.600 54.889,171.000 54.500 C 175.400 54.111,179.000 53.389,179.000 52.896 C 179.000 52.396,188.293 52.000,200.000 52.000 C 211.707 52.000,221.000 52.396,221.000 52.896 M271.000 124.921 C 271.000 125.427,269.650 126.138,268.000 126.500 C 266.350 126.862,265.000 127.537,265.000 128.000 C 265.000 128.463,263.650 129.138,262.000 129.500 C 260.350 129.862,259.000 130.467,259.000 130.844 C 259.000 131.588,251.607 135.000,249.993 135.000 C 249.447 135.000,249.000 135.414,249.000 135.921 C 249.000 136.427,247.650 137.138,246.000 137.500 C 244.350 137.862,243.000 138.537,243.000 139.000 C 243.000 139.463,241.650 140.138,240.000 140.500 C 238.350 140.862,237.000 141.573,237.000 142.079 C 237.000 142.586,236.325 143.000,235.500 143.000 C 234.675 143.000,234.000 143.400,234.000 143.889 C 234.000 144.377,232.425 145.073,230.500 145.434 C 228.575 145.795,227.000 146.484,227.000 146.966 C 227.000 147.447,225.650 148.138,224.000 148.500 C 222.350 148.862,221.000 149.537,221.000 150.000 C 221.000 150.463,219.650 151.138,218.000 151.500 C 216.350 151.862,215.000 152.537,215.000 153.000 C 215.000 153.463,213.650 154.138,212.000 154.500 C 210.350 154.862,209.000 155.467,209.000 155.844 C 209.000 156.588,201.607 160.000,199.993 160.000 C 199.447 160.000,199.000 160.414,199.000 160.921 C 199.000 161.427,197.650 162.138,196.000 162.500 C 194.350 162.862,193.000 163.537,193.000 164.000 C 193.000 164.463,191.650 165.138,190.000 165.500 C 188.350 165.862,187.000 166.573,187.000 167.079 C 187.000 167.586,186.325 168.000,185.500 168.000 C 184.675 168.000,184.000 168.400,184.000 168.889 C 184.000 169.377,182.425 170.073,180.500 170.434 C 178.575 170.795,177.000 171.520,177.000 172.045 C 177.000 172.570,176.283 173.000,175.406 173.000 C 174.530 173.000,173.577 173.900,173.290 175.000 C 173.002 176.100,172.390 177.000,171.929 177.000 C 171.468 177.000,170.795 178.575,170.434 180.500 C 170.073 182.425,169.377 184.000,168.889 184.000 C 168.400 184.000,168.000 184.675,168.000 185.500 C 168.000 186.325,167.586 187.000,167.079 187.000 C 166.573 187.000,165.862 188.350,165.500 190.000 C 165.138 191.650,164.463 193.000,164.000 193.000 C 163.537 193.000,162.862 194.350,162.500 196.000 C 162.138 197.650,161.427 199.000,160.921 199.000 C 160.414 199.000,160.000 199.447,160.000 199.993 C 160.000 201.607,156.588 209.000,155.844 209.000 C 155.467 209.000,154.862 210.350,154.500 212.000 C 154.138 213.650,153.463 215.000,153.000 215.000 C 152.537 215.000,151.862 216.350,151.500 218.000 C 151.138 219.650,150.463 221.000,150.000 221.000 C 149.537 221.000,148.862 222.350,148.500 224.000 C 148.138 225.650,147.447 227.000,146.966 227.000 C 146.484 227.000,145.795 228.575,145.434 230.500 C 145.073 232.425,144.377 234.000,143.889 234.000 C 143.400 234.000,143.000 234.675,143.000 235.500 C 143.000 236.325,142.586 237.000,142.079 237.000 C 141.573 237.000,140.862 238.350,140.500 240.000 C 140.138 241.650,139.463 243.000,139.000 243.000 C 138.537 243.000,137.862 244.350,137.500 246.000 C 137.138 247.650,136.427 249.000,135.921 249.000 C 135.414 249.000,135.000 249.447,135.000 249.993 C 135.000 251.607,131.588 259.000,130.844 259.000 C 130.467 259.000,129.862 260.350,129.500 262.000 C 129.138 263.650,128.463 265.000,128.000 265.000 C 127.537 265.000,126.862 266.350,126.500 268.000 C 126.138 269.650,125.427 271.000,124.921 271.000 C 124.414 271.000,124.000 272.125,124.000 273.500 C 124.000 275.500,124.500 276.000,126.500 276.000 C 127.875 276.000,129.000 275.586,129.000 275.079 C 129.000 274.573,130.350 273.862,132.000 273.500 C 133.650 273.138,135.000 272.463,135.000 272.000 C 135.000 271.537,136.350 270.862,138.000 270.500 C 139.650 270.138,141.000 269.533,141.000 269.156 C 141.000 268.412,148.393 265.000,150.007 265.000 C 150.553 265.000,151.000 264.586,151.000 264.079 C 151.000 263.573,152.350 262.862,154.000 262.500 C 155.650 262.138,157.000 261.463,157.000 261.000 C 157.000 260.537,158.350 259.862,160.000 259.500 C 161.650 259.138,163.000 258.427,163.000 257.921 C 163.000 257.414,163.675 257.000,164.500 257.000 C 165.325 257.000,166.000 256.600,166.000 256.111 C 166.000 255.623,167.575 254.927,169.500 254.566 C 171.425 254.205,173.000 253.516,173.000 253.034 C 173.000 252.553,174.350 251.862,176.000 251.500 C 177.650 251.138,179.000 250.463,179.000 250.000 C 179.000 249.537,180.350 248.862,182.000 248.500 C 183.650 248.138,185.000 247.463,185.000 247.000 C 185.000 246.537,186.350 245.862,188.000 245.500 C 189.650 245.138,191.000 244.533,191.000 244.156 C 191.000 243.412,198.393 240.000,200.007 240.000 C 200.553 240.000,201.000 239.586,201.000 239.079 C 201.000 238.573,202.350 237.862,204.000 237.500 C 205.650 237.138,207.000 236.463,207.000 236.000 C 207.000 235.537,208.350 234.862,210.000 234.500 C 211.650 234.138,213.000 233.427,213.000 232.921 C 213.000 232.414,213.675 232.000,214.500 232.000 C 215.325 232.000,216.000 231.600,216.000 231.111 C 216.000 230.623,217.575 229.927,219.500 229.566 C 221.425 229.205,223.000 228.532,223.000 228.071 C 223.000 227.610,223.900 226.998,225.000 226.710 C 226.100 226.423,227.000 225.470,227.000 224.594 C 227.000 223.717,227.430 223.000,227.955 223.000 C 228.480 223.000,229.205 221.425,229.566 219.500 C 229.927 217.575,230.623 216.000,231.111 216.000 C 231.600 216.000,232.000 215.325,232.000 214.500 C 232.000 213.675,232.414 213.000,232.921 213.000 C 233.427 213.000,234.138 211.650,234.500 210.000 C 234.862 208.350,235.537 207.000,236.000 207.000 C 236.463 207.000,237.138 205.650,237.500 204.000 C 237.862 202.350,238.573 201.000,239.079 201.000 C 239.586 201.000,240.000 200.553,240.000 200.007 C 240.000 198.393,243.412 191.000,244.156 191.000 C 244.533 191.000,245.138 189.650,245.500 188.000 C 245.862 186.350,246.537 185.000,247.000 185.000 C 247.463 185.000,248.138 183.650,248.500 182.000 C 248.862 180.350,249.537 179.000,250.000 179.000 C 250.463 179.000,251.138 177.650,251.500 176.000 C 251.862 174.350,252.553 173.000,253.034 173.000 C 253.516 173.000,254.205 171.425,254.566 169.500 C 254.927 167.575,255.623 166.000,256.111 166.000 C 256.600 166.000,257.000 165.325,257.000 164.500 C 257.000 163.675,257.414 163.000,257.921 163.000 C 258.427 163.000,259.138 161.650,259.500 160.000 C 259.862 158.350,260.537 157.000,261.000 157.000 C 261.463 157.000,262.138 155.650,262.500 154.000 C 262.862 152.350,263.573 151.000,264.079 151.000 C 264.586 151.000,265.000 150.553,265.000 150.007 C 265.000 148.393,268.412 141.000,269.156 141.000 C 269.533 141.000,270.138 139.650,270.500 138.000 C 270.862 136.350,271.537 135.000,272.000 135.000 C 272.463 135.000,273.138 133.650,273.500 132.000 C 273.862 130.350,274.573 129.000,275.079 129.000 C 275.586 129.000,276.000 127.875,276.000 126.500 C 276.000 124.500,275.500 124.000,273.500 124.000 C 272.125 124.000,271.000 124.414,271.000 124.921 " stroke="none" fill="#000000" fill-rule="evenodd"></path></g></svg>